<svg width="18" height="14" fill="none" xmlns="http://www.w3.org/2000/svg"><path d="M4.938.75c-.826 0-1.56.537-1.797 1.328L2.28 4.95l-1.21-.41-.39 1.171 1.23.41-.39 1.328a.608.608 0 00-.02.176v5c0 .344.28.625.625.625H4l.215-.625h9.57l.215.625h1.875c.344 0 .625-.28.625-.625v-.527a.664.664 0 000-.098V7.625a.61.61 0 00-.02-.176l-.39-1.328 1.23-.41-.39-1.172-1.211.41-.86-2.87A1.873 1.873 0 0013.063.75H4.937zm0 1.25h8.125c.278 0 .524.183.605.45l.8 2.675H3.532l.801-2.676A.63.63 0 014.938 2zM3.16 6.375h11.68l.41 1.367v3.633H2.75V7.742l.41-1.367zM4.312 7a.938.938 0 10.001 1.875.938.938 0 000-1.875zm9.375 0a.938.938 0 10.001 1.875.938.938 0 000-1.875zM6.5 8.875l-.781 1.875h1.347l.274-.625h3.32l.274.625h1.347L11.5 8.875h-5z" fill="#9595A2"/></svg>