<svg width="38" height="26" fill="none" xmlns="http://www.w3.org/2000/svg"><path d="M37.758 12.26C37.42 11.796 29.33.89 19 .89 8.67.89.58 11.796.24 12.26a1.254 1.254 0 000 1.479c.34.464 8.428 11.37 18.759 11.37 10.33 0 18.419-10.906 18.758-11.37a1.252 1.252 0 000-1.479zM19 22.604c-7.61 0-14.2-7.239-16.151-9.605 1.948-2.369 8.525-9.604 16.15-9.604 7.61 0 14.2 7.238 16.152 9.605-1.948 2.369-8.525 9.604-16.151 9.604z" fill="#fff"/><path d="M19 5.483c-4.145 0-7.517 3.372-7.517 7.516 0 4.145 3.372 7.517 7.517 7.517 4.144 0 7.516-3.372 7.516-7.516 0-4.145-3.372-7.517-7.516-7.517zm0 12.527A5.017 5.017 0 0113.989 13a5.017 5.017 0 015.01-5.011 5.016 5.016 0 015.012 5.01A5.017 5.017 0 0119 18.01z" fill="#fff"/></svg>