<svg width="19" height="16" fill="none" xmlns="http://www.w3.org/2000/svg"><path d="M8.296 0c-.969 0-1.795.614-2.108 1.455H.05v1.454h6.138a2.253 2.253 0 002.108 1.455c.97 0 1.795-.614 2.109-1.455h7.637V1.455h-7.637A2.253 2.253 0 008.296 0zm0 1.455c.422 0 .75.318.75.727s-.328.727-.75.727c-.421 0-.75-.318-.75-.727 0-.41.329-.727.75-.727zm5.248 4.363c-.97 0-1.795.614-2.109 1.455H.05v1.454h11.385a2.253 2.253 0 002.109 1.455c.97 0 1.795-.614 2.108-1.455h2.39V7.273h-2.39a2.253 2.253 0 00-2.108-1.455zm0 1.455c.421 0 .75.318.75.727 0 .41-.329.727-.75.727-.422 0-.75-.318-.75-.727 0-.41.328-.727.75-.727zm-8.246 4.363c-.97 0-1.795.614-2.109 1.455H.05v1.455h3.14A2.253 2.253 0 005.297 16c.969 0 1.795-.614 2.108-1.454h10.636V13.09H7.406a2.253 2.253 0 00-2.108-1.455zm0 1.455c.421 0 .75.318.75.727a.73.73 0 01-.75.728c-.422 0-.75-.319-.75-.728s.328-.727.75-.727z" fill="#fff"/></svg>