<svg width="12" height="18" fill="none" xmlns="http://www.w3.org/2000/svg"><path d="M2.03 5.897l2.537-1.843a1.58 1.58 0 01.984-.304 2.071 2.071 0 011.922 1.44c.147.462.281.774.403.937a3.952 3.952 0 003.165 1.581v1.584a5.53 5.53 0 01-4.276-2.017l-.552 3.131 1.632 1.37 1.76 4.835-1.489.542-1.615-4.437-2.683-2.252a1.583 1.583 0 01-.565-1.507l.403-2.284-.536.39L1.436 9.38l-1.28-.93 1.86-2.562.014.009zm4.657-2.543a1.583 1.583 0 110-3.167 1.583 1.583 0 010 3.167zM4.334 13.79L1.79 16.821.577 15.804l2.356-2.807.59-1.726 1.419 1.187-.608 1.331z" fill="#9595A2"/></svg>