<svg width="12" height="18" viewBox="0 0 12 18" fill="none" xmlns="http://www.w3.org/2000/svg">
<path d="M2.02994 5.897L4.56723 4.054C4.85206 3.84556 5.1985 3.73853 5.55127 3.75C5.98155 3.76073 6.39779 3.90525 6.74214 4.16347C7.08648 4.4217 7.34182 4.78079 7.47265 5.19083C7.6199 5.65238 7.75448 5.96429 7.8764 6.12658C8.24477 6.61805 8.72262 7.0169 9.27203 7.29146C9.82144 7.56603 10.4273 7.70876 11.0415 7.70833V9.29167C10.2239 9.29256 9.41634 9.11218 8.67685 8.76352C7.93737 8.41486 7.28438 7.90659 6.7649 7.27529L6.21311 10.4063L7.84473 11.7759L9.60461 16.6114L8.11627 17.1529L6.50127 12.7164L3.81752 10.4641C3.59728 10.2863 3.42875 10.0526 3.32947 9.78753C3.2302 9.52243 3.20381 9.23556 3.25306 8.95679L3.65602 6.67283L3.12007 7.06233L1.43619 9.38033L0.155273 8.44933L2.01648 5.8875L2.02994 5.897ZM6.68731 3.35417C6.26739 3.35417 5.86466 3.18735 5.56773 2.89042C5.2708 2.59349 5.10398 2.19076 5.10398 1.77083C5.10398 1.35091 5.2708 0.94818 5.56773 0.651248C5.86466 0.354315 6.26739 0.1875 6.68731 0.1875C7.10724 0.1875 7.50997 0.354315 7.8069 0.651248C8.10383 0.94818 8.27065 1.35091 8.27065 1.77083C8.27065 2.19076 8.10383 2.59349 7.8069 2.89042C7.50997 3.18735 7.10724 3.35417 6.68731 3.35417ZM4.33448 13.7891L1.79007 16.8212L0.577232 15.8039L2.93323 12.9967L3.52381 11.2708L4.94169 12.4583L4.33448 13.7891Z" fill="#9595A2"/>
</svg>
