<svg width="13" height="16" viewBox="0 0 13 16" fill="none" xmlns="http://www.w3.org/2000/svg">
<path d="M6.5 0C4.77609 0 3.12279 0.674282 1.90381 1.87451C0.68482 3.07474 0 4.7026 0 6.39998C0 10.72 5.72813 15.5999 5.97188 15.8079C6.11905 15.9319 6.30634 16 6.5 16C6.69366 16 6.88095 15.9319 7.02812 15.8079C7.3125 15.5999 13 10.72 13 6.39998C13 4.7026 12.3152 3.07474 11.0962 1.87451C9.87721 0.674282 8.22391 0 6.5 0ZM6.5 14.12C4.76937 12.52 1.625 9.07197 1.625 6.39998C1.625 5.12694 2.13861 3.90605 3.05285 3.00588C3.96709 2.10571 5.20707 1.59999 6.5 1.59999C7.79293 1.59999 9.03291 2.10571 9.94715 3.00588C10.8614 3.90605 11.375 5.12694 11.375 6.39998C11.375 9.07197 8.23063 12.528 6.5 14.12ZM6.5 3.19999C5.85721 3.19999 5.22886 3.38767 4.6944 3.73928C4.15994 4.0909 3.74338 4.59067 3.49739 5.1754C3.25141 5.76012 3.18705 6.40353 3.31245 7.02427C3.43785 7.645 3.74738 8.21519 4.2019 8.66271C4.65642 9.11024 5.23552 9.41501 5.86596 9.53848C6.49639 9.66195 7.14986 9.59858 7.74372 9.35638C8.33758 9.11418 8.84516 8.70403 9.20228 8.1778C9.55939 7.65156 9.75 7.03288 9.75 6.39998C9.75 5.55129 9.40759 4.73736 8.7981 4.13724C8.1886 3.53713 7.36195 3.19999 6.5 3.19999ZM6.5 7.99997C6.17861 7.99997 5.86443 7.90614 5.5972 7.73033C5.32997 7.55452 5.12169 7.30463 4.9987 7.01227C4.8757 6.71991 4.84352 6.3982 4.90622 6.08784C4.96892 5.77747 5.12369 5.49238 5.35095 5.26861C5.57821 5.04485 5.86776 4.89246 6.18298 4.83073C6.4982 4.76899 6.82493 4.80068 7.12186 4.92178C7.41879 5.04288 7.67258 5.24795 7.85114 5.51107C8.0297 5.77419 8.125 6.08353 8.125 6.39998C8.125 6.82432 7.95379 7.23129 7.64905 7.53135C7.3443 7.8314 6.93098 7.99997 6.5 7.99997Z" fill="white"/>
</svg>
