<svg width="13" height="16" fill="none" xmlns="http://www.w3.org/2000/svg"><path d="M6.5 0a6.552 6.552 0 00-4.596 1.875A6.35 6.35 0 000 6.4c0 4.32 5.728 9.2 5.972 9.408a.82.82 0 001.056 0C7.313 15.6 13 10.72 13 6.4a6.35 6.35 0 00-1.904-4.525A6.552 6.552 0 006.5 0zm0 14.12c-1.73-1.6-4.875-5.048-4.875-7.72 0-1.273.514-2.494 1.428-3.394A4.914 4.914 0 016.5 1.6c1.293 0 2.533.506 3.447 1.406A4.763 4.763 0 0111.375 6.4c0 2.672-3.144 6.128-4.875 7.72zm0-10.92c-.643 0-1.271.188-1.806.54a3.211 3.211 0 00-1.197 1.435 3.154 3.154 0 00-.185 1.85c.126.62.435 1.19.89 1.638a3.266 3.266 0 001.664.875c.63.124 1.284.06 1.878-.182a3.24 3.24 0 001.458-1.178 3.165 3.165 0 00-.404-4.04A3.276 3.276 0 006.5 3.2zm0 4.8c-.321 0-.636-.094-.903-.27A1.606 1.606 0 015 7.012a1.577 1.577 0 01.35-1.742 1.649 1.649 0 011.77-.347c.298.12.552.326.73.59a1.583 1.583 0 01-.202 2.02A1.641 1.641 0 016.5 8z" fill="#fff"/></svg>