<svg width="12" height="12" fill="none" xmlns="http://www.w3.org/2000/svg"><path d="M12 .234l-.703.313-3.313 1.422L4.172.53 3.984.47l-.187.078-3.5 1.5L0 2.172v9.594l.703-.313 3.313-1.422 3.812 1.438.188.062.187-.078 3.5-1.5.297-.125V.234zM4.5 1.72l3 1.125v7.437l-3-1.125V1.72zm-1 .031v7.422L1 10.25V2.828L3.5 1.75zm7.5 0v7.422L8.5 10.25V2.828L11 1.75z" fill="#fff"/><path fill-rule="evenodd" clip-rule="evenodd" d="M12 9.828V.234l-.703.313-3.313 1.422L4.172.53 3.984.47l-.187.078-3.5 1.5L0 2.172v9.594l.703-.313 3.313-1.422 3.812 1.438.188.062.187-.078 3.5-1.5.297-.125zm-3.5.422V2.828L11 1.75v7.422L8.5 10.25zm-1-7.406l-3-1.125v7.437l3 1.125V2.844zm-4-1.094L1 2.828v7.422l2.5-1.078V1.75z" fill="#fff"/></svg>