<svg width="19" height="18" fill="none" xmlns="http://www.w3.org/2000/svg"><path d="M14.692 18c-.185 0-.37-.02-.55-.059a18.85 18.85 0 01-9.14-4.661A17.285 17.285 0 01.054 4.623a2.367 2.367 0 01.064-1.235c.13-.399.364-.76.679-1.046l2.2-2.05A1.107 1.107 0 014.293.15c.138.08.256.188.346.317l2.75 3.937a.832.832 0 01-.061 1.012l-1.38 1.599a10.1 10.1 0 002.292 3.138 10.617 10.617 0 003.338 2.178l1.71-1.315a.918.918 0 011.023-.064l4.152 2.6c.143.082.264.194.355.329a1.047 1.047 0 01.125.92 1.047 1.047 0 01-.255.407l-2.144 2.057a2.638 2.638 0 01-1.853.735zM3.754 1.059l-2.2 2.05c-.177.16-.308.363-.38.587a1.313 1.313 0 00-.032.692 16.22 16.22 0 004.625 8.13 17.734 17.734 0 008.6 4.384 1.553 1.553 0 001.375-.394l2.145-2.056-4.01-2.51-1.836 1.418a.557.557 0 01-.506.09 11.076 11.076 0 01-4.047-2.53A10.374 10.374 0 014.81 7.084a.517.517 0 01.132-.506l1.485-1.721-2.673-3.798z" fill="#fff"/></svg>