<svg width="22" height="14" fill="none" xmlns="http://www.w3.org/2000/svg"><path d="M11.707 9.713c0-1.85.674-3.673 2.021-5.47C15.076 2.422 16.8 1.007 18.902 0l2.425 2.53c-2.263.926-3.772 2.069-4.527 3.43.108-.028.283-.042.526-.042.943 0 1.724.3 2.344.898.62.599.93 1.456.93 2.572 0 1.252-.499 2.34-1.496 3.265-.97.898-2.061 1.347-3.274 1.347-1.132 0-2.102-.38-2.91-1.143-.809-.762-1.213-1.81-1.213-3.143zm-11.209 0c0-1.85.674-3.673 2.021-5.47C3.866 2.422 5.591 1.007 7.693 0l2.425 2.53c-2.263.926-3.772 2.069-4.527 3.43.108-.028.283-.042.526-.042.943 0 1.724.3 2.344.898.62.599.93 1.456.93 2.572 0 1.252-.499 2.34-1.496 3.265C6.925 13.55 5.834 14 4.621 14c-1.132 0-2.102-.38-2.91-1.143-.809-.762-1.213-1.81-1.213-3.143z" fill="#fff"/></svg>