<svg width="16" height="16" viewBox="0 0 16 16" fill="none" xmlns="http://www.w3.org/2000/svg">
<path fill-rule="evenodd" clip-rule="evenodd" d="M16 14.9285L14.9285 16L10.5293 11.6008C9.42169 12.4769 8.02193 13 6.5 13C2.91015 13 0 10.0899 0 6.5C0 2.91015 2.91015 0 6.5 0C10.0899 0 13 2.91015 13 6.5C13 8.02193 12.4769 9.42169 11.6008 10.5293L16 14.9285ZM6.51526 11.5153C9.27669 11.5153 11.5153 9.27669 11.5153 6.51526C11.5153 3.75384 9.27669 1.51526 6.51526 1.51526C3.75384 1.51526 1.51526 3.75384 1.51526 6.51526C1.51526 9.27669 3.75384 11.5153 6.51526 11.5153Z" fill="white"/>
</svg>
