<svg width="24" height="24" fill="none" xmlns="http://www.w3.org/2000/svg"><path d="M7 0C3.145 0 0 3.145 0 7c0 1.031.316 1.988.719 2.875A11.528 11.528 0 00.5 12c0 6.34 5.16 11.5 11.5 11.5.73 0 1.434-.09 2.125-.219.887.403 1.844.719 2.875.719 3.855 0 7-3.145 7-7 0-1.031-.316-1.988-.719-2.875A11.52 11.52 0 0023.5 12C23.5 5.66 18.34.5 12 .5c-.73 0-1.434.09-2.125.219C8.988.316 8.031 0 7 0zm0 2c.863 0 1.668.21 2.375.594a1 1 0 00.688.094A9.587 9.587 0 0112 2.5c5.258 0 9.5 4.242 9.5 9.5 0 .668-.059 1.309-.188 1.938a1 1 0 00.094.687c.383.707.594 1.512.594 2.375 0 2.773-2.227 5-5 5-.863 0-1.668-.21-2.375-.594a1 1 0 00-.688-.093A9.587 9.587 0 0112 21.5 9.486 9.486 0 012.5 12c0-.668.059-1.309.188-1.938a1 1 0 00-.094-.687A4.956 4.956 0 012 7c0-2.773 2.227-5 5-5zm4.844 3.156C9.37 5.156 6.719 6.203 6.719 9c0 1.348.476 2.773 3.125 3.438l3.312.812c.996.246 1.25.809 1.25 1.313 0 .84-.832 1.656-2.344 1.656-2.953 0-2.574-2.25-4.156-2.25-.71 0-1.218.488-1.218 1.187 0 1.364 1.675 3.156 5.375 3.156 3.519 0 5.25-1.699 5.25-3.968 0-1.469-.676-3-3.344-3.594l-2.438-.563c-.926-.21-2-.472-2-1.343 0-.875.742-1.5 2.094-1.5 2.723 0 2.492 1.875 3.844 1.875.71 0 1.312-.406 1.312-1.125 0-1.68-2.66-2.938-4.937-2.938z" fill="#fff"/></svg>