<svg width="24" height="24" fill="none" xmlns="http://www.w3.org/2000/svg"><path d="M11 0v2.594L9.187.813 7.813 2.188 9.592 4H7v2h2.594L7.813 7.813l1.375 1.375L11 7.405V10h2V7.406l1.813 1.782 1.374-1.376L14.408 6H17V4h-2.594l1.781-1.813L14.813.813 13 2.593V0h-2zm1 3c1.102 0 2 .898 2 2 0 1.102-.898 2-2 2-1.102 0-2-.898-2-2 0-1.102.898-2 2-2zm-9.781 9L0 20.875V24h24v-3.125L21.781 12H2.22zm1.562 2H20.22L22 21.125V22H2v-.875L3.781 14zM5 15l-.406 1.813h2.093L7 15H5zm4 0l-.188 1.813h2.094L11 15H9zm4 0l.094 1.813h2.094L15 15h-2zm4 0l.313 1.813h2.093L19 15h-2zM4.187 18.813L3.813 21h2.282l.312-2.188H4.188zm4.5 0L8.5 21h2.313l.093-2.188H8.687zm4.407 0L13.188 21H15.5l-.188-2.188h-2.218zm4.5 0L17.906 21h2.282l-.375-2.188h-2.22z" fill="#000"/></svg>