<svg width="16" height="16" fill="none" xmlns="http://www.w3.org/2000/svg"><path d="M3.996 8a4.01 4.01 0 004.006 4.006A4.01 4.01 0 0012.007 8a4.01 4.01 0 00-4.005-4.006A4.01 4.01 0 003.996 8zm4.006-2.406A2.408 2.408 0 0110.407 8a2.408 2.408 0 01-2.405 2.406A2.408 2.408 0 015.596 8a2.408 2.408 0 012.406-2.406zM7.2 13.6h1.6V16H7.2v-2.4zM7.2 0h1.6v2.4H7.2V0zM0 7.2h2.4v1.6H0V7.2zm13.6 0H16v1.6h-2.4V7.2zM1.777 13.09l1.696-1.697 1.132 1.131-1.696 1.698-1.132-1.132zm9.617-9.615l1.697-1.697 1.132 1.13-1.698 1.698-1.131-1.13zM3.475 4.607L1.777 2.91 2.91 1.778l1.696 1.698-1.13 1.131zm10.748 8.484l-1.132 1.131-1.697-1.697 1.131-1.131 1.697 1.697z" fill="#fff"/></svg>