<svg width="26" height="25" fill="none" xmlns="http://www.w3.org/2000/svg"><path d="M24.07.996a2.974 2.974 0 00-.933.222h-.004c-.285.114-1.64.684-3.7 1.547l-7.382 3.11C6.754 8.105 1.547 10.3 1.547 10.3l.062-.023s-.359.117-.734.375a2.03 2.03 0 00-.586.567 1.658 1.658 0 00-.277 1.109c.09.723.558 1.156.894 1.394.34.243.664.356.664.356h.008l4.883 1.644c.219.704 1.488 4.875 1.793 5.836.18.575.355.934.574 1.207.106.141.23.258.38.352a1.12 1.12 0 00.245.105l-.05-.011c.015.004.027.015.038.02.04.01.067.015.118.023.773.234 1.394-.247 1.394-.247l.035-.027 2.883-2.625 4.832 3.707.11.047c1.007.441 2.027.195 2.566-.238.543-.438.754-.996.754-.996l.035-.09 3.734-19.129c.106-.473.133-.914.016-1.344a1.807 1.807 0 00-.781-1.047 1.871 1.871 0 00-1.067-.27zm-.101 2.05c-.004.063.008.055-.02.176v.012l-3.699 18.93c-.016.027-.043.086-.117.144-.078.063-.14.102-.465-.027l-5.91-4.531-3.57 3.254.75-4.79 9.656-9c.398-.37.265-.449.265-.449.028-.453-.601-.132-.601-.132L8.082 14.175l-.004-.019-5.836-1.965v-.004c-.004 0-.012-.004-.015-.004.003 0 .03-.011.03-.011l.032-.016.031-.012 10.508-4.426c2.652-1.117 5.324-2.242 7.379-3.109 2.055-.863 3.574-1.496 3.66-1.531.082-.031.043-.031.102-.031z" fill="#fff"/></svg>