<svg width="28" height="14" fill="none" xmlns="http://www.w3.org/2000/svg"><path fill-rule="evenodd" clip-rule="evenodd" d="M19.447 2.853C18.912 1.39 17.4.34 15.635.345H1.375c-.403 0-.73.299-.73.663v8.987c.009 2.032 1.815 3.666 4.02 3.66h14.257c.404 0 .732-.3.732-.664V4.004a3.395 3.395 0 00-.206-1.147l-.001-.004zM17.654 4.01c-.007-.767-.75-1.67-2.012-1.665H2.645V9.99c.005.764.744 1.668 2.013 1.665h12.996V4.01zm8.794 9.426c.423.292.907.39.907-.412V.976c0-.704-.396-.801-.907-.412l-5.888 3.95v4.98l5.888 3.942zm-3.888-5.01l2.795 1.87v-6.59L22.56 5.58v2.844z" fill="#fff"/></svg>