<svg width="198" height="21" fill="none" xmlns="http://www.w3.org/2000/svg"><g clip-path="url(#clip0)"><path d="M1.102 3.31h2.705L4.414.271h4.25l-.607 3.04h2.374l.607-3.04h4.25l-.607 3.04h2.153l-.11 3.31h-2.65l-.552 2.875h2.153l-.11 3.31h-2.76l-.608 3.04H8.002l.607-3.04H6.235l-.607 3.04h-4.25l.607-3.04H-.112l.11-3.31h2.705l.552-2.876H1.102V3.31zm5.74 6.186h2.374l.552-2.876H7.45l-.607 2.876z" fill="#D90002"/><path d="M40.794.271l1.49 6.24 4.14-6.24h4.527l-10.267 15.52h-4.527l3.147-4.83L36.212.271h4.582zm11.589 0h6.237c3.533 0 5.134 1.194 5.134 3.256.027.89-.23 1.767-.735 2.506a4.333 4.333 0 01-2.08 1.618c.65.14 1.232.499 1.645 1.013.412.515.63 1.154.618 1.809.009.236-.01.473-.055.705-.553 2.714-2.65 4.613-7.232 4.613h-6.568L52.383.27zm6.348 10.31c0-.76-.608-1.085-1.877-1.085h-1.877l-.607 2.985h1.877c1.435 0 2.152-.38 2.428-1.52.05-.12.069-.25.056-.38zm.662-6.023c0-.705-.552-.922-1.656-.922h-1.6l-.553 2.659h1.601c1.325 0 1.932-.38 2.153-1.357a.91.91 0 00.055-.38zM77.553.271l2.153 15.52h-4.692l-.276-2.55h-5.355l-1.27 2.55h-4.691L71.812.27h5.74zM71.15 9.713h3.256l-.552-5.48-2.704 5.48zm17.555 1.086h-1.546l-.993 4.992H81.75L84.84.27h5.962c3.478 0 5.741 1.303 5.741 4.016-.012.4-.049.798-.11 1.194-.718 3.635-3.754 5.318-7.728 5.318zm3.312-5.807c0-.976-.718-1.356-1.987-1.356h-1.436l-.772 3.853h1.435c1.49 0 2.428-.543 2.704-1.954 0-.163.056-.38.056-.543zm26.772-1.193h-4.416l.718-3.528h13.303l-.718 3.528h-4.416l-2.428 12.046h-4.416L118.789 3.8zm15.456 7h-1.546l-.993 4.992h-4.416L130.381.27h6.016c3.478 0 5.741 1.303 5.741 4.016-.012.4-.049.798-.11 1.194-.773 3.635-3.809 5.318-7.783 5.318zm3.312-5.807c0-.976-.718-1.356-1.987-1.356h-1.436l-.772 3.853h1.435c1.49 0 2.428-.543 2.704-1.954.046-.177.065-.36.056-.543zm5.297 5.101c0-5.86 4.251-10.093 9.605-10.093 4.14 0 6.403 2.388 6.403 6.023 0 5.806-4.305 10.039-9.605 10.039-4.084 0-6.403-2.333-6.403-5.969zm11.482-3.527c0-1.9-.939-3.039-2.539-3.039-2.264 0-4.361 2.388-4.361 5.97 0 1.844.938 2.984 2.539 2.984 2.208.054 4.361-2.28 4.361-5.915zm8.393-6.295h4.306l-1.711 8.466L172.168.27h4.361l-3.091 15.52h-4.306l1.712-8.465-6.845 8.465h-4.361L162.729.27zm19.539 3.528h-4.416L178.57.27h13.303l-.718 3.528h-4.416l-2.428 12.046h-4.416L182.268 3.8zM107.196 0c3.367 0 6.679 1.736 6.458 5.969h-3.919c-.221-1.79-1.546-2.28-3.257-2.28-2.76 0-4.471 2.226-4.968 4.722-.441 2.279.994 3.907 3.312 3.907a4.322 4.322 0 002.434-.629 4.217 4.217 0 001.651-1.867h4.085c-1.491 4.504-5.465 6.24-8.887 6.24-4.14 0-7.784-2.767-6.79-8.14C98.31 2.55 102.835 0 107.196 0zM29.368 0c3.367 0 6.68 1.736 6.459 5.969h-3.92c-.22-1.79-1.545-2.28-3.256-2.28-2.76 0-4.472 2.226-4.968 4.722-.442 2.279.993 3.907 3.312 3.907a4.323 4.323 0 002.434-.629 4.216 4.216 0 001.65-1.867h4.085c-1.49 4.504-5.465 6.24-8.887 6.24-4.14 0-7.783-2.767-6.79-8.14C20.593 2.496 25.064 0 29.369 0z" fill="#000"/><path d="M194.523 16.06c1.464 0 2.65-1.19 2.65-2.658a2.654 2.654 0 00-2.65-2.66 2.654 2.654 0 00-2.649 2.66 2.654 2.654 0 002.649 2.659z" fill="#D90002"/></g><defs><clipPath id="clip0"><path fill="#000" d="M0 0h198v21H0z"/></clipPath></defs></svg>