<svg width="85" height="21" fill="none" xmlns="http://www.w3.org/2000/svg"><g clip-path="url(#clip0)" fill-rule="evenodd" clip-rule="evenodd"><path d="M45.699 5.086c.204.212 2.044 5.247 2.237 5.869.191.666.462 1.305.806 1.902.637.15.697-.51.89-1.032 1.046-2.822 2.633-6.938 3.427-9.71C53.612.772 53.66.41 52.662.41s-.89.672-1.287 1.542c-.349 1.654-1.695 5.147-2.188 6.751 0 .212 0 .212-.253.212-.83-2.387-1.792-5.31-2.73-7.672-.252-.46-.697-.56-.998.473-.505 1.641-1.203 3.593-1.744 5.185 0 0-.65 2.014-.697 2.113a6.335 6.335 0 01-.746-1.852c-.746-1.903-1.395-3.954-2.032-5.857-.157-.36-.157-.571-.506-.783a2.016 2.016 0 00-1.094-.1c-.986.162-.349.983-.144 1.592 1.202 3.345 2.537 7.36 3.872 10.544a.484.484 0 00.148.2.46.46 0 00.658-.088c.192-.386 2.634-7.585 2.778-7.585zM.193.622a1.01 1.01 0 00.048.622c.205.87-.397 10.792-.24 11.19a2.333 2.333 0 001.551.15c.24-.262.144-.51.144-.92 0-1.754.145-3.445.145-5.248.06-.671.108-1.131.108-1.541 0-.41 0-.36.096-.46.096-.1 1.672 2.735 1.828 3.046.3.61.89 1.542 1.287 2.263.601 1.131.902.36 1.046.1.349-.46 3.043-5.347 3.235-5.447.18.2.18 5.086.18 5.446 0 2.673-.3 2.934 1.335 2.823.506 0 .554-.41.506-.87V9.051a121.872 121.872 0 01-.229-6.938c0-.26.096-1.243.096-1.392A.947.947 0 0010.126.51c-.348.21-.444.671-.697.982C8.42 3.345 7.06 5.447 6.11 7.2c-.349.621-.349.41-.65 0-.649-.982-1.49-2.673-2.08-3.656L2.177 1.493A4.264 4.264 0 001.54.51C1.203.26.542.46.193.622zM63.652 6.38a3.28 3.28 0 011.47-.713 3.226 3.226 0 011.62.09c1.588.722 1.793 3.146 1.095 4.328-.297.46-.725.813-1.225 1.012-.5.198-1.046.23-1.565.094a3.547 3.547 0 01-1.395-.622V6.38zm0-1.754a36.762 36.762 0 010-4.065c0-.56-.192-.66-.697-.46-1.203.522-1.203.31-1.035 1.442.096.572 0 7.199 0 8.131 0 1.84-.252 2.263 2.333 3.034a5.39 5.39 0 002.234.012 5.484 5.484 0 002.06-.895c2.537-2.15 1.84-8.218-2.79-7.758a8.982 8.982 0 00-1.203.149c-.156.05-.746.41-.818.41h-.084zm-35.067 7.92c.188-.648.24-1.33.156-2.002-.05-.703-.05-1.41 0-2.113.144 0 .3.26.601.572.3.31 2.778 2.984 3.175 3.282a1.165 1.165 0 001.046.31c.35 0 .902 0 1.095-.248 0-.36-.698-.932-.998-1.243a19.478 19.478 0 01-1.035-1.132 21.595 21.595 0 01-2.14-2.25c0-.112 2.73-2.487 3.235-2.934.192-.212.397-.261.348-.572a3.122 3.122 0 00-1.9 0c-.24.112-1.888 1.653-2.333 2.064-.144.149-.998 1.081-1.094 1.032-.144-.473 0-6.9-.096-7.261-.096-.361-1.792.21-1.744.833.094.436.143.882.144 1.33v8.89c0 .31-.096 1.243.108 1.392.468.124.957.14 1.432.05zM15.63 8.331c.554-.149 2.406.311 2.49.82a9.529 9.529 0 010 1.655c-.349.46-2.742 1.38-3.535-.262a1.79 1.79 0 010-1.492 1.523 1.523 0 011.046-.721zm2.538-.621a4.276 4.276 0 00-1.539-.66 5.52 5.52 0 00-2.044.15 2.729 2.729 0 00-1.414.994 2.884 2.884 0 00-.564 1.667 2.89 2.89 0 00.505 1.688c.338.492.82.86 1.376 1.047a4.404 4.404 0 002.935 0c.204-.1.601-.36.745-.41.145-.05.205.36.397.46.193.1 1.095 0 1.347-.249.253-.249.3-.211.144-.572a2.65 2.65 0 01-.24-1.542V6.578a2.233 2.233 0 00-.349-1.492c-.95-1.952-6.674-1.181-6.217.473.457 1.653 1.202-.572 3.728-.261 1.359.149 1.214 1.492 1.214 2.412h-.024zm58.87-.249h-4.125a2.25 2.25 0 01.638-1.343c.39-.353.879-.566 1.395-.609.269-.023.54.01.796.098.256.088.492.228.695.412.204.173.365.395.47.646.104.25.15.524.131.796zm-4.233 1.33c.3-.149 4.81 0 5.628 0 .818 0 .445-2.772-1.046-3.904a3.918 3.918 0 00-4.281-.348 4.092 4.092 0 00-1.613 1.6 4.278 4.278 0 00-.54 2.242 4.345 4.345 0 00.497 2.189c.353.67.876 1.228 1.511 1.616 1.335.932 4.92.883 5.364-.56.553-1.852-.746-.82-1.203-.621a4.217 4.217 0 01-1.202.31c-2.658.311-3.307-2.113-3.115-2.524zM54.755 7.46a2.154 2.154 0 01.654-1.387 2.02 2.02 0 011.39-.564c1.035-.112 2.237.82 2.033 1.952h-4.077zm-.205 1.244h5.58c.65 0 .542-.41.494-.92a4.087 4.087 0 00-.604-1.942 3.912 3.912 0 00-1.453-1.38 3.757 3.757 0 00-3.812.126 4.133 4.133 0 00-1.516 1.64 4.309 4.309 0 00-.468 2.215 4.002 4.002 0 00.475 2.18 3.823 3.823 0 001.557 1.55c1.696 1.082 5.027.621 5.328-.61 0-.36.24-1.243-.301-1.031a6.511 6.511 0 01-2.105.783 2.91 2.91 0 01-1.178-.08 2.97 2.97 0 01-1.058-.542c-.433-.36-1.13-1.442-.938-1.99zm27.01 3.891c.301-.31.253-.46.253-.92v-1.243c0-1.641-.3-4.364 1.54-4.775.396-.1.493.25.998.15.297-.277.521-.628.65-1.02 0-.783-1.204-.932-2.298-.423-.349.162-.637.721-.89.771 0-.46.096-.659-.204-1.07a2.655 2.655 0 00-1.095.361c-.493.25-.589.25-.493.87.097.622 0 4.887 0 5.907.048 1.554.048 1.504 1.54 1.392zm-58.638-.049v-.1c.14-1.262.175-2.535.108-3.804 0-.982.24-2.574 1.287-2.885.841-.31.89.51 1.443 0 1.287-1.392-.445-1.952-1.491-1.492-1.047.46-.902.82-1.203.92a2.565 2.565 0 010-.609c0-.26-.108-.26-.204-.41a2.03 2.03 0 00-1.095.31c-.493.2-.65.25-.493.871.106.953.138 1.914.096 2.872v2.835c.108 1.542-.096 1.654 1.552 1.492z" fill="#221F20"/><path d="M45.35 14.2a26.38 26.38 0 00-5.82 1.43c-.59.26-1.203.41-1.792.67-1.203.46-2.333.871-3.524 1.344-.397.149-3.235 1.02-3.728 1.131-2.405.61-6.013 1.33-8.31.249-1.094-.56-1.202 1.181 1.287 1.803a9.838 9.838 0 004.377-.2c1.203-.26 2.646-.72 3.789-1.081 1.142-.36 2.489-.77 3.728-1.131.3-.112.54-.212.89-.311l1.84-.572c.348-.1.6-.249.901-.36l1.9-.46c.35-.1.602-.2.903-.312a34.934 34.934 0 017.66-.82c.638 0 1.588.161 2.237.26 1.203.15.938-.509.144-.932a12.264 12.264 0 00-6.482-.708z" fill="#F9CC46"/></g><defs><clipPath id="clip0"><path fill="#fff" d="M0 0h85v21H0z"/></clipPath></defs></svg>