<svg width="65" height="65" fill="none" xmlns="http://www.w3.org/2000/svg"><path d="M21.323 33.278l-.008-.004a.707.707 0 01-.197-.197l-.005-.007a.701.701 0 01-.06-.114l-.003-.01a.693.693 0 01-.037-.121v-.007a.693.693 0 01-.013-.13V27.07a.701.701 0 01.705-.702.706.706 0 01.705.702v3.924l2.783-2.775A11.071 11.071 0 0133 25a11.07 11.07 0 017.807 3.218.704.704 0 01.153.766.702.702 0 01-.651.433.707.707 0 01-.498-.205A9.658 9.658 0 0033 26.404a9.659 9.659 0 00-6.811 2.808l-2.784 2.774h3.937a.706.706 0 01.704.703.701.701 0 01-.704.702h-5.638a.713.713 0 01-.13-.012l-.007-.001a.695.695 0 01-.122-.037l-.01-.003a.707.707 0 01-.113-.06zm23.664 5.904v-.007a.692.692 0 00-.037-.122l-.003-.009a.697.697 0 00-.06-.114l-.005-.007a.707.707 0 00-.197-.197l-.008-.004a.707.707 0 00-.114-.06l-.009-.003a.708.708 0 00-.122-.037h-.007a.718.718 0 00-.13-.013h-5.638a.706.706 0 00-.704.702.701.701 0 00.704.703h3.937l-2.784 2.774A9.659 9.659 0 0133 45.596a9.659 9.659 0 01-6.81-2.807.706.706 0 00-1.2.497c0 .186.073.364.203.496A11.072 11.072 0 0033 47a11.07 11.07 0 007.807-3.218l2.783-2.775v3.924a.701.701 0 00.705.703.706.706 0 00.705-.703v-5.62a.692.692 0 00-.013-.129z" fill="#D90002"/><path d="M64 24.057v7.17h-4.065v30.725c0 .543-.214 1.064-.595 1.448-.38.384-.898.6-1.437.6H7.097a2.024 2.024 0 01-1.437-.6 2.057 2.057 0 01-.595-1.448V31.226H1v-7.17L31.29 1.403a2.022 2.022 0 012.42 0L64 24.057z" stroke="#464646" stroke-linecap="round" stroke-linejoin="round"/></svg>