<svg width="83" height="71" fill="none" xmlns="http://www.w3.org/2000/svg"><path d="M5.9 16.752l2.6-.513a2.623 2.623 0 013.13 2.115c.61 3.421 2.001 11.574 2.554 14.716l1.962 2.514M11.55 17.596l1.403-.28a2.627 2.627 0 013.136 2.122c.758 4.299 1.328 8.267 1.984 11.756l1.944 2.737M16.756 20.72l1.111-.216a2.623 2.623 0 013.13 2.115c.765 4.299 1.922 10.377 1.922 10.377m5.034 12.759a13.062 13.062 0 00-13.882-2.212 5.93 5.93 0 01-1.277.45c-3.108.616-3.695-2-4.607-3.99-.816-1.768-2.537-3.153-4.47-4.083A1.876 1.876 0 001.1 38.2a64.306 64.306 0 003.563 8.485 14.077 14.077 0 002.851 4.179c2.452 2.229 5.97 2.685 9.208 3.37 3.238.683 6.767 2 8.147 5.01v9.79" stroke="#344154" stroke-miterlimit="10" stroke-linecap="round"/><path d="M22.138 35.79c4.122.985 9.122 1.59 12.4 6.806A20.777 20.777 0 0137.56 51.4v18.14M3.922 35.79L1.7 18.8a2.537 2.537 0 012.035-2.732v0a2.308 2.308 0 012.737 1.905L9.18 34.649l2.372 2.817m65.53-20.714l-2.6-.513a2.623 2.623 0 00-3.13 2.115c-.61 3.421-2 11.574-2.554 14.716l-1.961 2.514m4.595-17.988l-1.402-.28a2.627 2.627 0 00-3.136 2.122c-.758 4.299-1.329 8.267-1.984 11.756l-1.944 2.737m3.261-13.211l-1.14-.216a2.623 2.623 0 00-3.13 2.115c-.764 4.299-1.922 10.377-1.922 10.377m-4.988 12.759a13.062 13.062 0 0113.882-2.212c.408.198.836.35 1.278.45 3.107.616 3.694-2 4.606-3.99.816-1.768 2.537-3.153 4.47-4.083A1.876 1.876 0 0181.9 38.2a64.3 64.3 0 01-3.563 8.485 14.077 14.077 0 01-2.85 4.179c-2.453 2.229-5.97 2.685-9.209 3.37-3.238.683-6.767 2-8.147 5.01v9.79" stroke="#344154" stroke-miterlimit="10" stroke-linecap="round"/><path d="M60.845 35.79c-4.122.985-9.122 1.59-12.4 6.806a20.777 20.777 0 00-3.022 8.804v18.14m33.638-33.75l2.223-16.99a2.537 2.537 0 00-2.046-2.755v0A2.308 2.308 0 0076.5 17.95l-2.697 16.7-2.371 2.816" stroke="#344154" stroke-miterlimit="10" stroke-linecap="round"/><path d="M53.915 29l-7.15-.001a2.08 2.08 0 01-1.474-.616 2.112 2.112 0 01-.611-1.485v-7.205a.302.302 0 00-.298-.3h-4.766a.297.297 0 00-.298.3v7.204c0 .558-.22 1.092-.611 1.486a2.08 2.08 0 01-1.474.616L30.085 29a2.072 2.072 0 01-1.474-.615A2.105 2.105 0 0128 26.899V13.02a2.12 2.12 0 01.682-1.555L40.596.55a2.066 2.066 0 012.805 0l11.917 10.917A2.106 2.106 0 0156 13.021V26.9a2.11 2.11 0 01-.61 1.485 2.077 2.077 0 01-1.475.616zM39.616 18.192h4.766c.553 0 .636.072 1.027.466.39.394.313.478.313 1.035l.15 7.805a.298.298 0 00.298.3l8.34.001a.297.297 0 00.299-.3V12.571a.302.302 0 00-.098-.222L42.2.83a.296.296 0 00-.401 0L29.14 12.5a.302.302 0 00-.097.222l.149 14.778a.301.301 0 00.297.3h8.489a.297.297 0 00.298-.3v-7.806c0-.557-.078-.64.313-1.035.391-.393.474-.465 1.027-.466z" fill="#D60000"/></svg>