<svg width="66" height="65" viewBox="0 0 66 65" fill="none" xmlns="http://www.w3.org/2000/svg">
<path d="M65 24.2388V31.4646H60.871V62.4323C60.871 62.9798 60.6534 63.505 60.2663 63.8921C59.8791 64.2793 59.354 64.4968 58.8064 64.4968H7.19355C6.646 64.4968 6.12092 64.2793 5.73374 63.8921C5.34657 63.505 5.12903 62.9798 5.12903 62.4323V31.4646H1V24.2388L31.7716 1.40521C32.1271 1.14204 32.5577 1 33 1C33.4423 1 33.8729 1.14204 34.2284 1.40521L65 24.2388Z" stroke="#464646" stroke-linecap="round" stroke-linejoin="round"/>
<circle cx="33" cy="37.1289" r="13.9516" stroke="#D90002"/>
<path d="M38.2778 43.3227L31.9678 37.9371V28.8711H33.2674V37.3825L39.1936 42.4804L38.2778 43.3227Z" fill="#D90002"/>
</svg>
