<svg width="72" height="72" fill="none" xmlns="http://www.w3.org/2000/svg"><path d="M48.42 49.548l15.016-8.626a5.08 5.08 0 016.887 1.852 5.092 5.092 0 01-1.852 6.943L46.557 62.204c-1.032.59-2.2.897-3.387.892H26.562a6.865 6.865 0 00-3.478.96l-4.02 2.427" stroke="#D90002" stroke-linecap="round" stroke-linejoin="round"/><path d="M30.355 51.806h12.984a5.092 5.092 0 005.08-5.08v0a5.092 5.092 0 00-5.08-5.081H24.936a6.774 6.774 0 00-3.523.982l-11.38 6.921" stroke="#D90002" stroke-linecap="round" stroke-linejoin="round"/><path d="M1 50.678l5.645-3.387 13.537 21.451L16.806 71" stroke="#D90002" stroke-linejoin="round"/><path d="M38.258 1L8.904 21.323v6.774h6.774V24.71l22.58-15.807L60.84 24.71v4.516h6.774v-7.903L38.258 1z" stroke="#464646" stroke-linecap="round" stroke-linejoin="round"/><path d="M49.548 3.258V1h11.29v10.161M15.677 45.032v-12.42m45.162 1.13v7.903" stroke="#464646" stroke-linecap="square" stroke-linejoin="round"/></svg>