<svg width="75" height="75" fill="none" xmlns="http://www.w3.org/2000/svg"><path d="M65.827 58.333H9.617a5.287 5.287 0 01-5.286-5.286V16.7a5.286 5.286 0 015.286-5.286h56.21a5.286 5.286 0 015.287 5.286v36.346a5.286 5.286 0 01-5.287 5.286v0z" stroke="#000" stroke-miterlimit="10" stroke-linecap="round" stroke-linejoin="round"/><path d="M65.827 58.333H9.617a5.287 5.287 0 01-5.286-5.286V16.7a5.286 5.286 0 015.286-5.286h56.21a5.286 5.286 0 015.287 5.286v36.346a5.286 5.286 0 01-5.287 5.286v0zm-58.313-7.82H67.93M44.982 63.498c0 5.166 9.209 7.336 9.209 7.336H21.253s9.209-2.17 9.209-7.336" stroke="#464646" stroke-miterlimit="10" stroke-linecap="round" stroke-linejoin="round"/><path d="M32.579 32.496L25.122 42h-4.57l4.122-5.483h1.362v-1.828l3.354-4.45a5.857 5.857 0 113.189 2.257z" stroke="#D90002" stroke-linecap="round" stroke-linejoin="round"/><path d="M33.383 32.66l-.265 3.226 1.819 1.819 1.946-1.938L43.4 42l10.052-10.052-6.397-6.397 2.102-2.066-1.818-1.818-8.508.694" stroke="#D90002" stroke-linecap="square" stroke-linejoin="round"/></svg>