<svg width="52" height="69" fill="none" xmlns="http://www.w3.org/2000/svg"><path d="M23.358 67.331C4.061 39.356.48 36.484.48 26.203c0-14.083 11.417-25.5 25.5-25.5s25.5 11.417 25.5 25.5c0 10.281-3.582 13.153-22.88 41.128-1.266 1.83-3.974 1.83-5.24 0z" fill="#D90002"/><ellipse cx="25.979" cy="26.388" rx="20.983" ry="21.407" fill="#fff"/><path d="M35.557 25.237l-9.08-9.096a.703.703 0 00-.996 0l-9.08 9.096a1.414 1.414 0 00.996 2.416h.958v6.49c0 .392.315.708.705.708h5.509v-4.95h2.469v4.95h5.861c.39 0 .705-.316.705-.707v-6.491h.957c.375 0 .734-.148.999-.416a1.418 1.418 0 00-.003-2z" fill="#D90002"/></svg>