<svg width="63" height="82" fill="none" xmlns="http://www.w3.org/2000/svg"><path d="M22.087 54.822s1.333-3.058 4.373-2.869a4.635 4.635 0 013.804 2.496 4.77 4.77 0 01.25 3.791 6.396 6.396 0 01-.807 1.609c-.13.191-.27.375-.422.55a31.538 31.538 0 01-3.217 3.1s-3.235 2.594-3.993 4.312c-.752-1.718-3.988-4.311-3.988-4.311a30.896 30.896 0 01-3.204-3.12 6.184 6.184 0 01-1.23-2.159 4.802 4.802 0 01.245-3.79 4.655 4.655 0 013.822-2.496c3.04-.183 4.367 2.887 4.367 2.887z" stroke="#D90002" stroke-miterlimit="10" stroke-linecap="round"/><path d="M52.005 62.43s1.083 1.357-.978 2.715" stroke="#344154" stroke-linecap="round" stroke-linejoin="round"/><path d="M19.494 38.456A10.916 10.916 0 016.412 32.06a6.947 6.947 0 003.517-3.021c3.712-5.89 1.315-14.152 4.972-20.078l.043-.067a15.692 15.692 0 0113.387-7.51H30.1a15.711 15.711 0 0113.38 7.51l.044.067c3.669 5.926 1.223 14.188 4.965 20.078a6.972 6.972 0 003.517 3.021 10.904 10.904 0 01-13.063 6.397" stroke="#344154" stroke-miterlimit="10" stroke-linecap="round"/><path d="M34.055 38.725c1.101 2.611 1.603 5.26 7.627 6.978 2.19.612 2.672.722 4.892 1.333" stroke="#344154" stroke-miterlimit="10" stroke-linecap="round"/><path d="M41.205 22.463c-.648 4.116-2.446 10.159-4.684 13.559a8.88 8.88 0 01-7.382 4.238v0a8.874 8.874 0 01-7.382-4.226v0a29.484 29.484 0 01-4.452-12.2c-1.431-10.831 10.11-11.137 17.124-5.884 0 0 4.366 3.315 6.788 4.526" stroke="#344154" stroke-miterlimit="10" stroke-linecap="round"/><path d="M24.35 38.725c-1.089 2.611-1.596 5.26-7.62 6.966-2.19.611-4.397 1.223-6.6 1.835a6.953 6.953 0 00-4.794 4.727L1.11 73.658a6.177 6.177 0 006.06 7.339h26.353a34.009 34.009 0 008.789-1.046 34.803 34.803 0 0010.305-4.648 24.157 24.157 0 007.155-6.91 13.509 13.509 0 001.07-12.905 10.807 10.807 0 00-4.758-5.247 8.869 8.869 0 00-9.045.385c-3.565 2.349-3.278 5.97-2.868 7.737 0 0 .96 3.13-.337 5.81" stroke="#344154" stroke-linecap="round" stroke-linejoin="round"/><path d="M50.733 68.747c-8.788-.03-12.776-5.37-12.776-5.37a29.357 29.357 0 00-7.375 4.018 7.95 7.95 0 00-3.107 8.728l.728 1.883" stroke="#344154" stroke-linecap="round" stroke-linejoin="round"/></svg>