<svg width="74" height="74" viewBox="0 0 74 74" fill="none" xmlns="http://www.w3.org/2000/svg">
<path d="M49.4718 24.4847L25.4772 48.472C25.3522 48.597 25.1826 48.6672 25.0058 48.6672C24.829 48.6672 24.6595 48.597 24.5345 48.4721C24.4094 48.3471 24.3392 48.1776 24.3392 48.0009C24.3392 47.8241 24.4094 47.6546 24.5344 47.5297L48.529 23.5424C48.5909 23.4805 48.6644 23.4314 48.7453 23.3979C48.8261 23.3644 48.9128 23.3471 49.0004 23.3471C49.0879 23.3471 49.1746 23.3644 49.2555 23.3978C49.3363 23.4313 49.4098 23.4804 49.4717 23.5423C49.5336 23.6041 49.5828 23.6776 49.6163 23.7584C49.6498 23.8393 49.667 23.9259 49.667 24.0135C49.667 24.101 49.6498 24.1876 49.6163 24.2685C49.5828 24.3493 49.5337 24.4228 49.4718 24.4847ZM24.568 31.1145C23.6935 30.2424 23.1486 29.094 23.0263 27.8652C22.9039 26.6364 23.2116 25.4031 23.897 24.3757C24.5823 23.3483 25.6029 22.5903 26.7847 22.231C27.9665 21.8716 29.2364 21.9331 30.3779 22.405C31.5195 22.8768 32.462 23.7299 33.0448 24.8187C33.6276 25.9075 33.8147 27.1646 33.5741 28.3759C33.3335 29.5871 32.6801 30.6775 31.7254 31.4611C30.7707 32.2446 29.5736 32.673 28.3384 32.673C27.638 32.6752 26.9442 32.5386 26.2971 32.271C25.6499 32.0035 25.0622 31.6106 24.568 31.1145ZM24.3393 27.3452C24.3395 28.2693 24.6602 29.1647 25.2468 29.8789C25.8334 30.5931 26.6495 31.0819 27.5561 31.2621C28.4627 31.4423 29.4038 31.3026 30.219 30.867C31.0342 30.4314 31.6731 29.7266 32.0269 28.8729C32.3807 28.0192 32.4274 27.0692 32.1592 26.1849C31.891 25.3006 31.3244 24.5366 30.5559 24.023C29.7874 23.5095 28.8646 23.2781 27.9446 23.3685C27.0247 23.4588 26.1645 23.8651 25.5107 24.5183C25.1381 24.8887 24.8428 25.3292 24.6417 25.8145C24.4407 26.2997 24.3378 26.82 24.3393 27.3452ZM51 44.6693C51 45.9026 50.5723 47.0977 49.7897 48.051C49.0071 49.0043 47.9181 49.6569 46.7082 49.8975C45.4983 50.1382 44.2424 49.952 43.1544 49.3706C42.0664 48.7893 41.2137 47.8488 40.7416 46.7095C40.2695 45.5701 40.2072 44.3024 40.5653 43.1222C40.9233 41.9421 41.6797 40.9226 42.7054 40.2374C43.7311 39.5522 44.9627 39.2438 46.1904 39.3646C47.4181 39.4855 48.5658 40.0281 49.4382 40.9002C49.9349 41.394 50.3286 41.9814 50.5967 42.6284C50.8648 43.2753 51.0019 43.969 51 44.6693ZM49.6669 44.6693C49.667 43.7444 49.3462 42.8481 48.7593 42.1331C48.1724 41.418 47.3556 40.9286 46.4482 40.7481C45.5408 40.5676 44.5988 40.7073 43.7828 41.1433C42.9668 41.5792 42.3273 42.2846 41.9732 43.1391C41.6191 43.9936 41.5723 44.9444 41.8409 45.8295C42.1094 46.7146 42.6767 47.4793 43.4459 47.9932C44.2152 48.5071 45.1389 48.7384 46.0597 48.6478C46.9804 48.5572 47.8413 48.1502 48.4955 47.4962C48.8681 47.1258 49.1634 46.6853 49.3645 46.2001C49.5655 45.7148 49.6684 45.1946 49.6669 44.6693Z" fill="#D90002"/>
<circle cx="37" cy="37" r="36.5" stroke="#344154"/>
<circle cx="37" cy="37" r="30.5" stroke="#344154"/>
</svg>
