<svg width="74" height="74" fill="none" xmlns="http://www.w3.org/2000/svg"><path d="M49.472 24.485L25.477 48.472a.667.667 0 01-.943-.942L48.53 23.542a.667.667 0 01.943.943zm-24.904 6.63a5.335 5.335 0 012.217-8.884 5.34 5.34 0 016.79 6.145 5.337 5.337 0 01-5.237 4.297 5.298 5.298 0 01-3.77-1.559zm-.229-3.77a3.993 3.993 0 003.217 3.917 3.997 3.997 0 004.603-5.077 3.995 3.995 0 00-6.648-1.667 3.971 3.971 0 00-1.172 2.827zM51 44.67a5.33 5.33 0 01-4.292 5.229 5.333 5.333 0 01-6.143-6.776 5.33 5.33 0 018.873-2.222A5.295 5.295 0 0151 44.67zm-1.333 0a3.997 3.997 0 00-5.884-3.526 3.998 3.998 0 104.712 6.353 3.972 3.972 0 001.172-2.827z" fill="#D90002"/><circle cx="37" cy="37" r="36.5" stroke="#344154"/><circle cx="37" cy="37" r="30.5" stroke="#344154"/></svg>