<svg width="142" height="50" fill="none" xmlns="http://www.w3.org/2000/svg"><path fill-rule="evenodd" clip-rule="evenodd" d="M65.69.91h-11.8v18.07h2.62V2.23h8.82l.36-1.32zm21.68 0L81.9 15.65 76.43.91h-2.54l6.74 18.12h.03l-2.79 7.53h1.34l4.45-11.96h-.02L88.73.91h-1.36zm25.33 15a7.894 7.894 0 01-2.32 1.34 7.532 7.532 0 01-2.66.48 6.998 6.998 0 01-5.13-2.33 7.602 7.602 0 01-1.43-2.44 9.312 9.312 0 010-6c.32-.899.805-1.73 1.43-2.45a6.935 6.935 0 012.23-1.65 6.662 6.662 0 012.9-.61c.908 0 1.808.159 2.66.47a8.098 8.098 0 012.32 1.34l.84-1a9.38 9.38 0 00-2.73-1.58 8.929 8.929 0 00-3.09-.54 10.671 10.671 0 00-4 .72 9.413 9.413 0 00-3.06 1.94 8.383 8.383 0 00-1.94 2.86 9.56 9.56 0 000 7 8.433 8.433 0 001.94 2.87 9.403 9.403 0 003.06 1.93c1.275.494 2.633.738 4 .72a8.999 8.999 0 005.82-2.12l-.84-.95zm12.76-15v1.32h6.59v16.75h2.62V2.23h6.23l.36-1.32h-15.8zM14.94 41.35h-3.21l2.53-6.52 2.54 6.52h-1.86zm-.83-9.89l-3.82 9.89H.83l-.36 1.32h9.36l-2.64 6.85h1.4l2.65-6.85h6.05l2.66 6.85h2.62l-7-18.06h-1.46zM38.97 35a6.931 6.931 0 012.23-1.65 6.661 6.661 0 012.9-.61 7.452 7.452 0 012.65.48c.849.307 1.637.76 2.33 1.34l.84-1a9.392 9.392 0 00-2.73-1.58 9.212 9.212 0 00-3.09-.53 10.871 10.871 0 00-4 .71 9.473 9.473 0 00-3.06 1.94 8.48 8.48 0 00-1.94 2.86 9.58 9.58 0 000 7 8.48 8.48 0 001.94 2.86 9.47 9.47 0 003.06 1.94c1.277.486 2.634.727 4 .71a9.207 9.207 0 003.09-.53 9.39 9.39 0 002.73-1.58l-.84-1a7.73 7.73 0 01-2.33 1.34 7.45 7.45 0 01-2.65.48v-.06a6.659 6.659 0 01-2.9-.61 6.928 6.928 0 01-2.23-1.65 7.64 7.64 0 01-1.43-2.45 9.31 9.31 0 010-6A7.64 7.64 0 0138.97 35zm22.87-2.23h6.59v16.75h2.62V32.77h6.05l.54-1.31h-15.8v1.31zm36.05 5.3a2.62 2.62 0 01-.87 1.05 3.13 3.13 0 01-1.18.48c-.41.07-.824.107-1.24.11h-2.44V32.8h2.44c.416.002.832.042 1.24.12.42.079.821.238 1.18.47.378.267.678.63.87 1.05a4.06 4.06 0 01.35 1.82 4 4 0 01-.35 1.81zm1.75-5.2a4.911 4.911 0 00-1.91-1 10.9 10.9 0 00-3.13-.37h-5.07v18.06h2.63V41h2.44a10.878 10.878 0 003.13-.38 4.671 4.671 0 001.91-1c.441-.413.769-.933.95-1.51.184-.592.275-1.21.27-1.83a6.137 6.137 0 00-.27-1.85 3.41 3.41 0 00-.95-1.56z" fill="#04102D"/><path d="M131.82 31.46h-2.62v18.07h2.62V31.46z" fill="#04102D"/><path fill-rule="evenodd" clip-rule="evenodd" d="M122.64 46.26c-.23.46-.575.852-1 1.14a3.84 3.84 0 01-1.42.56 8.397 8.397 0 01-1.56.15h-3.09v-7.53h3.12a5.18 5.18 0 013.38.87 3.683 3.683 0 011 2.89 4.096 4.096 0 01-.4 1.92h-.03zm-.84-6.53a13.898 13.898 0 00-3.85-.44h-2.41v-7.7h-2.57V49.4h5.71a8.55 8.55 0 005.13-1.34 4.717 4.717 0 001.794-3.143 4.703 4.703 0 00-.964-3.487 5.61 5.61 0 00-2.81-1.7h-.03zM7.59 4.28l2.54 6.53H5.06l2.53-6.53zm-3.07 7.84h6.06L13.23 19h2.6L8.83.93H7.42L.42 19h1.41l2.69-6.88zm32.99 3.67a3.171 3.171 0 01-1 1.16c-.44.285-.933.479-1.45.57a8.55 8.55 0 01-1.58.15h-3.13V10h3.16a5.23 5.23 0 013.43.88 3.71 3.71 0 011 2.93 4.05 4.05 0 01-.4 1.94l-.03.04zm-7.2-13.56h2.44c.415 0 .83.033 1.24.1.415.064.81.217 1.16.45.371.253.67.598.87 1a4.5 4.5 0 010 3.43 2.54 2.54 0 01-.87 1 2.87 2.87 0 01-1.16.45 7.71 7.71 0 01-1.24.11h-2.44V2.23zm10.25 11.62a4.39 4.39 0 00-1-3 5.82 5.82 0 00-2.89-1.73 4.999 4.999 0 001.7-1.5 3.71 3.71 0 00.62-2.16 4.87 4.87 0 00-.49-2.36 3.61 3.61 0 00-1.32-1.39 5.58 5.58 0 00-2-.65 17 17 0 00-2.45-.17h-5.06V19h5.78a8.66 8.66 0 005.2-1.36 4.4 4.4 0 001.91-3.79z" fill="#04102D"/></svg>