<svg width="121" height="30" fill="none" xmlns="http://www.w3.org/2000/svg"><path fill-rule="evenodd" clip-rule="evenodd" d="M7.27 21.1a2.48 2.48 0 012.64 1.43 1.84 1.84 0 01-1.32 2.6c-2.78.54-4.16-3.36-1.32-4v-.03zm7-1.32c2.78-.7 3.39 3.43.53 4-2.86.57-3.47-3.27-.53-4zM2.15 18.34a2.14 2.14 0 011.73-2.78 2.27 2.27 0 01.35 4.48 1.93 1.93 0 01-2.08-1.7zM6.1 8.81a1.82 1.82 0 012.18 1.84 2.35 2.35 0 01-1.82 2.41c-2.69.57-3.26-3.6-.36-4.25zm5.39-4a1.88 1.88 0 012.43 1.58 2.4 2.4 0 01-1.74 2.41c-2.82.81-3.71-3.21-.69-4v.01zM.02 19.21a.13.13 0 010 .08v.08c.116.772.29 1.534.52 2.28a8.6 8.6 0 003.93 4.83c5.75 3.09 12.44-.18 16.09-4.81a15.92 15.92 0 003-5.79c.09-.32.42-2.27.49-2.38a6.938 6.938 0 00-.19-2.53 1.38 1.38 0 00-.66-.69 2.35 2.35 0 00-1.31-.17c-.39.85-.71 2-1.09 2.91a28.124 28.124 0 00-1.1 2.86c.68.41.75.75.29 1.43a2.19 2.19 0 01-1.37 1.07c-.22.28-.22.19-.7.19s-.66-.12-.8-.47c-.26-.2-.21-.28-.39-.58a2.67 2.67 0 011.38-3.09l.93-3.07c-.709.2-1.45.257-2.18.17a2 2 0 01-1.5-1c-.45-1.3.7-2.78 1.26-3.39a8.95 8.95 0 011.31-1.1 4.5 4.5 0 001.31-1.08c0-1 0-1.16-.8-1.52-2.78-1.28-6.84-.61-9.59.83-.51.28-1 .58-1.5.91a16.71 16.71 0 00-6.94 9.69 16.44 16.44 0 00-.35 4.3l-.04.04z" fill="#004994"/><path fill-rule="evenodd" clip-rule="evenodd" d="M71.61 17.54c.81 0 .72.06 1.34-.27v9.92c-1.54.36-1.34.56-1.34 1.75 4.09 0 3 .57 4.83-2.41l4.82-7.92v8.58c-1.52.36-1.34.45-1.34 1.75h4.83v-1.75a3.242 3.242 0 00-1.48.27v-9.92c1.85-.16 1.52-1.75.94-1.75-3.42 0-2.8-.29-3.68 1.15l-5.7 9.31c0-.68.14-1.13.13-2v-6.7c1.78-.15 1.55-1.75.94-1.75h-4.29v1.74zM29.1 16.2c0 .62-.11 1.22 1.34 1.34v9.65c-1.45.34-1.34.58-1.34 1.34 0 .31.1.41.4.41h4.56v-1.75a2.51 2.51 0 00-1.47.27V17.4h5.5v9.79c-1.55.36-1.34.56-1.34 1.75h5v-1.75a3.46 3.46 0 00-1.61.27v-9.79c1.17-.56 1.47-.09 1.47-1.47 0-.31-.09-.41-.4-.41H29.5c-.3 0-.4.1-.4.41z" fill="#1A1A18"/><path fill-rule="evenodd" clip-rule="evenodd" d="M.06 19.17c0 3.45 1.18 6.67 4 8.49a10.71 10.71 0 0010 .58 16.24 16.24 0 0010.11-14.78c-.07.11-.4 2.06-.49 2.38a15.921 15.921 0 01-3 5.79c-3.65 4.63-10.34 7.9-16.09 4.81a8.6 8.6 0 01-3.93-4.83 15.762 15.762 0 01-.52-2.28v-.08a.13.13 0 00-.08-.08z" fill="#009EA4"/><path fill-rule="evenodd" clip-rule="evenodd" d="M58.74 17.27a6.795 6.795 0 001.74.27 57.996 57.996 0 01-.26 6.45 8.998 8.998 0 01-.34 2.07c-.55 1.67-.85 1.4-2.35 1.4 0 1.26-.24 1.58 1.37 1.71 1.9.17 2.72-1.57 3-3.22.44-2.828.63-5.689.57-8.55h4v9.79c-1.54.36-1.34.56-1.34 1.75h5v-1.75a5.41 5.41 0 00-1.61.27v-9.79c1.37-.65 1.34.12 1.34-1.88H59.14c-.61 0-.4.84-.4 1.48zm54.57.67c.1.14 0 0 .14.26l1.6 4.7h-3.48l.88-2.46c.3-.88.65-1.62.86-2.5zm-2.68-.67a4.23 4.23 0 001.2.27l-3.7 9.46a1.999 1.999 0 01-1.39.62v1.35h4.69v-1.35a8.012 8.012 0 01-1.47-.4c.126-.436.28-.864.46-1.28.19-.456.35-.924.48-1.4h4.82c.08 1 .72 1.69.81 2.68-1.35.65-1.48-.24-1.48 1.75h4.69c.5 0 .41-.29.41-.94 0-.65-1-.47-1.35-.8l-3.06-8.34c-1.37-3.82-.36-3.07-5.11-3.07v1.45zm-61.15.8c.46.34 1.71 4.38 1.75 4.83h-3.4c.201-.83.465-1.642.79-2.43a14.49 14.49 0 00.82-2.4h.04zm-2.65-1.87c0 .74-.17 1.22 1.21 1.34l-1.06 2.83c-.34.87-2.39 6.55-2.81 6.85-.94.68-1.23-.4-1.23 1.72h4.83c0-1.42.18-1.33-1.61-1.75.43-.8.65-1.88 1.07-2.68h4.7c.122.44.272.87.45 1.29.16.47.39 1 .49 1.39-.26.06-.46.11-.74.2-.45.15-.22.16-.74.2v1.35h5c0-2.3-.47-.93-1.28-1.8a7.483 7.483 0 01-.65-1.63l-3.29-9c-.37-1-.22-.67-3.9-.67-.38-.05-.44.05-.44.36zm56.15 6.03h-1.61V17.4c2.46 0 4 0 4 2.55a2.288 2.288 0 01-2.42 2.28h.03zm-5-5.09c.46.143.907.32 1.34.53v9.52a2.26 2.26 0 00-.83.24c-.63.29-.51.29-.51 1.51h5.1v-1.75a5.502 5.502 0 00-1.75.27v-3.62c1.63 0 3.19 0 4.38-.86 2.57-1.87 2-5.61 0-6.61-1.47-.75-5.39-.58-7.34-.58-.54 0-.35.72-.35 1.35h-.04zm-11.89 2.27c1.11 0 1.74.29 1.74-2h2.55v9.79c-2 .16-1.68 1.75-1.07 1.75h4.52V27.2a3.239 3.239 0 00-1.48.27V17.4h2.48c0 2.21.83 2 1.48 2s.4-1.32.4-3.21c0-.31-.09-.41-.4-.41H86.09v3.63z" fill="#1A1A18"/><path fill-rule="evenodd" clip-rule="evenodd" d="M14.31 19.78c-2.94.74-2.29 4.57.53 4 2.82-.57 2.25-4.7-.53-4z" fill="#009EA4"/><path fill-rule="evenodd" clip-rule="evenodd" d="M7.27 21.1c-2.84.67-1.46 4.57 1.32 4a1.84 1.84 0 001.32-2.6 2.48 2.48 0 00-2.64-1.4z" fill="#FCBC0A"/><path fill-rule="evenodd" clip-rule="evenodd" d="M11.53 4.77c-3 .78-2.13 4.8.69 4a2.4 2.4 0 001.74-2.41 1.88 1.88 0 00-2.43-1.59z" fill="#7C368C"/><path fill-rule="evenodd" clip-rule="evenodd" d="M6.14 8.81c-2.9.65-2.33 4.82.36 4.25a2.35 2.35 0 001.82-2.41 1.82 1.82 0 00-2.18-1.84z" fill="#D94A95"/><path fill-rule="evenodd" clip-rule="evenodd" d="M2.19 18.34a1.93 1.93 0 002.08 1.7A2.06 2.06 0 006.03 18a1.93 1.93 0 10-3.84.34z" fill="#EC5F98"/><path fill-rule="evenodd" clip-rule="evenodd" d="M17.98 18.53c.48 0 .48.09.7-.19.2-.44.36-.77.55-1.22.154-.436.33-.863.53-1.28A28.47 28.47 0 0120.83 13c.38-.94.7-2.06 1.09-2.91.15-.34.21-.58.33-.9a2.32 2.32 0 01-1.41-.27c-1.01 3.17-2.01 6.23-2.86 9.61z" fill="#FCBC0A"/><path fill-rule="evenodd" clip-rule="evenodd" d="M31.92 8c-1.37 2.58-1.47 1.95-2.15 2.28.07.86 1 .92 1.54.2 1.11-1.43 1-2.06 1.95-2.08V10c-.56.13-.62.08-.67.67.17.1 2.28.5 2.28-.27V10h-.67V8.39c.83 0 .53-.07 1.36 1.18.3.45.72 1.37 1.32 1.37.6 0 .76-.14.8-.67-.29-.14-.26-.07-.42-.12-.61-.2-1.23-1.23-1.72-2.16 2.05-3.07 2.11-1.14 2.14-2.55h-2c0 .92-.18.79.4.67-.16.3-1.05 1.61-1.47 1.61h-.4c0-3 .54-.74.67-2.28H32.6c0 2 .67-1 .67 2.28-.81 0-1-.29-1.88-1.61.53.11.54.24.54-.67h-2.15c.05.92.63.33 2.14 2.56z" fill="#1A1A18"/><path fill-rule="evenodd" clip-rule="evenodd" d="M19.1 11.32l-.93 3.07-.48 1.84c-.19.56-.37 1.26-.51 1.83.14.35.36.39.8.47.85-3.38 1.86-6.44 2.89-9.63a1.64 1.64 0 01-.69-.46l-1.08 2.88z" fill="#FFD563"/><path fill-rule="evenodd" clip-rule="evenodd" d="M77.51 6.14v4c-.56.13-.62.08-.67.67h2v-.67h-.67V6.52a.19.19 0 010 .09 33.269 33.269 0 011.42 3.8h.81l1-2.83a2.12 2.12 0 01.42-.92v3.48c-.55.13-.62.08-.67.67h2.15v-.67c-.84 0-.61.36-.69-.25V6.12c.55-.13.62-.08.67-.67h-1.75a11.422 11.422 0 01-.65 2 5.63 5.63 0 01-.82 1.86c-.07-.83-1.09-2.8-1.35-3.89h-1.88c.06.64.12.58.68.72zm-21.32-.27c0 .59.57.36.67.4a27.588 27.588 0 01-.03 3.73c-.26.51-.44 0-.46.88h1.46a24.164 24.164 0 012.54-3.75V10c-.55.13-.62.08-.67.67a6.58 6.58 0 002.28.13V10h-.67V6.24a2.13 2.13 0 01.67-.26v-.54c-1.86 0-1.3-.21-2.7 1.85l-1.45 2V6.2c.59-.28.65.07.67-.8h-2.28l-.03.47z" fill="#1A1A18"/><path fill-rule="evenodd" clip-rule="evenodd" d="M23.72.66c.08.15.06-.08 0 .12a4.86 4.86 0 00-.75 2.08c-.14 1-.94 1.55-1.65.87-.19.38.13 1.28.29 1.65 2.59-.12 1.65-1.68 3.3-3.94L26.1.07a5.64 5.64 0 00-2.31.55l-.07.04z" fill="#7C368C"/><path fill-rule="evenodd" clip-rule="evenodd" d="M38.22 6.27a3.18 3.18 0 00.67-.13V10c-.57.13-.65.11-.67.8 2 0 1.13.27 2.7-1.85.434-.703.922-1.372 1.46-2V10c-.58.13-.66.11-.67.8h2.12V10h-.67V6.24c.59-.28.65.07.67-.8-1.71 0-1.34-.15-2 .91l-2.11 3.11V6.24c.54-.12.75-.19.8-.8h-2.28l-.02.83zm46.53 0V10c-.56.27-.61-.07-.67.67a6.57 6.57 0 002.28.13V10c-.94 0-.67 1-.67-3.89h2.54V10c-.57.13-.65.11-.67.8h2.15V10c-.89 0-.67.86-.67-3.76.64-.05.79-.11.8-.8h-5.76c.01.73.09.7.67.83zm16.76 0c.62 0 .55-.32.67.15V10c-.57.13-.66.11-.67.8 2.48 0 2.28.2 2.28-.8h-.67V8.39c1.62 0 1.56 2.55 2.81 2.55.55 0 .76-.14.81-.67-1-.47-.53.25-1.26-.89-.34-.52-.61-.87-.89-1.39.241-.418.515-.816.82-1.19a1.78 1.78 0 011.19-.82v-.54h-2.14c0 .91 0 .78.54.67-.18.33-.93 1.61-1.35 1.61h-.53c0-3 .54-.74.67-2.28h-2.28v.83zm-9.92 0a6.092 6.092 0 00-.14 2 11.92 11.92 0 01-.4 1.88h-.8v.67c1.23.29 1.67.14 2-1.66.114-.996.174-1.998.18-3h1.61V10c-.56.13-.62.08-.67.67a6.57 6.57 0 002.28.13V10c-.89 0-.67.86-.67-3.76.57-.13.65-.1.67-.8h-5c.07.88.35.56.94.83zm-26.02 0a3 3 0 00.67-.13V10c-.66.05-.67.09-.67.8h2.15V10c-.89 0-.67.69-.67-1.61h.53c.68 0 1.36 2.55 2.42 2.55a1.94 1.94 0 00.67-.14v-.67c-.85 0-.71 0-1.32-1-.28-.44-.56-.79-.83-1.18 1.91-2.85 2-1.31 2-2.55h-2v.67h.54c-1.06 1.59-1.09 1.61-2 1.61V6.2c.57-.13.65-.1.67-.8h-2.15l-.01.87zM44.83 6c.26.08.528.123.8.13a13.16 13.16 0 01-.4 4h-.8v.67c1.87.45 2-1.28 2-3.22 0-.74.12-.88.13-1.47h1.61V10c-.57.13-.65.11-.67.8 1.53 0 2.28.22 2.28-.4s-.33-.2-.67-.38c-.17-.09-.16.67-.14-1.09V6.24c.64-.05.79-.11.8-.8h-5l.06.56zm6.53 2.42c0-3.54 3.22-2.78 3.22-.54 0 3.56-3.22 2.78-3.22.54zm-.94-.27c0 3.72 5.1 3.92 5.1-.13a2.56 2.56 0 10-5.1.13zm23.2 2.15c-2.3 0-2-4.29-.14-4.29 2.39 0 2.29 4.29.14 4.29zM71.07 8c0 4.2 5.1 3.64 5.1.27 0-4.03-5.1-3.82-5.1-.27zm26.15-.38c.56-2.43 2.68-1.77 2.68-.54 0 .71-2 .54-2.68.54zm-.94.53a3.34 3.34 0 00.7 2c1.33 1.41 2.68.67 3.72.43-.17-.36-.12-.15-.13-.68-.55.05-3.12 1.19-3.35-1.6.81 0 3.2.15 3.52-.65a2.197 2.197 0 00-.3-1.64c-.94-1.37-4.16-.76-4.16 2.14z" fill="#1A1A18"/><path fill-rule="evenodd" clip-rule="evenodd" d="M15.42 10.46c.12-.13 0 0 .13-.19l.31-.57a7.699 7.699 0 011.69-1.86c1.57-1.39 1.75-.35 1.75-3a4.5 4.5 0 01-1.31 1.08c-.47.324-.909.692-1.31 1.1-.56.66-1.71 2.14-1.26 3.44z" fill="#009EA4"/><path fill-rule="evenodd" clip-rule="evenodd" d="M21.61 5.38l.19.42.31.22.65.11c2.22 0 1.58-2.68 2.53-4.59.326-.457.598-.95.81-1.47l-1.19 1.37c-1.65 2.26-.71 3.82-3.3 3.94z" fill="#732082"/><path fill-rule="evenodd" clip-rule="evenodd" d="M107.01 8.15a2.648 2.648 0 00.754 2.073 2.647 2.647 0 002.066.777 6.431 6.431 0 001.61-.4c-.17-.36-.12-.15-.13-.68-.43 0-3.35 1.27-3.35-1.87 0-2.57 2.54-2.25 2.54-1.48v.67h.81c.62-2.67-2.85-2-3.63-1.07a4 4 0 00-.67 1.98z" fill="#1A1A18"/><path fill-rule="evenodd" clip-rule="evenodd" d="M21.32 3.73c.71.68 1.51.11 1.65-.87a4.86 4.86 0 01.75-2.08c.06-.2.08 0 0-.12a3.94 3.94 0 00-1.64 1 3.31 3.31 0 00-.76 2.07z" fill="#934E99"/><path fill-rule="evenodd" clip-rule="evenodd" d="M20.83 8.9c.43.237.923.331 1.41.27 0-.4.21-.94.29-1.4.112-.54.175-1.089.19-1.64l-.65-.11c-.5.92-.915 1.884-1.24 2.88z" fill="#008E9E"/><path fill-rule="evenodd" clip-rule="evenodd" d="M2.19 18.34a1.93 1.93 0 113.84-.37 2.08 2.08 0 00-2.11-2.41 2.14 2.14 0 00-1.73 2.78z" fill="#E8368C"/><path fill-rule="evenodd" clip-rule="evenodd" d="M20.18 8.44c.186.21.424.368.69.46.324-.996.74-1.96 1.24-2.88l-.31-.22c-.4.34-.738.746-1 1.2l-.38.67a1.38 1.38 0 00-.24.77z" fill="#00B4C2"/><path fill-rule="evenodd" clip-rule="evenodd" d="M16.83 17.48c.14-.19.46-1 .9-1.25l.48-1.84a2.67 2.67 0 00-1.38 3.09z" fill="#009EA4"/><path fill-rule="evenodd" clip-rule="evenodd" d="M57.66 3.59c0 .85.43 1.34 1.61 1.34 1.71 0 2.14-1.74 1.07-1.74s.58 1.07-1.34 1.07c-.91 0 .18-1.07-.94-1.07-.3 0-.4.09-.4.4z" fill="#1A1A18"/></svg>