<svg width="131" height="33" fill="none" xmlns="http://www.w3.org/2000/svg"><path fill-rule="evenodd" clip-rule="evenodd" d="M74.645 27.25v-.91a1.06 1.06 0 01.65-1l-.72-1.46a.09.09 0 01.09-.12h.45a.121.121 0 01.11.08l.66 1.38h.3v-1.4a.09.09 0 01.06-.096.091.091 0 01.04-.004h.41a.09.09 0 01.075.026.092.092 0 01.026.074v1.36h.3l.65-1.38a.141.141 0 01.12-.08h.45a.08.08 0 01.09.077.08.08 0 01-.01.043l-.71 1.46a1.06 1.06 0 01.65 1v.91a.091.091 0 01-.026.074.09.09 0 01-.075.026h-.41a.09.09 0 01-.1-.1v-.93a.51.51 0 00-.55-.53h-.38v1.46a.091.091 0 01-.025.074.09.09 0 01-.075.026h-.41a.09.09 0 01-.1-.1v-1.39h-.39a.51.51 0 00-.54.53v.93a.09.09 0 01-.1.1h-.42a.09.09 0 01-.083-.038.09.09 0 01-.007-.092zm4.25-1.03v-2.4a.09.09 0 01.06-.095.088.088 0 01.04-.005h.42a.088.088 0 01.074.026.09.09 0 01.026.074v2.4a.51.51 0 00.54.54h.44v-2.94a.09.09 0 01.06-.095.088.088 0 01.04-.005h.46a.088.088 0 01.074.026.09.09 0 01.026.074v3.16a.32.32 0 01-.36.36h-.74a1.1 1.1 0 01-1.16-1.12zm2.591 1.05v-.39a.09.09 0 01.06-.095.088.088 0 01.04-.005c.21 0 .34-.21.34-.55v-1.41a1.101 1.101 0 011.13-1.1h.63a.328.328 0 01.36.36v3.17a.09.09 0 01-.1.1h-.41a.1.1 0 01-.11-.1v-2.94h-.37a.508.508 0 00-.55.53v1.37c0 .69-.35 1.13-1 1.16a.1.1 0 01-.02-.1zm3.25-1.01v-1.44a1.16 1.16 0 112.31 0v1.42a1.162 1.162 0 01-1.624 1.169 1.161 1.161 0 01-.686-1.169v.02zm1.69 0v-1.44a.53.53 0 00-1.06 0v1.46a.53.53 0 101.06 0v-.02zm1.172-.04v-2.4a.09.09 0 01.06-.096.09.09 0 01.04-.004h.42a.09.09 0 01.096.06.09.09 0 01.004.04v2.4a.51.51 0 00.54.54h.44v-2.94a.088.088 0 01.026-.074.09.09 0 01.074-.026h.42a.09.09 0 01.096.06.088.088 0 01.004.04v3.16a.318.318 0 01-.214.346.32.32 0 01-.146.014h-.7a1.1 1.1 0 01-1.16-1.14v.02zm.25-3.64a.09.09 0 01.06-.096.09.09 0 01.04-.004h.28c.06 0 .09 0 .11.09a.37.37 0 00.7 0c0-.06 0-.09.11-.09h.28c.06 0 .09 0 .09.1a.78.78 0 01-.83.72.79.79 0 01-.84-.72zm6.55 3.76v.91c0 .07 0 .1-.09.1h-.43c-.06 0-.09 0-.09-.1v-.93a.51.51 0 00-.55-.53h-.43v1.46a.091.091 0 01-.026.074.09.09 0 01-.074.026h-.42c-.07 0-.1 0-.1-.1v-3.43a.09.09 0 01.06-.096.091.091 0 01.04-.004h.42a.09.09 0 01.074.026.092.092 0 01.026.074v1.36h.35l.66-1.38a.13.13 0 01.12-.08h.45a.08.08 0 01.078.035.08.08 0 01.002.085l-.72 1.46a1.07 1.07 0 01.65 1.04zm.51-.08v-1.44a1.122 1.122 0 011.16-1.18 1.11 1.11 0 011.15 1.18v1.42a1.1 1.1 0 01-1.15 1.17 1.12 1.12 0 01-1.16-1.17v.02zm1.69 0v-1.44a.53.53 0 10-1.06 0v1.46a.53.53 0 101.06 0v-.02zm1.308.99v-3.22a.27.27 0 01.3-.29h.25a.32.32 0 01.34.21l.42.94c.102.232.192.469.27.71.074-.245.164-.486.27-.72l.42-.93a.31.31 0 01.34-.21h.25a.258.258 0 01.216.074.262.262 0 01.062.1c.012.037.017.077.012.116v3.22a.095.095 0 01-.004.038.086.086 0 01-.019.032.09.09 0 01-.067.03h-.42a.084.084 0 01-.04-.003.085.085 0 01-.033-.022.09.09 0 01-.018-.035.076.076 0 01.001-.04v-2.63c-.09.24-.18.48-.28.71l-.32.78a.33.33 0 01-.34.22h-.1a.33.33 0 01-.34-.22l-.33-.78c-.1-.23-.18-.47-.27-.71v2.63a.09.09 0 01-.06.096.09.09 0 01-.04.004h-.32a.09.09 0 01-.15-.1zm6.15-3.15v3.15c0 .07 0 .1-.1.1h-.42c-.06 0-.09 0-.09-.1v-2.92h-1v2.92c0 .07 0 .1-.1.1h-.42a.095.095 0 01-.075-.026.09.09 0 01-.025-.074V24.1a.317.317 0 01.018-.143.325.325 0 01.342-.217h1.48a.328.328 0 01.371.209.34.34 0 01.019.151zm.39 3.17v-.39a.09.09 0 01.004-.04.094.094 0 01.056-.056.09.09 0 01.04-.004c.21 0 .34-.21.34-.55v-1.41a1.1 1.1 0 011.17-1.1h.63a.332.332 0 01.342.217.332.332 0 01.018.143v3.17a.09.09 0 01-.004.04.094.094 0 01-.056.056.092.092 0 01-.04.004h-.41a.09.09 0 01-.1-.1v-2.94h-.38a.51.51 0 00-.55.53v1.37c0 .69-.35 1.13-.95 1.16a.098.098 0 01-.077-.026.098.098 0 01-.025-.033.113.113 0 01-.008-.041zm3.26-1.02v-1.43a1.148 1.148 0 011.963-.813c.216.215.337.508.337.813a1.069 1.069 0 01-1.15 1.09h-.53v.38a.5.5 0 00.52.56.516.516 0 00.483-.328.518.518 0 00.037-.202.09.09 0 01.004-.04.094.094 0 01.056-.056.09.09 0 01.04-.004h.42a.089.089 0 01.074.026c.01.01.017.021.022.034a.09.09 0 01.004.04 1.117 1.117 0 01-.332.802 1.105 1.105 0 01-.808.318 1.1 1.1 0 01-1.14-1.18v-.01zm1.15-.91a.493.493 0 00.496-.307.505.505 0 00.034-.203.503.503 0 00-.136-.412.51.51 0 00-.404-.158.496.496 0 00-.394.162.501.501 0 00-.126.408v.51h.53zm3.991 1v.91c0 .07 0 .1-.09.1h-.43a.094.094 0 01-.037-.008.09.09 0 01-.03-.022.085.085 0 01-.019-.032c-.004-.013-.005-.025-.004-.038v-.93a.508.508 0 00-.55-.53h-.43v1.46a.09.09 0 01-.025.074.096.096 0 01-.035.022.087.087 0 01-.04.004h-.42c-.07 0-.1 0-.1-.1v-3.43a.091.091 0 01.005-.04.081.081 0 01.021-.034.092.092 0 01.034-.022.092.092 0 01.04-.004h.42a.088.088 0 01.04.004.096.096 0 01.035.022.09.09 0 01.025.074v1.36h.35l.67-1.38a.113.113 0 01.11-.08h.45a.081.081 0 01.078.035.09.09 0 01.014.042c0 .015-.004.03-.012.043l-.72 1.46a1.068 1.068 0 01.65 1.04zm.521-.08v-1.44a1.133 1.133 0 011.095-1.165 1.129 1.129 0 011.165 1.095c0 .06 0 .09-.1.09h-.42a.098.098 0 01-.074-.022.1.1 0 01-.036-.068.467.467 0 00-.301-.48.469.469 0 00-.199-.03.505.505 0 00-.383.163.494.494 0 00-.127.397v1.46a.489.489 0 00.021.215.487.487 0 00.286.308c.068.028.14.04.213.037.3 0 .49-.21.52-.56 0-.07 0-.1.1-.1h.43c.06 0 .09 0 .09.1a1.133 1.133 0 01-.698 1.068 1.12 1.12 0 01-.442.082 1.112 1.112 0 01-1.065-.706 1.105 1.105 0 01-.075-.444z" fill="#EF7C00"/><path fill-rule="evenodd" clip-rule="evenodd" d="M59.765 11.32h1.07c.11 0 .16-.08.16-.21v-.37c.018-.216.05-.43.1-.64a4.3 4.3 0 01.24-.75c.1-.264.242-.51.42-.73a2.11 2.11 0 01.66-.55 2 2 0 01.95-.21 2.19 2.19 0 011 .2 2.31 2.31 0 011.12 1.17c.104.234.194.475.27.72.06.24.1.45.13.65.01.14.01.28 0 .42v3.12a11.58 11.58 0 01-.12 1.82c-.06.42-.168.833-.32 1.23-.1.28-.253.537-.45.76a1.68 1.68 0 01-.53.39 1.458 1.458 0 01-.56.15h-1.1c-.204-.032-.4-.1-.58-.2a1.698 1.698 0 01-.52-.49 2.996 2.996 0 01-.43-.94c-.14-.495-.24-1-.3-1.51a19.222 19.222 0 01-.11-2.2l-.05-.08h-.51a2.262 2.262 0 00-.44 0s-.06 0-.1.07a.18.18 0 00-.05.13v4.68c0 .12 0 .18-.07.2h-.15a.905.905 0 01-.27 0h-.89c-.14 0-.22 0-.24-.08a.84.84 0 01-.05-.3V8.6a3.772 3.772 0 010-.42.34.34 0 01.24-.09c.136-.01.274-.01.41 0h.42a1.52 1.52 0 01.28 0h.14c.05 0 .07.09.07.2v2.99l.16.04zm2.8 3.79c-.027.422.049.844.22 1.23a.73.73 0 00.7.4.59.59 0 00.41-.15c.114-.104.206-.23.27-.37.072-.16.123-.327.15-.5a3.37 3.37 0 00.05-.52v-4.53a1.456 1.456 0 00-.05-.29 2.408 2.408 0 00-.14-.4 1.1 1.1 0 00-.26-.35.59.59 0 00-.41-.15.71.71 0 00-.41.12 1 1 0 00-.28.32 1.478 1.478 0 00-.17.41c-.039.13-.059.264-.06.4l-.02 4.38zm8.81 3.12h-.32c-.14.01-.28.01-.42 0a.64.64 0 01-.32-.13.47.47 0 01-.11-.32c-.01-.18-.01-.36 0-.54v-4.69h-.18a2.15 2.15 0 00-.41.25c-.156.127-.3.268-.43.42a.91.91 0 00-.26.49 4.26 4.26 0 00-.08.72v3.09c.01.11.01.22 0 .33 0 .15 0 .24-.13.28a.84.84 0 01-.29 0h-.86c-.13 0-.2 0-.22-.13a2.209 2.209 0 010-.39v-3.66a2.55 2.55 0 01.76-1.8 1.4 1.4 0 01.22-.17c.1-.06.15-.11.15-.15l-.07-.1-.15-.14-.2-.17a.861.861 0 01-.17-.15 1.56 1.56 0 01-.35-.68 6.198 6.198 0 01-.16-.86 7.71 7.71 0 010-.79v-.43a.41.41 0 000-.12v-.07a.48.48 0 01.18 0h1.08a.18.18 0 01.22.19l.09 1.1c.02.173.057.344.11.51a.82.82 0 00.31.44c.078.061.161.115.25.16l.31.12.13-.02h.11V8.18s.05-.08.15-.1a1.9 1.9 0 01.37 0c.15-.01.3-.01.45 0h.41s.06 0 .11.06a.19.19 0 01.06.12v2.63c0 .05.07.07.22.06a1.1 1.1 0 00.5-.17 1.55 1.55 0 00.5-.43 1.17 1.17 0 00.22-.75V8.3h1.38a.27.27 0 01.13 0 .23.23 0 01.06.12c.006.08.006.16 0 .24v.72c.01.232-.01.464-.06.69a4.305 4.305 0 01-.28.88 1.52 1.52 0 01-.65.68c-.08 0-.1.08-.08.11.029.035.055.072.08.11l.3.4.27.42c.102.19.166.397.19.61.02.21.02.42 0 .63v4.04a.23.23 0 010 .11h-1.36a.12.12 0 01-.11-.08.32.32 0 010-.19 3.213 3.213 0 010-.34V13.5a1 1 0 00-.23-.56 1.47 1.47 0 00-.5-.38c-.22-.1-.36-.15-.42-.13-.06.02-.09.15-.09.42v4.97c0 .14-.05.22-.13.25a.59.59 0 01-.28.16zm6.05-.16h-1.2c-.16 0-.25-.07-.26-.14-.01-.07 0-.19 0-.35V8.3a.16.16 0 01.05-.11.7.7 0 01.23 0h1.35s.05 0 .05.07v3.37c0 .13 0 .2.16.19.29-.02.58-.02.87 0 .29.015.58.015.87 0h.11V8.45c0-.21.08-.22.24-.22h.7c.23.016.46.016.69 0a.26.26 0 01.19 0c.05 0 .06.1.05.21-.01.11 0 .37 0 .71v8.71a.69.69 0 01-.1.3.46.46 0 01-.28.11h-1.13a.29.29 0 01-.26-.14.55.55 0 01-.07-.35v-4.16a.24.24 0 000-.14s-.08-.06-.16-.07h-1.67c-.12 0-.19.06-.19.2v3.71c.01.113.01.227 0 .34a.77.77 0 010 .27c-.15.1-.18.14-.24.14zm5.733-9.59a.431.431 0 01.06-.26.3.3 0 01.24-.11 3.09 3.09 0 01.52 0c.176.02.354.02.53 0a.34.34 0 01.18 0 .22.22 0 01.07.19v3.18c0 .14.05.22.21.23a2.73 2.73 0 011.65.48c.42.302.748.713.95 1.19a3.8 3.8 0 01.32 1.55 4.19 4.19 0 01-.26 1.56 3.09 3.09 0 01-.8 1.19 1.87 1.87 0 01-1.28.47h-1.7a2.01 2.01 0 01-.34 0 .34.34 0 01-.3-.3V8.48h-.05zm1.58 4.76v3.18a.201.201 0 000 .13c.015.033.04.06.07.08.106.014.214.014.32 0a1.37 1.37 0 00.55-.18 1.55 1.55 0 00.51-.51c.165-.307.241-.653.22-1a1.72 1.72 0 00-.26-1 1.628 1.628 0 00-.57-.5 1.718 1.718 0 00-.58-.15l-.26-.05zm3.83-4.64a.39.39 0 01.36-.49h1.13a.2.2 0 01.18.11.785.785 0 01.05.15v9.42c0 .27-.12.43-.35.46a2.802 2.802 0 01-.5 0h-.5a.3.3 0 01-.26-.12.591.591 0 01-.09-.34V8.6h-.02zm7.96 4.27s-.1.18-.23.44-.3.57-.49.93c-.19.36-.41.76-.63 1.19-.22.43-.43.83-.63 1.19s-.36.68-.5.94l-.25.43a.47.47 0 01-.29.16 2.097 2.097 0 01-.38 0h-1a.14.14 0 01-.14-.07.78.78 0 010-.14V8.32a.281.281 0 01.07-.11.24.24 0 01.1-.08h1.3a.19.19 0 01.12.07.27.27 0 01.09.11 3.34 3.34 0 010 .49v5.85s0 .08.06.08a1.49 1.49 0 00.15-.26c.09-.18.21-.41.34-.7.13-.29.3-.62.47-1 .17-.38.35-.75.53-1.13.18-.38.36-.77.54-1.14.18-.37.33-.7.46-1 .13-.3.29-.62.45-1a.63.63 0 01.16-.3 1 1 0 01.34 0h.42c.136.015.273.015.41 0a.52.52 0 01.31 0c.06 0 .09.13.09.27v9.62c0 .06-.09.1-.27.13a3.45 3.45 0 01-1.17 0c-.18 0-.27-.09-.27-.17v-5.2a.75.75 0 000-.09.41.41 0 000 .09l-.16.02zm-.62-5.66a.62.62 0 01-.06.36 1 1 0 01-.4 0h-.83a.19.19 0 01-.27-.24v-.87a.79.79 0 01.08-.32.382.382 0 01.09-.09.17.17 0 01.13 0h.49c.162-.015.326-.015.49 0a.28.28 0 01.27.3v.47c-.01.11 0 .25.01.39zm10.848 2.92c0-.16-.07-.24-.21-.24a5.65 5.65 0 01-.72 0 3.42 3.42 0 00-.72 0s-.05 0-.08.07a.212.212 0 00-.05.12v7.77a.777.777 0 01-.05.1.234.234 0 01-.08.09 2.38 2.38 0 01-1.16.11c-.2 0-.3-.17-.3-.4V8.91a1.068 1.068 0 000-.16 2.206 2.206 0 010-.23.608.608 0 01.06-.2.184.184 0 01.18-.09h4.71c.06 0 .1.06.12.18.01.063.01.127 0 .19v9.33a.528.528 0 01-.09.37.488.488 0 01-.38.06h-.86a.47.47 0 01-.3-.12.461.461 0 01-.08-.31v-6.91c0-.47.01-.72.01-.89zm5.302-1.8h1.35c.15 0 .22 0 .23.08.068.181.119.369.15.56.07.29.16.64.25 1.06.09.42.2.88.31 1.38l.34 1.54c.12.54.23 1 .34 1.54.11.54.22 1 .31 1.36.09.36.17.75.23 1s.1.45.12.51a.71.71 0 010 .46c0 .1-.16.18-.37.26l-.66.19a.369.369 0 01-.3 0 .492.492 0 01-.14-.27c0-.28-.11-.55-.17-.81-.06-.26-.13-.54-.18-.81a.218.218 0 00-.24-.18h-1.77a.17.17 0 00-.12.06.262.262 0 00-.1.11l-.09.28c0 .13-.07.27-.11.42-.04.15-.07.27-.09.38a1.545 1.545 0 01-.06.21.725.725 0 01-.29.4.86.86 0 01-.49 0h-.61c-.25 0-.34-.16-.27-.38 0 0 .05-.2.12-.47.07-.27.15-.61.27-1 .12-.39.23-.89.36-1.41.13-.52.27-1.06.41-1.61.14-.55.29-1.1.43-1.63.14-.53.27-1 .38-1.47.11-.47.21-.82.29-1.12.08-.3.13-.51.15-.61l.02-.03zm.7 3.34a6.77 6.77 0 00-.16.66c-.06.26-.11.52-.16.79s-.11.53-.16.79-.11.48-.16.67c-.05.19 0 .19.13.19h.98c.15 0 .23 0 .25-.06.02-.06 0-.13 0-.27s-.06-.29-.09-.48-.06-.39-.1-.59c-.04-.2-.06-.41-.09-.6s-.06-.34-.08-.47a3.852 3.852 0 00-.14-.57.797.797 0 00-.11-.22h-.07a.76.76 0 00-.06.16h.02zm9.669.15c-.004.291-.047.58-.13.86a3.05 3.05 0 01-.38.8c-.173.252-.378.48-.61.68a2.894 2.894 0 01-.84.5 2.46 2.46 0 01-.67.13l-.83.07c-.1 0-.159 0-.179.08a.254.254 0 000 .18v2.65c0 .3-.17.44-.5.39a1.64 1.64 0 00-.391 0h-.4c-.28 0-.429-.14-.429-.41V8.46a.219.219 0 01.19-.24c.202-.05.41-.077.619-.08h2.17c.299.021.593.089.87.2.271.111.521.267.74.46.221.192.404.422.541.68.143.263.231.552.259.85.013.247.013.494 0 .74v.75h-.03zm-3.68 1.06a.172.172 0 000 .09c.015.03.04.055.071.07.087.031.177.052.269.06.16.02.321.02.481 0a1.66 1.66 0 00.519-.17.995.995 0 00.44-.39c.135-.212.22-.45.25-.7a4.48 4.48 0 00.05-.75.981.981 0 00-.09-.38c-.07-.132-.15-.26-.24-.38-.1-.11-.21-.21-.33-.3a1.045 1.045 0 00-.4-.16 3.589 3.589 0 00-.47 0h-.39c-.16 0-.24.09-.24.26v2.8l.08-.05zm6.548-1.31l.44-.33.86-.65c.32-.26.68-.52 1-.8l1-.78.81-.6.36-.27h.11a.113.113 0 01.05-.012c.018 0 .035.004.05.012.088.114.185.221.29.32.11.12.22.23.32.35l.26.31a.36.36 0 01.11.18s-.07.1-.21.21c-.14.11-.32.25-.53.41l-.7.51-.72.5-.59.42c-.16.13-.27.2-.31.23a.28.28 0 00-.07.12.177.177 0 000 .12l.31.61c.17.31.36.68.57 1.09l.69 1.3.66 1.27.52 1c.13.27.21.41.22.45a.259.259 0 01.025.22.264.264 0 01-.059.098.264.264 0 01-.096.062l-.24.12-.35.17-.33.15-.17.06s-.07 0-.1-.08a.451.451 0 010-.09c-.48-.86-.91-1.65-1.31-2.38l-.49-.92-.46-.85c-.13-.26-.25-.48-.35-.67-.1-.19-.17-.32-.2-.4-.03-.08-.11-.25-.15-.32-.04-.07-.06-.11-.08-.11-.02 0-.07 0-.11.06a1.806 1.806 0 01-.23.18l-.42.33-.42.34a.194.194 0 00-.077.08.199.199 0 00-.023.11v4.33a.187.187 0 01-.012.099.196.196 0 01-.058.08.374.374 0 01-.16.06 1.597 1.597 0 00-.28 0h-.75a.547.547 0 01-.23 0 .088.088 0 010-.06V8.5c0-.19.09-.28.27-.28h1.11c.16 0 .23.08.22.23-.01.15 0 .41 0 .73v1.95c0 .28.03.37.03.44z" fill="#3B3B3A"/><path fill-rule="evenodd" clip-rule="evenodd" d="M49.457 24.4a8.76 8.76 0 001.11-2.53 8.557 8.557 0 00-2.66.76c-1.23.61-1.56 2-1.15 2.56.47.47 1.93.34 2.7-.79z" fill="#EF7C00"/><path fill-rule="evenodd" clip-rule="evenodd" d="M49.645 29.24a10.86 10.86 0 002.56-2.3h.05-.05a10.884 10.884 0 00-3.41-.5c-1.7.06-2.8 1.52-2.6 2.31.27.78 2 1.38 3.45.49zm-34.807-5.59V1.3c0-.34-1.25-.94-1.67.91-.21 1-1.38 6.75-10.47 9a11.47 11.47 0 008.25 3.74c-1 3-4.92 7-10.12 7.82a14 14 0 0010.33 4.59v4.33h3.68v-8.08.04z" fill="#3B3B3A"/><path fill-rule="evenodd" clip-rule="evenodd" d="M47.276 16.15A15.93 15.93 0 1131.346 0a16 16 0 0115.93 16.15zm-25.73 4.51a9.49 9.49 0 00-3.09 0 9.753 9.753 0 002 2.34c1.2 1 2.8.62 3.13 0 .28-.69-.54-2.11-2.05-2.36l.01.02zm16.28-11.54a9.67 9.67 0 00.15-3.08 9.502 9.502 0 00-2.48 1.85c-1 1.12-.81 2.74-.17 3.12.67.32 2.14-.4 2.5-1.89zm4.15 7.68a9.532 9.532 0 001.76-2.53 9.75 9.75 0 00-3.08.27c-1.48.41-2.14 1.91-1.8 2.56.4.62 2.03.78 3.12-.28v-.02z" fill="#EF7C00"/><path fill-rule="evenodd" clip-rule="evenodd" d="M38.705 18.87a.701.701 0 00-1 0l-5.51 5.53v-5.14l5.73-5.72a.707.707 0 10-1-1l-4.73 4.7v-6.72a.7.7 0 00-1.4 0v6.72l-4.74-4.72a.707.707 0 00-1 1l5.74 5.72v5.16l-5.53-5.5a.69.69 0 00-1 0 .702.702 0 000 1l6.52 6.5v4.94a.7.7 0 101.4 0V26.4l6.52-6.5a.71.71 0 000-1.03z" fill="#3B3B3A"/><path fill-rule="evenodd" clip-rule="evenodd" d="M45.158 32.43H2.938a.71.71 0 010-1.41h42.22a.71.71 0 110 1.41z" fill="#3B3B3A"/></svg>