<svg width="147" height="33" fill="none" xmlns="http://www.w3.org/2000/svg"><path d="M52.539 23.79a19.74 19.74 0 012.09-15.59m-.25 2.26c.2-.41.41-.8.64-1.19" stroke="#38475D" stroke-width=".12" stroke-miterlimit="10" stroke-linecap="round"/><path fill-rule="evenodd" clip-rule="evenodd" d="M55.56 7.64a2.76 2.76 0 003 .24 5.696 5.696 0 01-.73.12 5 5 0 01-.67 0 5.723 5.723 0 01-.69-.16 3 3 0 01-.85-.41c.005.1.005.2 0 .3l-.06-.09zm-1-2.77v-.05a4.6 4.6 0 01.37-.6c.15-.2.324-.382.52-.54a3.49 3.49 0 011.3-.59h.11a2.003 2.003 0 00-.12-.37 2.76 2.76 0 00-2.21 2.18l.03-.03zm5.51.67a2.742 2.742 0 00-.15-1 2.641 2.641 0 00-.51-.89.11.11 0 000 .06c.055.226.082.458.08.69a4.637 4.637 0 01-.05.65 5.593 5.593 0 01-.13.69 2.79 2.79 0 00.75-.21l.01.01zm-3.13-2.29c.05.25.078.505.08.76h-.21a2.87 2.87 0 00-1.09.61A3.28 3.28 0 0054.83 6c0 .12-.08.25-.11.37a2.619 2.619 0 01-.16-.67 2.088 2.088 0 010-.26.13.13 0 010-.06c.171-.409.393-.795.66-1.15.216-.29.497-.525.82-.69.29-.15.6-.26.92-.33l-.02.04zm2.17 2.53a4.58 4.58 0 01-1 0c.085-.305.152-.616.2-.93 0-.19 0-.38.06-.57.014-.17.014-.34 0-.51a2.62 2.62 0 00-.2-.87h.07c.273.104.53.249.76.43a.16.16 0 01.06.08c.084.17.145.353.18.54a2.92 2.92 0 010 .77 6.81 6.81 0 01-.18 1.09v.06l.05-.09zM57 4.21v.21a4.24 4.24 0 01-.22.76.18.18 0 01-.08.09c-.19.126-.36.282-.5.46a3.418 3.418 0 00-.6 1c-.072.2-.12.409-.14.62v.09a2.7 2.7 0 01-.54-.68.15.15 0 010-.09 3.7 3.7 0 01.69-1.54 2.64 2.64 0 011.22-.9h.08l.09-.02zm2.65 2.69l-.13.19a2.65 2.65 0 01-.46.48.2.2 0 01-.08 0 6.002 6.002 0 01-.61.1c-.269.042-.54.058-.81.05a3.698 3.698 0 01-.57-.07 4.108 4.108 0 01-.82-.26 1.79 1.79 0 01-.46-.27 2.88 2.88 0 01.33-.81 3.59 3.59 0 001.21.59c.233.059.47.102.71.13.265.025.533.025.8 0a5.24 5.24 0 00.87-.14l.02.01zm-1.71-4.19a2.93 2.93 0 00-1-.06 3.38 3.38 0 01-.11 2.63c.281.245.629.401 1 .45 0-.1 0-.2.08-.3.073-.296.126-.597.16-.9v-.48a2.837 2.837 0 00-.06-.7 2.592 2.592 0 00-.23-.64h.16zm2.11 3.05a2.95 2.95 0 01-.27.91 2.474 2.474 0 01-.29.06l-.62.11a3.91 3.91 0 01-2.32-.41 1.878 1.878 0 01-.42-.27 2.54 2.54 0 01.68-.71l.08.07c.2.145.422.257.66.33.212.059.43.102.65.13h.58a3.67 3.67 0 001.19-.2h.1l-.02-.02zm-3-3.31h.57a3 3 0 01.71.18 2.87 2.87 0 011.5 1.31 2.7 2.7 0 01.39 1.24 2.66 2.66 0 01-.15 1.2 2.89 2.89 0 01-1 1.39 2.94 2.94 0 01-1.52.61 3.472 3.472 0 01-.56 0 3 3 0 01-2.51-1.86 2.777 2.777 0 01-.19-.74.792.792 0 000-.16V5.2c.01-.159.037-.316.08-.47a2.93 2.93 0 011.71-2 2.57 2.57 0 01.81-.22l.16-.06z" fill="#38475D"/><path d="M55.561 7.65a2.78 2.78 0 003 .23v0a5.61 5.61 0 01-.73.12 3.76 3.76 0 01-.67 0 4.301 4.301 0 01-.69-.16 2.759 2.759 0 01-.85-.4c.006.103.006.206 0 .31l-.06-.1zm-1-2.77v-.06a4.56 4.56 0 01.37-.59c.147-.204.322-.386.52-.54a3.67 3.67 0 011.3-.6h.11c-.03-.127-.07-.25-.12-.37a2.77 2.77 0 00-2.21 2.19l.03-.03zm5.51.66a2.94 2.94 0 00-.15-1 2.55 2.55 0 00-.51-.89.13.13 0 000 .06c.052.223.079.45.08.68-.002.22-.018.441-.05.66-.028.23-.071.456-.13.68v.05a2.79 2.79 0 00.75-.22l.01-.02zm-3.13-2.29a3.77 3.77 0 00-.92.34c-.32.163-.6.396-.82.68-.27.352-.492.739-.66 1.15a.08.08 0 000 .07 2.506 2.506 0 000 .26c.018.227.072.45.16.66l.12-.37a3.25 3.25 0 01.9-1.38 2.79 2.79 0 011.09-.61h.2a3.207 3.207 0 00-.07-.76v-.04z" stroke="#4E576C" stroke-width=".03" stroke-miterlimit="10"/><path fill-rule="evenodd" clip-rule="evenodd" d="M133.43 17.54h1.4v-2.2h-1.4c-.86 0-1.3.45-1.3 1.1 0 .65.44 1.1 1.3 1.1zm-6 6.34l3-4.12a3.535 3.535 0 01-2.13-3.4c0-3.1 2.42-4.15 5-4.15h5.42v11.67h-3.89v-3.45h-.65l-2.4 3.45h-4.35z" fill="#4298D4"/><path fill-rule="evenodd" clip-rule="evenodd" d="M111.921 12.21V23.8h-3.81v-4.13h-3.14v4.13h-3.83V12.21h3.83v4.12h3.14v-4.12h3.81z" fill="#21A452"/><path d="M110.118 17.62c.135.344.292.678.47 1-.307.366-.68.671-1.1.9a3.54 3.54 0 01.63-1.9zm.19-.21c.124.346.278.681.46 1a3.986 3.986 0 00.78-2c-.486.23-.911.573-1.24 1zm4.53 4.65c.22.08.44.13.67.2v.02a3.662 3.662 0 01-1.33.79 3.46 3.46 0 01-1.75.12 4.007 4.007 0 01.55-2l.6.34c.2.11.41.21.62.3.21.09.42.15.64.23zm1.647-1.365c.152-.49.197-1.006.133-1.515v.04a4.052 4.052 0 00-3.49 1.78 7.17 7.17 0 002.61 1.02c.341-.383.596-.835.747-1.325z" fill="#38475D"/><path fill-rule="evenodd" clip-rule="evenodd" d="M94.018 19.1h-1.62V21h1.62c.73 0 1.11-.33 1.11-.94 0-.61-.38-.94-1.11-.94v-.02zm-.19-4.1h-1.43v1.71h1.43a.87.87 0 100-1.71zm.53-2.81c2.62 0 4.11.91 4.11 2.93a2.42 2.42 0 01-1.66 2.5 2.75 2.75 0 012.12 2.85c0 2.63-2.28 3.31-4.72 3.31h-5.63V12.21l5.78-.02z" fill="#E24130"/><path fill-rule="evenodd" clip-rule="evenodd" d="M16.829 11.94a8.29 8.29 0 013.41.7v3.41a5.12 5.12 0 00-2.73-.8c-1.59 0-3.1.8-3.1 2.87 0 1.82 1.49 2.58 3 2.58a4.54 4.54 0 002.89-.83v3.5a8.219 8.219 0 01-3.39.69c-3.28 0-6.44-1.72-6.44-5.94.03-4.41 3.21-6.18 6.36-6.18z" fill="#F3C600"/><path fill-rule="evenodd" clip-rule="evenodd" d="M55.382 15.35h-1.21v2.27h1.21c.88 0 1.44-.33 1.44-1.12s-.56-1.15-1.44-1.15zm0-3.14c3 0 5.2 1 5.2 4.29s-2.25 4.27-5.2 4.27h-1.21v3h-3.82V12.21h5.03z" fill="#4298D4"/><path fill-rule="evenodd" clip-rule="evenodd" d="M72.47 12.21v3.34h-3.12v8.25h-3.8v-8.25h-3.12v-3.34h10.04z" fill="#E24130"/><path fill-rule="evenodd" clip-rule="evenodd" d="M66.92 18.41l-2.31-2.26v1a.47.47 0 00.14.35l1.36 1.33a1.75 1.75 0 01.76-.49l.05.07zm1.82.49l1.38-1.35a.32.32 0 00.1-.18c.01-.083.01-.167 0-.25v-.94l-2.31 2.26c.292.094.554.263.76.49l.07-.03zm-2.78 1.2a1.5 1.5 0 113 0 1.5 1.5 0 01-3 0zm3.64-3.66l-1.93 1.9h-.43l-1.94-1.9h4.3zm.26-.25h-4.82c-.1-.1-.22-.21-.33-.33a.48.48 0 01-.1-.28.68.68 0 01.49-.74h4.52a.68.68 0 01.65.49.75.75 0 010 .42.46.46 0 01-.09.15l-.31.31-.01-.02zm-1 2.92a1.76 1.76 0 11-2.93 0l-.05-.05-1.31-1.28a.83.83 0 01-.25-.41.761.761 0 010-.21v-1.7a.94.94 0 01.68-.89c.1-.015.2-.015.3 0h4.13c.116-.01.233-.01.35 0a.94.94 0 01.74.74.67.67 0 010 .2v1.67a.781.781 0 01-.24.58l-1.34 1.3s-.01.03-.03.05h-.05z" fill="#38475D"/><path fill-rule="evenodd" clip-rule="evenodd" d="M67.05 20.65l.31-.17a.15.15 0 01.18 0l.25.13h.06c0-.13 0-.24-.06-.36a.202.202 0 01.06-.18 2.39 2.39 0 00.22-.23l-.36-.06a.15.15 0 01-.13-.1l-.13-.26v-.07l-.16.33a.17.17 0 01-.13.1l-.37.06.06.06.19.2a.19.19 0 01.06.21v.35l-.05-.01zm0-1.14l.24-.5v-.07a.141.141 0 01.19-.05.14.14 0 01.05.05c.038.068.072.138.1.21l.14.29v.06l.38.06h.19a.139.139 0 01.12.101.14.14 0 01-.05.149l-.21.21c-.07.07-.13.14-.2.2s0 .19 0 .28l.06.33a.14.14 0 010 .14.12.12 0 01-.15 0l-.35-.19-.17-.09-.25.14-.25.14a.15.15 0 01-.17 0 .16.16 0 010-.16c0-.18.06-.37.09-.55l-.28-.28-.14-.14a.141.141 0 01-.035-.145.14.14 0 01.116-.095c.13 0 .27 0 .4-.06l.18-.03zm70.65-3.19a.41.41 0 000 .07l1.64 2.34 1.87 2.66 1 1.38c.071.104.159.195.26.27.183.142.409.216.64.21h2.19c.14 0 .2 0 .2-.19v-.51a.162.162 0 00-.053-.132.157.157 0 00-.137-.038h-.38l-.59.07-.62.07a2.84 2.84 0 01-.4 0 .911.911 0 01-.79-.38l-1.7-2.29-2.72-3.74-.05-.06-.35.27h-.01zm6.5 7.23h-1.11a1.299 1.299 0 01-1.07-.54l-.57-.8-1.48-2.12-1.73-2.46-.83-1.18c-.09-.14-.09-.2.05-.3l.53-.4h.09a.178.178 0 01.17.08l.5.69 2.73 3.76 1.35 1.72a.66.66 0 00.36.25 1 1 0 00.34 0l.6-.07.62-.07.64-.06a.44.44 0 01.46.34.405.405 0 010 .11v.58a.438.438 0 01-.44.44c-.43.04-.82.03-1.21.03zm-4.149-.9h-2.11c-.016.2-.016.4 0 .6h2.1v-.6h.01zm-1.05.9h-1.23a.151.151 0 01-.103-.04.156.156 0 01-.047-.1v-.88c0-.14 0-.19.18-.19h2.38a.152.152 0 01.128.042.151.151 0 01.042.128v.88c0 .11-.06.16-.17.16h-1.19.01z" fill="#38475D"/><path d="M40.88 3.2l.025-.007.315-.603c.172.097.314.238.41.41l-.725.193-.025.047V3.2zm.47-.9c.237.135.437.328.58.56l1.32-.42c-.42-.47-.82-.94-1.23-1.41-.22.43-.44.84-.67 1.27zm2.16-.02l.013-.031L42.31.859c.327-.136.661-.256 1-.36l1.07-.35c-.285.7-.571 1.39-.857 2.1l.027.03h-.04z" fill="#38475D"/><path fill-rule="evenodd" clip-rule="evenodd" d="M45.379 2.67a.18.18 0 01.13 0 .65.65 0 00.3.18.13.13 0 01.1.18.149.149 0 01-.13.116.15.15 0 01-.06-.006.86.86 0 01-.42-.25.159.159 0 01.026-.182.16.16 0 01.054-.038zM39.99 4.24a.15.15 0 01.07-.17.12.12 0 01.16 0 .54.54 0 00.25.15h.07a.17.17 0 01.07.19.16.16 0 01-.17.1.79.79 0 01-.45-.26v-.01zM18.689 3.18a3.79 3.79 0 011.61.35v1.39a2.14 2.14 0 00-1.36-.45 1.62 1.62 0 00-1.76 1.69 1.56 1.56 0 001.75 1.53 2 2 0 001.41-.49v1.43a3.74 3.74 0 01-1.62.35 2.77 2.77 0 01-3.05-2.82 2.82 2.82 0 013.02-2.98zm3.249 5.69V6.16h-1.11V5.05h3.58v1.11h-1.12v2.71h-1.35zm4.732-.8a1 1 0 00.62-.19v-.52a1.62 1.62 0 00-.48-.07c-.32 0-.61.11-.61.41s.18.37.47.37zm2.24 0c.049.01.1.01.15 0v.84a2 2 0 01-.69.12 1 1 0 01-.9-.42 2.12 2.12 0 01-1.33.46 1.21 1.21 0 01-1.31-1.26c0-1 .92-1.26 1.66-1.26.275.003.55.033.82.09v-.13c0-.27-.25-.48-.79-.48a3.67 3.67 0 00-1.34.29V5.18a5.46 5.46 0 011.49-.25c1.22 0 2 .42 2 1.78v1.07c-.02.22.1.22.24.22v.07zm.871.8V5.05h1.35v1.36h1.19V5.05l1.35.01v3.81h-1.35V7.52h-1.19v1.35h-1.35zm8.109 1v-.99l-3.25-.01.01-3.81H36v2.7h1.19v-2.7h1.35V7.8h.58v2.07h-1.23zm2-.99V5.06h1.35v1.8l1.36-1.8h1.18v3.82h-1.35V7.07l-1.36 1.81h-1.18zm6.691-1.99h.49V6.1h-.49c-.33 0-.51.14-.51.39s.18.4.51.4zm-2.14 2l1-1.23a1.31 1.31 0 01-.71-1.2 1.41 1.41 0 011.57-1.39h2.17v3.82h-1.4v-1h-.37l-.75 1h-1.51z" fill="#38475D"/><path fill-rule="evenodd" clip-rule="evenodd" d="M42.138 15.4a2.61 2.61 0 102.35 2.6 2.289 2.289 0 00-2.35-2.6zm0-3.46c4.17 0 6.27 2.73 6.27 6.06 0 3.33-2.1 6.06-6.27 6.06s-6.31-2.73-6.31-6.06c0-3.33 2.14-6.06 6.31-6.06z" fill="#53B261"/><path fill-rule="evenodd" clip-rule="evenodd" d="M81.282 14v.67h.65V14h-.65zm1.77 0h-.65v.65h.65V14zm.46.65h.66V14h-.66v.65zm1.12 0h.66V14h-.66v.65zm1.12-.66v.67h.66V14l-.66-.01zm1.12.66h.66V14h-.7v.65h.04zm1.12-.66v.67h.66V14l-.66-.01zm1.78 0h-.66v.66h.66v-.66zm-7.84 1.11h-.65v.66h.65v-.66zm1.13 0a2.868 2.868 0 00-.66 0v.66h.66v-.66zm1.11 0h-.65v.65h.65v-.65zm1.12 0h-.65v.65h.65v-.65zm1.12 0h-.65v.65h.65v-.65zm.46.65h.66v-.66h-.7v.66h.04zm1.12 0h.66v-.66h-.33a1.2 1.2 0 00-.33 0v.66zm1.78-.65h-.66v.65h.66v-.65zm-7.84 1.12h-.65v.65h.65v-.65zm1.12 0h-.65v.65h.65v-.65zm.46.66h.66v-.65h-.66V17v-.12zm1.78-.66h-.65v.65h.65v-.65zm1.12 0h-.65v.65h.65v-.65zm.45 0v.34a1.71 1.71 0 000 .32h.65v-.66h-.65zm1.13.65c.219.03.44.03.66 0v-.65h-.66v.65zm1.12 0c.219.03.44.03.66 0v-.65h-.66v.65zm1.12-3.56v9.84h.42v-9.84h-.42zm-9.85 0v9.85h.43v-9.83l-.43-.02zm.89 4v6.25h-1.32c0-.11-.05-10.25 0-10.72.443-.026.887-.026 1.33 0v.65h8.51v-.65h1.34v10.73h-1.3v-6.25l-8.56-.01z" fill="#38475D"/><path clip-rule="evenodd" d="M81.282 14.05v.66h.65v-.66h-.65zm1.77 0h-.65v.66h.65v-.66zm.46.65h.66v-.65h-.66v.65zm1.12 0h.66v-.65h-.66v.65zm1.12-.65v.66h.66v-.66h-.66zm1.12.66h.66v-.66h-.7v.66h.04zm1.12-.66v.66h.66v-.66h-.66zm1.78 0h-.66v.66h.66v-.66zm-7.84 1.12h-.65v.66h.65v-.66zm1.12 0a2.415 2.415 0 00-.66 0v.65h.66v-.65zm1.12 0h-.65v.66h.65v-.66zm1.12 0h-.66v.66h.66v-.66 0zm1.12 0h-.66v.66h.66v-.66zm.46.65h.66v-.65h-.7v.65h.04zm1.11 0h.66v-.66h-.66v.66zm1.79-.65h-.66v.66h.66v-.66zm-7.84 1.12h-.65v.65h.65v-.65zm1.12 0h-.65V17h.65v-.71zm.46.66h.66v-.66h-.66V17v-.05zm1.78-.66h-.66v.65h.66v-.65 0zm1.12 0h-.66V17h.66v-.71zm.45 0v.65h.66v-.65h-.66zm1.12.64c.222.025.447.025.67 0v-.66h-.67v.66zm1.12 0c.219.03.44.03.66 0v-.65h-.66v.65zm1.13-3.55v9.83h.42v-9.83h-.42zm-9.85 0v9.84h.22c.07.015.14.015.21 0V13.4l-.43-.02zm.89 4v6.25h-1.32c0-.1-.05-10.24 0-10.72h1.33v.66h8.51v-.66h1.34v10.73h-1.3v-6.25l-8.56-.01z" stroke="#fff" stroke-width=".08" stroke-miterlimit="10"/><path fill-rule="evenodd" clip-rule="evenodd" d="M87.091 11.58a.41.41 0 00-.45.44.45.45 0 00.9 0 .429.429 0 00-.45-.45v.01zm-.9.45a.94.94 0 01.9-.9.9.9 0 11-.9.9z" fill="#38475D"/><path clip-rule="evenodd" d="M87.089 11.58a.42.42 0 00-.45.44.43.43 0 00.45.46.421.421 0 00.44-.48.42.42 0 00-.44-.45v.03zm-.9.45a.9.9 0 011.75-.372c.04.12.053.246.04.372a.92.92 0 01-.9.89.93.93 0 01-.89-.92v.03z" stroke="#fff" stroke-width=".08" stroke-miterlimit="10"/><path fill-rule="evenodd" clip-rule="evenodd" d="M82.01 23.8v-3.48c-.01-.651.023-1.303.1-1.95l-3.93 5.43h-3.23V12.21h3.88v3.46a17 17 0 01-.1 2l3.92-5.44h3.18V23.8h-3.82z" fill="#9C549C"/><path fill-rule="evenodd" clip-rule="evenodd" d="M34.998 12.93a3.69 3.69 0 100 7.38 3.69 3.69 0 000-7.38zm-.26 7.66h-.24c-.298-.03-.59-.1-.87-.21a4.001 4.001 0 01-2.45-2.64c-.13-.42-.18-.861-.15-1.3.04-.811.33-1.59.83-2.23a3.89 3.89 0 011.74-1.28 4.12 4.12 0 01.92-.23c.183-.01.367-.01.55 0 .458.011.911.099 1.34.26.406.15.782.37 1.11.65.458.375.827.846 1.08 1.38.14.289.241.595.3.91a4 4 0 01-1.16 3.65 3.84 3.84 0 01-2 1c-.14 0-.29 0-.43.06h-.6l.03-.02zm4.804-7.53a.85.85 0 01-.69.68h-.13a.151.151 0 01-.145-.083.15.15 0 01-.015-.057.15.15 0 01.15-.15.57.57 0 000-1.13.56.56 0 00-.55.54.172.172 0 010 .07.15.15 0 01-.14.1.12.12 0 01-.19-.03.605.605 0 010-.19.85.85 0 01.74-.69.86.86 0 01.94.67l.03.27zm-8.162.58l.06.08c.226-.204.44-.42.64-.65a.349.349 0 01-.05-.08l-.65.65zm1.07-.57a.308.308 0 01-.05.1l-.08.09-.72.72a.139.139 0 01-.162.035.14.14 0 01-.047-.035l-.28-.27a.15.15 0 010-.22l.3-.3.51-.52c.1-.09.16-.09.26 0l.24.24a.17.17 0 01.03.16z" fill="#38475D"/><path fill-rule="evenodd" clip-rule="evenodd" d="M38.071 13.7a.141.141 0 01-.122-.056.14.14 0 01-.018-.134.09.09 0 010-.06c.2-.21.4-.41.61-.61a.139.139 0 01.11 0 .149.149 0 01.13.07.16.16 0 010 .15l-.58.57s-.08.07-.13.07zm-3.061-1.62h.41a.141.141 0 01.139.084.14.14 0 01.011.056.131.131 0 01-.07.126.127.127 0 01-.05.014h-.89a.13.13 0 01-.13-.14.14.14 0 01.14-.14h.44zm-.02 4.82a.288.288 0 00.273-.17.29.29 0 00.026-.11.29.29 0 00-.388-.263.28.28 0 00-.182.253.27.27 0 00.27.29zm-.29.21l-.06.07L32.83 19a.14.14 0 01-.19 0 .15.15 0 010-.19l.06-.06 1.8-1.8.08-.06a.56.56 0 010-.5.569.569 0 111 .53.59.59 0 01-.88.19zm3.278-.34h-.27a.14.14 0 01-.14-.2.13.13 0 01.13-.08h.54a.159.159 0 01.15.08.139.139 0 01-.002.144.14.14 0 01-.128.066l-.28-.01zm-3.15-3.14v-.3a.14.14 0 11.28 0v.59a.14.14 0 01-.14.14.15.15 0 01-.14-.16 2.515 2.515 0 010-.28v.01zm-2.808 3.14h-.31a.14.14 0 110-.28h.61a.141.141 0 01.124.096.139.139 0 01-.038.147.14.14 0 01-.096.037h-.29zm5.178 1.91a.34.34 0 01.25.25.13.13 0 01-.07.12.12.12 0 01-.15 0 .858.858 0 01-.14-.13.14.14 0 010-.15.16.16 0 01.11-.09zm-3.83.91a.15.15 0 01-.14-.19 1.01 1.01 0 01.1-.17.14.14 0 01.19 0 .15.15 0 01.05.18l-.09.15a.138.138 0 01-.11.03zm3.213-.41a.138.138 0 01.1.06c.03.044.058.09.08.14a.137.137 0 01.01.107.139.139 0 01-.07.083.14.14 0 01-.19 0 1.01 1.01 0 01-.08-.14.15.15 0 01.15-.25zm.87-4.87a.33.33 0 01-.24.24.14.14 0 01-.13-.21c.04-.06.09-.11.15-.15a.12.12 0 01.14 0 .13.13 0 01.08.12zm.847 3.15a.15.15 0 01-.17.15h-.16a.14.14 0 01.07-.27h.16a.14.14 0 01.1.12zM37.97 15a.11.11 0 01-.06.11l-.15.09a.14.14 0 01-.18-.06.15.15 0 010-.18l.18-.1a.14.14 0 01.2.063.14.14 0 01.01.077zm-1.139-1.2a.635.635 0 01-.08.14.14.14 0 01-.19.05.15.15 0 01-.06-.19l.09-.15a.15.15 0 01.17 0 .161.161 0 01.07.15zm1 4.6l-.13-.08a.131.131 0 01-.03-.147.131.131 0 01.03-.043.14.14 0 01.2 0l.13.08a.13.13 0 01.05.16.15.15 0 01-.19.073.15.15 0 01-.06-.043zm-2.159-4.83v-.18a.14.14 0 01.16-.06.12.12 0 01.11.14.76.76 0 01-.06.2.13.13 0 01-.16.07.27.27 0 01-.05-.17zm-1.332 6.09a1.899 1.899 0 01-.06.18.14.14 0 01-.18.07.14.14 0 01-.08-.16.75.75 0 010-.16.13.13 0 01.17-.09c.1.01.14.07.15.16zm1.652.1a.14.14 0 01-.11.15.12.12 0 01-.137-.036.121.121 0 01-.023-.044.61.61 0 010-.18.13.13 0 01.1-.15.129.129 0 01.146.042.13.13 0 01.023.048.744.744 0 010 .14v.03zM38.051 16c-.1 0-.16 0-.17-.1a.14.14 0 01.08-.17c.06-.01.12-.01.18 0a.13.13 0 01.15.09.14.14 0 01-.07.17.774.774 0 01-.17.01z" fill="#38475D"/><path fill-rule="evenodd" clip-rule="evenodd" d="M23.07 23.8V12.21h10.86V23.8h-3.81v-8.25h-3.24v8.25h-3.81z" fill="#E24130"/><path fill-rule="evenodd" clip-rule="evenodd" d="M10.008 23.8a.29.29 0 01-.14-.27v-6.39h-3.9v6.39a.26.26 0 01-.13.27h-.15a.31.31 0 01-.13-.28v-6.47a.57.57 0 010-.13.19.19 0 01.2-.18h4.32a.19.19 0 01.19.17v6.65a.29.29 0 01-.13.26l-.13-.02z" fill="#38475D"/><path clip-rule="evenodd" d="M10.008 23.8a.29.29 0 01-.14-.27v-6.39h-3.9v6.39a.26.26 0 01-.13.27h-.15a.29.29 0 01-.13-.27v-6.48a.49.49 0 01.016-.194.18.18 0 01.184-.106h4.32a.18.18 0 01.19.16v6.62a.29.29 0 01-.13.26l-.13.01z" stroke="#fff" stroke-width=".03" stroke-miterlimit="10"/><path fill-rule="evenodd" clip-rule="evenodd" d="M11.828 17.52c.078.055.151.115.22.18.11.08.12.14.07.27l-.1.27c.086-.037.17-.08.25-.13a.29.29 0 01.33 0c.073.05.15.093.23.13a.445.445 0 010-.08c0-.08-.05-.16-.08-.23a.2.2 0 01.05-.2l.12-.11a.809.809 0 00.15-.13h-.24a.24.24 0 01-.25-.17c0-.1-.1-.21-.15-.32-.05-.11 0 0 0 .06s-.09.19-.13.28a.22.22 0 01-.22.15l-.25.03zm2-.11l-.64.55c.028.069.051.139.07.21.06.15.11.3.16.45a.191.191 0 01-.052.234.19.19 0 01-.078.036.23.23 0 01-.18 0l-.58-.32h-.17l-.56.3a.3.3 0 01-.16 0 .18.18 0 01-.15-.26l.15-.39c0-.09.07-.18.11-.28l-.19-.15-.38-.31a.24.24 0 01-.1-.19.2.2 0 01.2-.18h.7c.06-.15.13-.29.19-.44.038-.071.071-.145.1-.22a.19.19 0 01.18-.12.2.2 0 01.19.12l.19.55.06.13h.5c.04.005.08.005.12 0a.28.28 0 01.27.12l.05.16z" fill="#38475D"/><path clip-rule="evenodd" d="M11.828 17.53l.22.18a.2.2 0 01.07.27l-.1.28.25-.13a.26.26 0 01.33 0l.23.12a.465.465 0 010-.08l-.08-.23a.19.19 0 01.05-.2l.12-.1.15-.13a1.765 1.765 0 00-.23 0 .23.23 0 01-.25-.16c0-.11-.1-.21-.15-.33-.05-.12 0 0 0 .06l-.13.28a.22.22 0 01-.22.15l-.26.02zm2-.12l-.64.56c.03.065.053.132.07.2l.16.45a.208.208 0 01-.003.169.212.212 0 01-.127.111.23.23 0 01-.18 0l-.58-.32h-.17c-.19.1-.37.21-.57.3-.05.01-.1.01-.15 0a.189.189 0 01-.168-.182.19.19 0 01.018-.088l.15-.38c0-.09.07-.19.11-.29l-.19-.15-.38-.31a.21.21 0 01-.1-.18.192.192 0 01.127-.17.192.192 0 01.073-.01h.69c.07-.16.14-.3.2-.45.04-.07.073-.144.1-.22a.21.21 0 01.18-.12.19.19 0 01.19.13l.19.54.06.13h.62a.28.28 0 01.27.12l.05.16z" stroke="#fff" stroke-width=".03" stroke-miterlimit="10"/><path fill-rule="evenodd" clip-rule="evenodd" d="M2.152 23.8a.31.31 0 01-.11-.28v-4.63a.2.2 0 01.19-.19h2.81a.2.2 0 01.14.21.19.19 0 01-.19.17h-2.55a.38.38 0 000 .1v4.32a.3.3 0 01-.12.28l-.17.02z" fill="#38475D"/><path clip-rule="evenodd" d="M2.152 23.8a.31.31 0 01-.11-.28V18.9a.2.2 0 01.19-.2h2.81a.21.21 0 01.14.21.19.19 0 01-.19.17h-2.55a.41.41 0 000 .11v4.31a.3.3 0 01-.12.28l-.17.02z" stroke="#fff" stroke-width=".03" stroke-miterlimit="10"/><path fill-rule="evenodd" clip-rule="evenodd" d="M13.52 23.8a.29.29 0 01-.11-.28v-2.85h-2.58a.19.19 0 01-.15-.18.21.21 0 01.16-.2h2.72a.27.27 0 01.26.14v3.28l-.12.12-.18-.03z" fill="#38475D"/><path clip-rule="evenodd" d="M13.52 23.8a.32.32 0 01-.12-.28v-2.84h-2.57a.19.19 0 01-.15-.19.21.21 0 01.16-.2h2.72a.271.271 0 01.26.14v3.28l-.12.12-.18-.03z" stroke="#fff" stroke-width=".03" stroke-miterlimit="10"/><path fill-rule="evenodd" clip-rule="evenodd" d="M8.721 15.05c0-.22-.11-.44-.17-.66a.25.25 0 01.1-.29l.43-.33.09-.08-.61-.05a.25.25 0 01-.26-.18l-.28-.7a.932.932 0 000-.1v.13l-.25.69a.21.21 0 01-.21.16h-.73l.07.06.49.36a.22.22 0 01.1.28l-.12.41c0 .09-.06.18-.09.29l.1-.07.54-.38a.21.21 0 01.29 0l.26.19.4.28-.15-.01zm-.12-1.87l.78.07a.31.31 0 01.29.22.31.31 0 01-.11.36 3.478 3.478 0 01-.3.24l-.31.24c0 .17.08.34.13.51l.09.37a.28.28 0 01-.08.3.29.29 0 01-.32.06l-.14-.08-.61-.47-.1-.07-.09.07-.62.45a.46.46 0 01-.19.08.27.27 0 01-.35-.35c0-.19.11-.37.16-.55.05-.18.06-.22.1-.33l-.1-.04-.56-.41a.33.33 0 01-.15-.29.3.3 0 01.29-.31l.84-.07v-.1l.28-.76a.36.36 0 010-.11.31.31 0 01.52-.06.71.71 0 01.08.15c.11.26.21.53.32.8a.59.59 0 00.15.08z" fill="#38475D"/><path clip-rule="evenodd" d="M8.72 15.05c0-.22-.11-.44-.17-.66a.26.26 0 01.1-.29l.43-.33.09-.08h-.61a.27.27 0 01-.26-.18c-.09-.24-.19-.47-.28-.71a.887.887 0 010-.1 1.09 1.09 0 010 .14c-.08.22-.17.45-.25.68a.22.22 0 01-.21.17h-.73.07l.49.36a.22.22 0 01.09.29c0 .13-.07.27-.11.4-.04.13-.06.18-.09.29l.1-.06.54-.39a.21.21 0 01.29 0l.26.19.4.28h-.15zm-.12-1.87l.78.08a.3.3 0 01.29.21.33.33 0 01-.11.37l-.3.24-.31.24c0 .16.08.33.13.5l.09.37a.3.3 0 01-.08.31.29.29 0 01-.32 0l-.14-.08-.61-.42-.1-.07-.09.07-.62.44a.663.663 0 01-.19.09.28.28 0 01-.35-.36c0-.19.11-.37.16-.55.05-.18.06-.21.09-.33a.148.148 0 00-.06 0l-.56-.42a.32.32 0 01-.15-.28.29.29 0 01.29-.31l.84-.08a.999.999 0 000-.1l.28-.76a.49.49 0 010-.11.32.32 0 01.52-.06c.03.048.056.098.08.15l.32.8a.2.2 0 00.12.06v0z" stroke="#fff" stroke-width=".03" stroke-miterlimit="10"/><path fill-rule="evenodd" clip-rule="evenodd" d="M3.83 16.68l-.06-.2c-.06-.17 0-.22.09-.33l.17-.16a.713.713 0 00-.2 0 .23.23 0 01-.24-.15l-.12-.27-.05-.07c0 .12-.1.23-.14.34a.24.24 0 01-.24.15h-.21a1.3 1.3 0 00.16.13c.17.13.23.18.12.43a.32.32 0 00-.06.18l.27-.15a.24.24 0 01.26 0l.24.12.01-.02zm.09-1.12h.69a.21.21 0 01.2.15.21.21 0 01-.08.22l-.49.41h-.06v.1l.18.51a.14.14 0 000 .06.2.2 0 01-.07.23.2.2 0 01-.22 0l-.32-.18-.34-.18h-.09l-.56.3h-.09a.18.18 0 01-.2 0 .17.17 0 010-.2l.09-.23.18-.45-.39-.31-.19-.15a.2.2 0 01.007-.342.21.21 0 01.132-.028h.63a.927.927 0 010-.1c.08-.17.15-.35.23-.52v-.07a.2.2 0 01.33 0v.09l.43.69z" fill="#38475D"/><path clip-rule="evenodd" d="M3.83 16.68l-.06-.21c-.06-.17 0-.22.09-.33.061-.048.118-.102.17-.16a.705.705 0 00-.2 0 .22.22 0 01-.24-.14l-.12-.27-.05-.07-.15.33a.2.2 0 01-.23.15h-.21l.16.14c.17.12.22.17.11.42a.53.53 0 000 .18l.27-.14a.24.24 0 01.26 0l.24.12-.04-.02zm.09-1.12h.69a.19.19 0 01.19.15.21.21 0 01-.07.22l-.49.41a.337.337 0 00-.06.06v.09l.18.51a.14.14 0 000 .06.2.2 0 01-.07.23.2.2 0 01-.22 0l-.32-.17-.34-.19h-.09l-.56.29h-.09a.18.18 0 01-.2 0 .17.17 0 010-.2l.09-.23c.06-.15.11-.29.18-.44l-.39-.31-.19-.15c-.09-.08-.12-.16-.08-.24a.22.22 0 01.22-.14h.63a.47.47 0 010-.1l.23-.51v-.07a.19.19 0 01.33 0 .73.73 0 010 .09c.18.22.313.434.4.64h.03z" stroke="#fff" stroke-width=".03" stroke-miterlimit="10"/><path fill-rule="evenodd" clip-rule="evenodd" d="M3.41 20.46v-.4a.21.21 0 01.14-.18.19.19 0 01.2.06.21.21 0 01.05.13v.78a.2.2 0 01-.2.21.21.21 0 01-.19-.21v-.39z" fill="#38475D"/><path clip-rule="evenodd" d="M3.41 20.46v-.4a.18.18 0 01.14-.17.17.17 0 01.2 0 .24.24 0 01.05.14v.78a.19.19 0 01-.275.181.2.2 0 01-.115-.191v-.39.05z" stroke="#fff" stroke-width=".03" stroke-miterlimit="10"/><path fill-rule="evenodd" clip-rule="evenodd" d="M4.2 20.45v-.36a.21.21 0 01.2-.22.21.21 0 01.2.22v.77a.19.19 0 01-.16.19.17.17 0 01-.2-.09.24.24 0 010-.12c-.05-.13-.04-.26-.04-.39z" fill="#38475D"/><path clip-rule="evenodd" d="M4.2 20.46v-.37a.21.21 0 01.2-.21.198.198 0 01.188.13.2.2 0 01.012.08v.77a.18.18 0 01-.16.19.18.18 0 01-.2-.08.27.27 0 010-.12c-.05-.13-.04-.26-.04-.39z" stroke="#fff" stroke-width=".03" stroke-miterlimit="10"/><path fill-rule="evenodd" clip-rule="evenodd" d="M10.83 22v-.38a.201.201 0 01.107-.225.2.2 0 01.282.225v.77a.188.188 0 01-.055.145.191.191 0 01-.145.055.19.19 0 01-.19-.2V22z" fill="#38475D"/><path clip-rule="evenodd" d="M10.83 22v-.38a.202.202 0 01.113-.19.2.2 0 01.076-.02.198.198 0 01.188.13.2.2 0 01.012.08v.77a.2.2 0 01-.195.245.2.2 0 01-.195-.245V22v0z" stroke="#fff" stroke-width=".03" stroke-miterlimit="10"/><path fill-rule="evenodd" clip-rule="evenodd" d="M12.03 22v.38a.19.19 0 01-.19.21.188.188 0 01-.144-.055.189.189 0 01-.055-.145v-.77a.2.2 0 01.271-.192.18.18 0 01.089.082.21.21 0 010 .12c.04.15.03.28.03.37z" fill="#38475D"/><path clip-rule="evenodd" d="M12.031 22v.37a.2.2 0 01-.19.22.2.2 0 01-.2-.21v-.77a.18.18 0 01.15-.19.17.17 0 01.21.08c.01.04.01.08 0 .12.04.16.03.29.03.38z" stroke="#fff" stroke-width=".03" stroke-miterlimit="10"/><path fill-rule="evenodd" clip-rule="evenodd" d="M12.422 22v-.39a.2.2 0 01.26-.19.17.17 0 01.13.15.413.413 0 010 .11v.73a.2.2 0 01-.2.18.19.19 0 01-.19-.19V22z" fill="#38475D"/><path clip-rule="evenodd" d="M12.42 22v-.39a.19.19 0 01.26-.18.17.17 0 01.13.15.342.342 0 010 .1v.73a.2.2 0 01-.4 0V22h.01z" stroke="#fff" stroke-width=".03" stroke-miterlimit="10"/><path fill-rule="evenodd" clip-rule="evenodd" d="M7.718 18.5v-.34a.25.25 0 010-.12.18.18 0 01.19-.12.17.17 0 01.17.12.59.59 0 010 .14v.64a.3.3 0 010 .13.17.17 0 01-.18.14.19.19 0 01-.17-.09.34.34 0 010-.1v-.35l-.01-.05z" fill="#38475D"/><path clip-rule="evenodd" d="M7.718 18.51v-.35a.25.25 0 010-.12.19.19 0 01.19-.12.17.17 0 01.17.12.68.68 0 010 .14v.64a.34.34 0 010 .14.17.17 0 01-.18.13.19.19 0 01-.17-.09.31.31 0 010-.1v-.34l-.01-.05z" stroke="#fff" stroke-width=".03" stroke-miterlimit="10"/><path fill-rule="evenodd" clip-rule="evenodd" d="M118.71 19.54H121l-.82-2.48a9.16 9.16 0 01-.33-1.5 11.82 11.82 0 01-.32 1.5l-.82 2.48zm-5.3 4.34l4.42-11.67h4.13l4.36 11.67h-3.91l-.5-1.55h-4l-.52 1.55h-3.98z" fill="#F29D00"/><path fill-rule="evenodd" clip-rule="evenodd" d="M119.131 15.73c.062.068.129.132.2.19l.19-.19h-.39zm1 0l.19.19.18-.19h-.37zm.56.56c.06-.19.12-.36.18-.53l-.36.36.18.17zm-1.81 0c.07-.07.14-.13.19-.19-.12-.12-.24-.25-.37-.37.06.18.13.38.18.56zm1.45 1c-.12.11-.22.22-.33.33l.12.11h.32v-.3l-.13-.14h.02zm-.73.33l-.32-.32-.15.13v.31h.32l.12-.12h.03zm.72-.72l.18-.17a.267.267 0 00.07-.14l-.29-.28-.32.31.32.32.04-.04zm-.72-.32c-.11-.11-.22-.21-.31-.31l-.32.31c0 .07.1.11.15.16l.16.16.32-.32zm.21-.83l.3.3c-.1.11-.21.21-.32.32l-.29-.31.31-.31zm0 1.65l-.31-.3.31-.32.31.31-.31.31zm0-2.24h-1.57a.141.141 0 00-.11.12c0 .031.011.062.031.086.02.023.048.04.079.044h3.14a.13.13 0 00.094-.125.13.13 0 00-.094-.125h-1.57zm-1.42-.27h2.83V13.1h-2.83v1.79zm-.26 0v-2a.135.135 0 01.034-.099.134.134 0 01.096-.041h3.08c.1 0 .15.05.15.15V15h.06a.385.385 0 01.164.184.384.384 0 01.016.246.37.37 0 01-.37.29h-.18a.87.87 0 01-.07.17c-.162.43-.279.876-.35 1.33a5.143 5.143 0 000 .68.13.13 0 01-.016.084.128.128 0 01-.064.056h-1.58a.127.127 0 01-.102-.038.115.115 0 01-.03-.047.117.117 0 01-.008-.055 6.174 6.174 0 00-.16-1.14 9.904 9.904 0 00-.29-1v-.09h-.15a.389.389 0 01-.4-.3.396.396 0 01.22-.44l-.05-.04z" fill="#38475D"/><path fill-rule="evenodd" clip-rule="evenodd" d="M123.058 16v-4.66h-6.44V16h1.56a.14.14 0 01.14.13.133.133 0 01-.01.053.132.132 0 01-.077.07.13.13 0 01-.053.007h-1.74a.121.121 0 01-.09-.13v-4.84a.152.152 0 01.104-.154.152.152 0 01.066-.006h6.66c.08 0 .15.06.15.14v4.88a.12.12 0 01-.14.14h-1.72a.14.14 0 01-.12-.14.15.15 0 01.12-.12h1.6l-.01-.03z" fill="#38475D"/><path d="M1 24.09h145.68" stroke="#38475D" stroke-width=".34" stroke-miterlimit="10" stroke-linecap="round"/><path fill-rule="evenodd" clip-rule="evenodd" d="M15.43 32.52l1.59-2.85-1.51-2.72h1.63l1.08 2.11h.49v-2.11h1.47v2.11h.48l1.09-2.11h1.63l-1.51 2.72 1.59 2.85h-1.63l-1.17-2.15h-.48v2.15h-1.47v-2.15h-.48l-1.17 2.15h-1.63zm8.539 0V28.7h1.36v1.81l1.36-1.81h1.18v3.82h-1.35v-1.8l-1.36 1.8h-1.19zm5.241.09a2.131 2.131 0 01-.69-.13v-1.07a.63.63 0 00.22 0c.57 0 .65-1.23.72-2.76h3.26v3.82h-1.35v-2.78h-.67c-.1 1.64-.41 2.92-1.49 2.92zm6.44-2.83c-.56 0-.75.4-.75.83 0 .43.19.84.75.84a.74.74 0 00.76-.84.73.73 0 00-.76-.83zm0-1.2a1.999 1.999 0 011.212 3.459 2 2 0 11-1.212-3.46zm4.881-.27a2.52 2.52 0 01-1.28-.31v-1a3 3 0 002.58 0v1a2.45 2.45 0 01-1.27.31h-.03zm-2 4.21V28.7h1.4v1.81l1.36-1.81h1.19v3.82h-1.36v-1.8l-1.36 1.8h-1.23zm6.731 0V28.7h1.35v1.34h.31l.83-1.34h1.51l-1.24 1.88 1.32 1.94h-1.5l-.94-1.45h-.29v1.45h-1.35zm6.4-2.74a.731.731 0 00-.76.83.742.742 0 00.76.84c.55 0 .75-.41.75-.84a.729.729 0 00-.75-.83zm0-1.2a1.999 1.999 0 11-.3 3.986 1.999 1.999 0 01.3-3.986zm2.916 3.94V28.7h1.24l1.09 1.78 1.08-1.78h1.25v3.82h-1.32v-1.91l-.72 1.17h-.59l-.71-1.17v1.91h-1.32zm5.632 0V28.7h3.89v3.82h-1.35v-2.7h-1.19v2.7h-1.35zm5.22.09a2.071 2.071 0 01-.68-.13v-1.07c.07.012.14.012.21 0 .58 0 .66-1.23.73-2.76h3.26v3.82H67.6v-2.78h-.68c-.09 1.64-.4 2.92-1.49 2.92zm6.339-3.05a.65.65 0 00-.69.65h1.28a.55.55 0 00-.59-.65zm0-1a1.83 1.83 0 011.83 2.44h-2.5c.15.42.67.59 1.22.59.372.005.741-.06 1.09-.19v1a4.369 4.369 0 01-1.41.21 2 2 0 01-2.27-2 1.94 1.94 0 012-2.03l.04-.02zm2.653 3.96V28.7h1.35v1.34h.31l.83-1.34h1.51l-1.24 1.88 1.32 1.94h-1.5l-.94-1.45h-.29v1.45h-1.35zm6.41-3.94a2.72 2.72 0 011.18.26V30a2.06 2.06 0 00-1-.26c-.53 0-1 .23-1 .88a.89.89 0 001 .88 2.15 2.15 0 001-.26v1.16a3.399 3.399 0 01-1.31.25 1.92 1.92 0 01-2.11-2 2 2 0 012.24-2.07z" fill="#38475D"/></svg>