<svg width="139" height="23" fill="none" xmlns="http://www.w3.org/2000/svg"><path fill-rule="evenodd" clip-rule="evenodd" d="M72.83 6.44a1.13 1.13 0 01-1-.52 2.6 2.6 0 01-.35-1.42c-.004-.244.03-.487.1-.72a2.16 2.16 0 01.27-.62c.115-.167.26-.31.43-.42a1.07 1.07 0 01.57-.16.93.93 0 01.69.25 1 1 0 01.27.71.72.72 0 01-.07.33.24.24 0 01-.23.14.35.35 0 01-.27-.11.38.38 0 01-.09-.25 1.99 1.99 0 010-.34 1.13 1.13 0 000-.26.22.22 0 00-.15-.15.59.59 0 00-.23 0 .47.47 0 00-.27.08.77.77 0 00-.24.28 1.599 1.599 0 00-.18.5 4.01 4.01 0 00-.07.75 2.2 2.2 0 00.25 1.13.72.72 0 00.63.44.64.64 0 00.47-.18 1.63 1.63 0 00.36-.53l.19.16a2 2 0 01-.51.7 1 1 0 01-.65.25l.08-.04zm-1.58-.09h-1c-.05-.21-.1-.38-.14-.53a4.236 4.236 0 00-.17-.5 1.34 1.34 0 00-.3-.5.59.59 0 00-.43-.16h-.07v1a.538.538 0 000 .2.3.3 0 00.12.13l.14.06h.14v.25h-1.4v-.25h.26a.2.2 0 00.12-.12.48.48 0 000-.22V3.33a.46.46 0 000-.21.22.22 0 00-.12-.13l-.15-.06h-.13v-.24h1.41v.24h-.15a.53.53 0 00-.12 0 .18.18 0 00-.12.11.671.671 0 000 .22v1.08h.19a.45.45 0 00.19-.05.36.36 0 00.16-.14.872.872 0 00.15-.29l.11-.34c0-.11.06-.23.1-.35.029-.095.069-.185.12-.27a.61.61 0 01.24-.24.5.5 0 01.27-.07.42.42 0 01.33.12.46.46 0 01.1.31.44.44 0 01-.08.28.29.29 0 01-.43 0c0-.06-.11-.16-.2-.29a.72.72 0 00-.11.27 2.472 2.472 0 01-.1.35c-.04.164-.1.322-.18.47a.8.8 0 01-.21.26v.05a.8.8 0 01.42.25c.114.134.205.286.27.45 0 .09.07.19.11.32.035.078.065.158.09.24a.53.53 0 00.14.23.56.56 0 00.15.08h.26v.25l.02.12zm-4-2.26c.01-.15.01-.3 0-.45a1.612 1.612 0 00-.09-.39.71.71 0 00-.18-.28.4.4 0 00-.3-.11.62.62 0 00-.52.32 2 2 0 00-.22.91h1.31zm.65 1.39a1.67 1.67 0 01-.49.7 1 1 0 01-.7.26 1.23 1.23 0 01-.61-.15 1.56 1.56 0 01-.43-.42 2 2 0 01-.25-.63 3.077 3.077 0 01-.09-.75c0-.24.03-.478.09-.71.058-.218.145-.426.26-.62a1.53 1.53 0 01.42-.42 1 1 0 01.55-.16 1.2 1.2 0 01.55.12c.146.087.269.207.36.35.096.15.164.316.2.49.045.2.068.405.07.61v.25h-2a3.36 3.36 0 00.06.66c.028.178.085.35.17.51a1 1 0 00.3.35.78.78 0 00.44.12.67.67 0 00.45-.16 1.46 1.46 0 00.37-.56l.2.16h.08zm-3 .87h-1.41V6.1h.25a.25.25 0 00.13-.12.48.48 0 000-.22V3h-.79a11.61 11.61 0 01-.1 1.57 5.122 5.122 0 01-.26 1.06 1.72 1.72 0 01-.35.61.57.57 0 01-.4.2.36.36 0 01-.32-.14.51.51 0 01-.1-.32c0-.09.02-.18.06-.26a.23.23 0 01.2-.12.33.33 0 01.23.09c.075.078.139.165.19.26.068-.095.122-.2.16-.31.075-.178.135-.362.18-.55.05-.23.1-.48.14-.73a5.81 5.81 0 00.06-.88.883.883 0 000-.28.441.441 0 00-.12-.15.84.84 0 00-.18-.07h-.21v-.24h2.63v.24h-.15a.53.53 0 00-.12 0 .18.18 0 00-.12.11.48.48 0 000 .22v2.38a.41.41 0 000 .21.22.22 0 00.12.13l.13.05h.15v.27zm-3.47 0h-1.41V6.1h.25a.25.25 0 00.13-.12.48.48 0 000-.22V3h-1.22v2.7a.41.41 0 000 .21.25.25 0 00.12.13l.13.06h.15v.25h-1.35V6.1h.26a.25.25 0 00.13-.12.671.671 0 000-.22V3.38a.649.649 0 000-.21.27.27 0 00-.13-.13l-.14-.06h-.14v-.24h3.2v.24h-.15a.53.53 0 00-.12 0 .18.18 0 00-.12.11.478.478 0 000 .22v2.38a.408.408 0 000 .21.22.22 0 00.12.13l.13.05h.15v.25l.01.02zm-3.6 0h-1.41V6.1h.26a.37.37 0 00.13-.12.48.48 0 000-.22V3.1h-.07l-1 3.22h-.19l-.91-3.28h-.07v2.57a.8.8 0 000 .3.31.31 0 00.12.15l.14.06h.14v.25h-1.11v-.25h.26a.23.23 0 00.12-.15.8.8 0 000-.3V3.43a.531.531 0 000-.23.33.33 0 00-.12-.14L53.97 3h-.13v-.24h1.19l.72 2.61.64-2.16c0-.08 0-.16.06-.26a.774.774 0 000-.19h1.38V3h-.14a.53.53 0 00-.12 0 .18.18 0 00-.12.11.478.478 0 000 .22v2.38a.409.409 0 000 .21.22.22 0 00.12.13l.13.05h.15v.25h-.02zm-4.88-1.86a4.29 4.29 0 00-.05-.6 1.803 1.803 0 00-.13-.52.91.91 0 00-.24-.37.55.55 0 00-.37-.14.58.58 0 00-.39.14.999.999 0 00-.26.39 2.362 2.362 0 00-.13.51c-.014.19-.014.38 0 .57.001.22.018.442.05.66.023.185.07.367.14.54.054.14.14.267.25.37a.56.56 0 00.38.14.64.64 0 00.57-.45 2.84 2.84 0 00.22-1.24h-.04zm.6 0c0 .256-.03.511-.09.76a2 2 0 01-.28.63 1.4 1.4 0 01-.46.45 1.33 1.33 0 01-.6.14 1.09 1.09 0 01-.53-.13 1.46 1.46 0 01-.44-.39 1.93 1.93 0 01-.3-.61 2.758 2.758 0 01-.11-.8 2.4 2.4 0 01.39-1.41 1.219 1.219 0 011.565-.405 1.2 1.2 0 01.435.385c.28.404.416.89.39 1.38h.03zm-3 1.87h-1c0-.21-.09-.38-.13-.53-.04-.15-.1-.31-.17-.5a1.34 1.34 0 00-.31-.5.55.55 0 00-.42-.16h-.07v1a.398.398 0 000 .2.3.3 0 00.12.13l.13.06h.15v.25h-1.4v-.25h.26a.2.2 0 00.12-.12.48.48 0 000-.22V3.34a.46.46 0 000-.21.3.3 0 00-.12-.13l-.15-.06h-.13V2.7h1.4v.24h-.14a.53.53 0 00-.12 0 .18.18 0 00-.12.11.478.478 0 000 .22v1.08h.19a.49.49 0 00.19-.05.43.43 0 00.16-.14c.064-.089.115-.186.15-.29l.11-.34c0-.11.06-.23.1-.35.029-.095.069-.185.12-.27a.59.59 0 01.23-.24.55.55 0 01.28-.07.42.42 0 01.33.12.46.46 0 01.1.31.51.51 0 01-.08.28.29.29 0 01-.43 0 2.67 2.67 0 01-.2-.29.58.58 0 00-.11.27c0 .13-.07.25-.1.35-.044.162-.105.32-.18.47a.8.8 0 01-.21.26v.05a.85.85 0 01.42.25c.11.135.198.287.26.45.047.104.087.211.12.32.035.078.065.158.09.24a.53.53 0 00.14.23.44.44 0 00.15.08h.26v.25l.01.12zM45 1.18a.74.74 0 01-.06.27.71.71 0 01-.16.28.92.92 0 01-.29.23 1.09 1.09 0 01-.48.08 1.05 1.05 0 01-.46-.08 1 1 0 01-.3-.23.779.779 0 01-.16-.28.997.997 0 01-.05-.27.49.49 0 01.09-.3.239.239 0 01.2-.11.32.32 0 01.2.08.37.37 0 01.09.27c.01.08.01.16 0 .24l-.06.2a.46.46 0 00.21.18.64.64 0 00.54 0 .52.52 0 00.23-.18 1.418 1.418 0 01-.06-.21.994.994 0 010-.23.368.368 0 01.09-.27.32.32 0 01.2-.08.24.24 0 01.2.11.49.49 0 01.09.3H45zm.64 5.18h-1.4v-.25h.26a.25.25 0 00.13-.12.48.48 0 000-.22V3.84l-1.32 1.83v.06a.41.41 0 000 .21.22.22 0 00.12.13l.13.05h.15v.25h-1.39v-.25h.26A.28.28 0 0042.7 6a.48.48 0 000-.22V3.4a.46.46 0 000-.21.3.3 0 00-.12-.13L42.43 3h-.13v-.24h1.4V3h-.15a.27.27 0 00-.12 0 .18.18 0 00-.12.11.671.671 0 000 .22v1.9l1.33-1.83a.49.49 0 000-.24.3.3 0 00-.12-.13l-.15-.06h-.14v-.24h1.4v.24h-.15a.35.35 0 00-.11 0 .15.15 0 00-.12.11.48.48 0 000 .22v2.38a.58.58 0 000 .21.22.22 0 00.12.13l.13.05h.15v.25l-.01.04zM41.38 4.5v-.6a2.169 2.169 0 00-.14-.52.91.91 0 00-.24-.37.55.55 0 00-.37-.14.6.6 0 00-.39.14.999.999 0 00-.26.39 2.363 2.363 0 00-.13.51c-.014.19-.014.38 0 .57.001.22.018.442.05.66.028.184.075.365.14.54.054.14.14.267.25.37a.56.56 0 00.38.14c.24 0 .43-.15.58-.45a3 3 0 00.21-1.24h-.08zm.6 0c0 .256-.03.511-.09.76a2 2 0 01-.28.63 1.34 1.34 0 01-.47.45 1.25 1.25 0 01-.59.14 1 1 0 01-.52-.13 1.38 1.38 0 01-.45-.39 2.17 2.17 0 01-.3-.61 2.758 2.758 0 01-.11-.8 2.4 2.4 0 01.39-1.41 1.22 1.22 0 011.566-.406c.174.09.323.223.434.386.28.404.416.89.39 1.38h.03zm-3.22 1.87h-1.41v-.25h.26a.28.28 0 00.12-.12.48.48 0 00.05-.22V3h-.8a10.18 10.18 0 01-.1 1.57 5.122 5.122 0 01-.26 1.06 1.58 1.58 0 01-.35.61.57.57 0 01-.39.2.36.36 0 01-.32-.14.52.52 0 01-.04-.58.21.21 0 01.2-.12.33.33 0 01.22.09.922.922 0 01.19.26c.068-.097.125-.2.17-.31.071-.179.128-.362.17-.55.063-.24.11-.484.14-.73a5.81 5.81 0 00.06-.88.66.66 0 000-.28.29.29 0 00-.12-.15.84.84 0 00-.18-.07h-.2v-.24h2.62v.24h-.15a.35.35 0 00-.11 0 .15.15 0 00-.12.11.478.478 0 000 .22v2.38a.579.579 0 000 .21.22.22 0 00.12.13l.13.05h.15v.25l-.05.04zm-3.47 0h-1.46v-.25h.26a.23.23 0 00.12-.12.48.48 0 00.05-.22V3.85l-1.33 1.83v.06a.558.558 0 000 .21.3.3 0 00.12.13l.14.05h.15v.25h-1.4v-.25h.26a.25.25 0 00.13-.12.671.671 0 000-.22V3.41a.46.46 0 00-.05-.21.22.22 0 00-.12-.13l-.14-.06h-.14v-.24h1.4v.24h-.15a.2.2 0 00-.11 0 .15.15 0 00-.12.11.48.48 0 000 .22v1.9l1.32-1.83a.49.49 0 000-.24.22.22 0 00-.12-.13l-.15-.06h-.13v-.24h1.39v.24h-.14a.53.53 0 00-.12 0 .18.18 0 00-.12.11.478.478 0 000 .22v2.38a.408.408 0 000 .21.22.22 0 00.12.13l.13.05h.15v.25l.06.04zm-3.39 0h-1.14c-.08-.29-.16-.56-.23-.79l-.24-.7a1.821 1.821 0 00-.39-.75.67.67 0 00-.52-.21h-.18v1.7a.54.54 0 000 .22.27.27 0 00.13.15l.17.07a1 1 0 00.21 0v.27h-1.72v-.27h.2a.56.56 0 00.18-.05.29.29 0 00.13-.14.791.791 0 000-.23V3.9h-.18a.76.76 0 00-.53.19 2.31 2.31 0 00-.39.77c-.08.22-.16.46-.24.73-.08.27-.16.52-.23.76h-1.1v-.27h.31a.34.34 0 00.2-.13.982.982 0 00.15-.3c.05-.13.1-.28.16-.45.06-.17.13-.33.18-.49a2 2 0 01.37-.67 1.2 1.2 0 01.51-.35v-.05a2.825 2.825 0 01-.2-.28l-.15-.31c0-.11-.07-.21-.1-.31s-.05-.21-.08-.32c-.03-.11 0-.18-.07-.29-.07-.11 0-.2-.07-.28a1.516 1.516 0 00-.11-.22.39.39 0 00-.14-.17l-.08.19a.868.868 0 01-.09.17.4.4 0 01-.12.11.29.29 0 01-.17 0 .23.23 0 01-.23-.14.57.57 0 01-.08-.28.478.478 0 010-.18.509.509 0 01.09-.16.58.58 0 01.15-.11.79.79 0 01.23 0 .63.63 0 01.33.09.83.83 0 01.27.23c.114.15.202.32.26.5.06.19.12.38.16.56.04.18.1.41.14.56.04.15.111.29.21.41a.81.81 0 00.2.18c.06.04.129.06.2.06h.24V1.88a.48.48 0 000-.22.27.27 0 00-.13-.15.56.56 0 00-.19-.09l-.19-.05v-.26h1.72v.26h-.2l-.18.05a.259.259 0 00-.14.15.843.843 0 000 .23v1.81h.23a.43.43 0 00.22-.06.79.79 0 00.19-.18c.092-.123.16-.262.2-.41.05-.17.1-.35.15-.56.05-.21.1-.37.17-.57.057-.176.141-.34.25-.49a.67.67 0 01.27-.23.63.63 0 01.33-.09.72.72 0 01.22 0 .55.55 0 01.16.11.36.36 0 01.08.15c.01.063.01.127 0 .19.01.05.01.1 0 .15a.462.462 0 01-.05.14.38.38 0 01-.09.09.2.2 0 01-.14 0 .33.33 0 01-.17 0 .63.63 0 01-.12-.11.994.994 0 01-.1-.17c0-.06-.05-.13-.08-.19a.609.609 0 00-.14.17c0 .07-.07.14-.1.22-.03.092-.053.185-.07.28l-.07.27c0 .09-.05.19-.08.31a3.137 3.137 0 01-.1.32c-.04.108-.09.212-.15.31a1.61 1.61 0 01-.21.3v.05c.204.074.387.197.53.36.156.198.278.422.36.66.05.15.11.31.18.49.07.18.12.32.16.45.038.103.088.2.15.29.041.06.1.106.17.13h.34l.02.38zm3.05 6.49h-.65c-.06-.24-.16-.54-.28-.87a8.389 8.389 0 00-.41-1 5.04 5.04 0 00-.51-.88 1 1 0 00-.61-.43c-.22 0-.46-.02-.72-.06h-.69v9.85c-.01.258.041.515.15.75.1.194.257.354.45.46.165.086.34.153.52.2l.59.09v.88h-5.33V21l.55-.05c.17-.012.339-.05.5-.11a.79.79 0 00.44-.42c.109-.249.16-.519.15-.79v-10h-.76l-.66.05a1 1 0 00-.59.44 6.368 6.368 0 00-.54.87c-.14.3-.28.63-.41 1-.13.37-.21.65-.26.83h-.65V8.58h9.72v4.28zm-16.19 9.48a5.24 5.24 0 01-2.56-.67 6.84 6.84 0 01-2.17-1.94 10.11 10.11 0 01-1.5-3.09 14.171 14.171 0 01-.55-4.12 14.85 14.85 0 01.54-4.15c.32-1.152.834-2.24 1.52-3.22a7.11 7.11 0 012.26-2.06 5.69 5.69 0 012.79-.72 5.23 5.23 0 012 .35c.618.242 1.195.58 1.71 1l.43-.91h.84l.09 6.8h-.86a20.475 20.475 0 00-.51-2.15 8.588 8.588 0 00-.79-2A4.268 4.268 0 0020.83 4a2.55 2.55 0 00-1.59-.52 3.39 3.39 0 00-1.89.58 5 5 0 00-1.52 1.71 9.9 9.9 0 00-1 2.78 18.685 18.685 0 00-.35 3.75c-.013 1.13.111 2.259.37 3.36a9.72 9.72 0 001 2.69 5.57 5.57 0 001.59 1.79 3.47 3.47 0 002 .65 3.57 3.57 0 001.56-.35c.468-.22.889-.53 1.24-.91.361-.406.67-.857.92-1.34.273-.526.49-1.08.65-1.65l.8.48a8.31 8.31 0 01-2.4 4.06 5.39 5.39 0 01-3.55 1.22l.1.04zM5.09 19.71l-.52.54-3.74-4.47-.27-.36a1.12 1.12 0 01-.17-.66 1.14 1.14 0 01.16-.65c.11-.16.21-.31.31-.43l3.71-4.43.52.56-2.73 4.93 2.73 5v-.03zm4 0l-2.74-5 2.74-4.93-.52-.56-3.74 4.46-.3.42a1.37 1.37 0 000 1.32l.27.36 3.75 4.47.54-.54zm125.26-4.95c.014.237-.05.472-.18.67l-.26.35-3.75 4.47-.52-.54 2.74-5-2.74-4.93.52-.56 3.71 4.43c.111.13.211.266.3.41.123.202.185.434.18.67v.03zm4 0a1.205 1.205 0 00-.18-.64 2.698 2.698 0 00-.29-.44l-3.71-4.43-.52.56 2.73 4.93-2.73 5 .52.54 3.74-4.47c.06-.07.14-.18.26-.35.13-.198.194-.433.18-.67v-.03zM124.53 3.18c-.01.341-.074.679-.19 1a3.044 3.044 0 01-.58 1 3.29 3.29 0 01-1.07.8 3.808 3.808 0 01-1.7.32 3.904 3.904 0 01-1.68-.32 3.369 3.369 0 01-1.09-.8 3.316 3.316 0 01-.75-2c-.015-.378.094-.75.31-1.06a.876.876 0 01.72-.42c.272.01.531.116.73.3a1.24 1.24 0 01.34 1 3.204 3.204 0 01-.13.87c-.08.32-.15.55-.2.7.185.285.444.514.75.66.315.14.656.212 1 .21a2.39 2.39 0 001-.21 1.61 1.61 0 00.81-.66c-.06-.18-.13-.42-.21-.74a3.58 3.58 0 01-.12-.83 1.244 1.244 0 01.34-1c.196-.184.452-.291.72-.3a.889.889 0 01.73.42c.213.311.319.684.3 1.06h-.03zm2.3 18.69h-5V21l.5-.05c.155-.013.307-.05.45-.11a.904.904 0 00.45-.42c.113-.248.168-.518.16-.79v-7l-4.79 6.6v.23c-.007.26.041.52.14.76a1 1 0 00.45.45c.152.093.317.16.49.2.173.05.351.084.53.1v.88h-5.05V21l.51-.05c.152-.011.301-.049.44-.11a.78.78 0 00.44-.42c.11-.248.161-.519.15-.79V11a1.657 1.657 0 00-.15-.75 1.081 1.081 0 00-.44-.46 1.792 1.792 0 00-.53-.22l-.48-.08v-.88h5.05v.88a5.386 5.386 0 00-.53.07c-.15 0-.29.06-.42.09a.77.77 0 00-.44.43c-.104.25-.152.52-.14.79v6.85l4.79-6.61a1.869 1.869 0 00-.15-.87.994.994 0 00-.44-.45 1.755 1.755 0 00-.54-.22l-.49-.08v-.88h5.04v.88a5.386 5.386 0 00-.53.07l-.42.09a.806.806 0 00-.44.43c-.104.25-.152.52-.14.79v8.6c-.009.259.032.517.12.76.09.197.245.357.44.45.149.091.311.159.48.2.174.049.351.082.53.1v.88l-.04.01zm-13.2 0h-5.1V21l.49-.05c.152-.013.301-.05.44-.11a.904.904 0 00.45-.42c.113-.248.168-.518.16-.79V11a1.657 1.657 0 00-.15-.75 1.081 1.081 0 00-.44-.46 1.792 1.792 0 00-.53-.22l-.48-.08v-.88h5.11v.88c-.2 0-.38 0-.53.07l-.42.09a.798.798 0 00-.43.43 1.832 1.832 0 00-.15.79v8.6c-.012.26.032.52.13.76a.895.895 0 00.43.45c.149.091.311.159.48.2.177.049.358.082.54.1v.89zm-5.38-4.07a4.327 4.327 0 01-.36 1.84 3.63 3.63 0 01-.93 1.27 3.85 3.85 0 01-1.26.72 4.425 4.425 0 01-1.46.24h-5.41V21l.5-.05c.155-.013.307-.05.45-.11a.798.798 0 00.43-.42c.11-.248.161-.519.15-.79V11a1.657 1.657 0 00-.15-.75.996.996 0 00-.44-.46 1.809 1.809 0 00-.53-.22l-.48-.08v-.88h5.25v.88l-.62.06a2.898 2.898 0 00-.51.1.763.763 0 00-.45.46c-.09.243-.134.5-.13.76v3.17h1.59c.607-.01 1.212.06 1.8.21.486.121.941.339 1.34.64.416.299.744.702.95 1.17.247.564.363 1.175.34 1.79l-.07-.05zm-2.13-.05a2.995 2.995 0 00-.65-1.93 2.235 2.235 0 00-1.87-.81 6.477 6.477 0 00-.85.05 4.576 4.576 0 01-.52.05v4.75a1.106 1.106 0 00.32.85c.35.218.76.317 1.17.28.417.015.83-.09 1.19-.3.306-.18.558-.44.73-.75.175-.312.3-.65.37-1a5.92 5.92 0 00.11-1.15v-.04zm-8.85 4.12H92.2V21l.5-.05c.152-.011.301-.049.44-.11a.84.84 0 00.45-.42c.118-.246.173-.517.16-.79V15.4h-4.62v4.08c-.01.262.042.522.15.76a1 1 0 00.44.46c.15.083.307.15.47.2.178.04.359.07.54.09v.88h-5.08V21l.51-.05c.152-.011.301-.049.44-.11a.79.79 0 00.44-.42c.11-.248.161-.519.15-.79V11a1.669 1.669 0 00-.15-.75 1 1 0 00-.44-.46 1.809 1.809 0 00-.53-.22l-.48-.08v-.88h5.07v.88c-.2 0-.38 0-.53.07l-.42.09a.802.802 0 00-.44.43c-.1.251-.147.52-.14.79v3.42h4.7V11a1.859 1.859 0 00-.14-.75 1.05 1.05 0 00-.45-.46 1.71 1.71 0 00-.53-.22l-.47-.08v-.88h5.07v.88a5.327 5.327 0 00-.53.07l-.42.09a.77.77 0 00-.44.43c-.108.249-.16.519-.15.79v8.6a2 2 0 00.13.76.92.92 0 00.44.45c.148.093.31.16.48.2.174.049.351.082.53.1v.88l-.08.01zm-13.15 0H79V21l.5-.05a1.49 1.49 0 00.45-.11.91.91 0 00.45-.42 1.79 1.79 0 00.16-.79V16.1c-.57.3-1.07.55-1.5.74a3.681 3.681 0 01-1.56.29 3.15 3.15 0 01-2.41-.83 3.8 3.8 0 01-.77-2.65V11a1.609 1.609 0 00-.15-.75 1 1 0 00-.44-.46 1.809 1.809 0 00-.53-.22l-.48-.08v-.88h5.12v.88c-.21 0-.39 0-.54.07-.15.07-.29.06-.42.09a.77.77 0 00-.44.43c-.1.251-.147.52-.14.79V13a3.731 3.731 0 00.53 2 1.76 1.76 0 001.52.63 5.539 5.539 0 001.06-.12c.424-.086.837-.22 1.23-.4V11a1.669 1.669 0 00-.15-.75 1.09 1.09 0 00-.44-.46 1.809 1.809 0 00-.53-.22l-.48-.08v-.88h5.11v.88c-.2 0-.38 0-.53.07l-.41.09a.77.77 0 00-.44.43 1.82 1.82 0 00-.15.79v8.6c-.006.26.038.518.13.76a.89.89 0 00.43.45c.152.093.317.16.49.2.174.05.351.083.53.1v.88l-.08.01zm-12.35 0h-5.06V21l.5-.05a1.49 1.49 0 00.45-.11.87.87 0 00.45-.42c.113-.248.168-.518.16-.79v-7l-4.79 6.6v.23c-.007.26.04.52.14.76a1 1 0 00.45.45c.152.093.317.16.49.2.177.05.358.084.54.1v.88h-5.06V21l.51-.05c.152-.011.301-.049.44-.11a.79.79 0 00.44-.42c.11-.248.161-.519.15-.79V11a1.67 1.67 0 00-.15-.75 1 1 0 00-.44-.46 1.809 1.809 0 00-.53-.22l-.48-.08v-.88h5.05v.88a5.327 5.327 0 00-.53.07c-.15 0-.29.06-.42.09a.802.802 0 00-.44.43 1.83 1.83 0 00-.14.79v6.85l4.79-6.61a1.879 1.879 0 00-.15-.87 1 1 0 00-.44-.45 1.76 1.76 0 00-.54-.22l-.49-.08v-.88h5.05v.88c-.2 0-.38 0-.53.07l-.42.09a.802.802 0 00-.44.43c-.1.251-.147.52-.14.79v8.6a2 2 0 00.12.76 1 1 0 00.44.45c.15.091.311.159.48.2.177.049.358.082.54.1v.89zm-13.21 0h-5.1V21l.49-.05c.152-.013.3-.05.44-.11a.91.91 0 00.45-.42c.11-.248.161-.519.15-.79v-9.9h-2.87a39.671 39.671 0 01-.35 5.65 19.7 19.7 0 01-.93 3.86 6.322 6.322 0 01-1.26 2.19 2.07 2.07 0 01-1.45.73 1.33 1.33 0 01-1.14-.51 1.86 1.86 0 01-.39-1.18 1.73 1.73 0 01.25-.91.77.77 0 01.72-.43 1.2 1.2 0 01.8.32 4 4 0 01.69.92c.248-.339.45-.709.6-1.1.263-.648.47-1.317.62-2 .219-.874.392-1.758.52-2.65.14-1.044.207-2.096.2-3.15a2.931 2.931 0 00-.14-1 1 1 0 00-.43-.52 1.78 1.78 0 00-.66-.25 7.252 7.252 0 00-.73-.16v-.88h9.47v.88c-.2 0-.38 0-.53.07l-.42.09a.8.8 0 00-.44.43 2 2 0 00-.14.79v8.6c-.012.26.032.52.13.76a.89.89 0 00.43.45c.15.091.311.159.48.2.177.05.358.083.54.1v.88-.04zm-14.73-6.72a16.145 16.145 0 00-.15-2.13 8.47 8.47 0 00-.48-1.9 3.61 3.61 0 00-.89-1.33 1.88 1.88 0 00-1.34-.51 2 2 0 00-1.39.51c-.418.387-.74.866-.94 1.4a8.005 8.005 0 00-.48 1.87 17.711 17.711 0 00-.13 2 16.1 16.1 0 00.16 2.38c.09.67.269 1.326.53 1.95.197.514.504.978.9 1.36a2 2 0 001.35.49 2.35 2.35 0 002.09-1.63 10.57 10.57 0 00.77-4.49v.03zm2.18 0c.003.924-.112 1.845-.34 2.74a7.079 7.079 0 01-1 2.29 4.8 4.8 0 01-1.68 1.6 4.46 4.46 0 01-2.16.53 4.08 4.08 0 01-1.89-.48 4.842 4.842 0 01-1.59-1.39 7 7 0 01-1.1-2.2 9.681 9.681 0 01-.4-2.9 8.44 8.44 0 011.42-5.08 4.37 4.37 0 013.72-2 4.33 4.33 0 013.6 1.88 8 8 0 011.46 4.99l-.04.02zm67.75-10.83l-.44.18a1.534 1.534 0 00-.34.22 1.155 1.155 0 00-.24.3c-.053.13-.08.27-.08.41a.676.676 0 00.13.46.421.421 0 00.32.14.52.52 0 00.36-.13.984.984 0 00.27-.3V4.32h.02zm1 2l-.25.1a.59.59 0 01-.23 0 .486.486 0 01-.37-.13.746.746 0 01-.18-.4c-.11.16-.249.3-.41.41a.999.999 0 01-.52.14.638.638 0 01-.53-.26 1.001 1.001 0 01-.21-.66 1.61 1.61 0 010-.38c.03-.107.077-.208.14-.3.057-.076.125-.143.2-.2l.22-.14.54-.23a3.28 3.28 0 00.54-.27v-.55a.857.857 0 00-.23-.5.448.448 0 00-.31-.1.542.542 0 00-.25.06.444.444 0 00-.16.12 1.347 1.347 0 000 .22c.005.087.005.173 0 .26a.355.355 0 01-.202.324.308.308 0 01-.266-.009.258.258 0 01-.092-.095.694.694 0 01.03-.63c.067-.104.152-.195.25-.27a1.23 1.23 0 01.32-.18.921.921 0 01.36-.07 1.8 1.8 0 01.43 0 .763.763 0 01.33.18c.11.104.189.235.23.38.057.195.084.397.08.6v1.89a.471.471 0 000 .23.36.36 0 00.12.15.39.39 0 00.14 0h.2v.24l.08.07zm-4.12.16a1.098 1.098 0 01-1-.52 2.513 2.513 0 01-.36-1.42c-.004-.244.03-.487.1-.72.057-.22.148-.429.27-.62.116-.17.266-.312.44-.42.17-.11.369-.165.57-.16.254-.007.5.082.69.25a.947.947 0 01.26.71.723.723 0 01-.07.33.227.227 0 01-.23.14.368.368 0 01-.27-.11.38.38 0 01-.09-.25 1.381 1.381 0 010-.34v-.26a.253.253 0 00-.16-.15.54.54 0 00-.22 0 .432.432 0 00-.27.08.707.707 0 00-.25.28 1.93 1.93 0 00-.18.5 4.097 4.097 0 00-.06.75c-.017.39.066.78.24 1.13a.72.72 0 00.63.44.68.68 0 00.48-.18c.151-.152.27-.332.35-.53l.19.16a2.003 2.003 0 01-.51.7.998.998 0 01-.65.25l.1-.04zm-2.72 0a1.122 1.122 0 01-1-.52 2.606 2.606 0 01-.35-1.42 2.733 2.733 0 01.09-.72c.065-.218.159-.427.28-.62.113-.169.259-.312.43-.42.172-.106.369-.161.57-.16a.898.898 0 011 1 .723.723 0 01-.07.33.247.247 0 01-.23.14.34.34 0 01-.27-.11.392.392 0 01-.1-.25 2.144 2.144 0 010-.34 1.88 1.88 0 000-.26.24.24 0 00-.16-.15.51.51 0 00-.22 0 .47.47 0 00-.27.08.9.9 0 00-.25.28 1.637 1.637 0 00-.17.5 3.314 3.314 0 00-.07.75c-.017.39.066.78.24 1.13a.736.736 0 00.64.44.658.658 0 00.47-.18c.154-.151.277-.331.36-.53l.19.16a1.99 1.99 0 01-.51.7 1 1 0 01-.66.25l.06-.08zm-2.63-2.12l-.44.18c-.124.06-.242.134-.35.22a1.109 1.109 0 00-.23.3c-.053.13-.08.27-.08.41a.72.72 0 00.12.46.455.455 0 00.33.14.52.52 0 00.36-.13.984.984 0 00.27-.3V4.36h.02zm1 2l-.24.1a.61.61 0 01-.24 0 .48.48 0 01-.36-.13.746.746 0 01-.18-.4 1.42 1.42 0 01-.4.41.999.999 0 01-.52.14.665.665 0 01-.54-.26 1.008 1.008 0 01-.2-.66 1.61 1.61 0 010-.38c.03-.107.077-.208.14-.3.057-.076.125-.143.2-.2l.22-.14.53-.23c.192-.071.376-.162.55-.27v-.55a.76.76 0 00-.07-.26.661.661 0 00-.17-.24.397.397 0 00-.3-.1.542.542 0 00-.25.06.444.444 0 00-.16.12v.22c.01.086.01.174 0 .26a.355.355 0 01-.09.24.327.327 0 01-.25.11.251.251 0 01-.22-.13.74.74 0 01-.07-.3.605.605 0 01.1-.33c.067-.104.152-.195.25-.27.094-.076.198-.137.31-.18a1 1 0 01.37-.07 1.85 1.85 0 01.43 0 .768.768 0 01.33.18c.11.104.189.235.23.38.057.195.084.397.08.6v1.89a.471.471 0 000 .23.29.29 0 00.12.15.34.34 0 00.14 0h.19v.24l.07.07zm-3.14.07h-1.32v-.25h.26a.274.274 0 00.12-.12.48.48 0 000-.22V3h-.79a9.929 9.929 0 01-.1 1.56 4.991 4.991 0 01-.26 1.07 1.705 1.705 0 01-.35.61.557.557 0 01-.4.2.37.37 0 01-.31-.14.461.461 0 01-.11-.32.481.481 0 01.07-.26.211.211 0 01.2-.12.329.329 0 01.22.09c.075.078.139.165.19.26.068-.097.126-.2.17-.31.071-.179.128-.362.17-.55.06-.23.1-.48.14-.73.043-.291.063-.586.06-.88a.695.695 0 000-.28.43.43 0 00-.12-.15.828.828 0 00-.18-.07h-.21v-.24h2.63v.24h-.27a.232.232 0 00-.12.12.677.677 0 000 .22V5.7a.57.57 0 000 .21c.01.029.026.055.047.078a.21.21 0 00.073.052l.13.06h.15v.25l-.09.08zm-3.3 0v-.25h-.26a.481.481 0 01-.16-.08.451.451 0 01-.13-.23 2.229 2.229 0 01-.09-.24c-.05-.13-.08-.23-.12-.32a1.609 1.609 0 00-.26-.45.88.88 0 00-.43-.25v-.05a.819.819 0 00.22-.26c.075-.15.136-.308.18-.47 0-.1.06-.22.1-.35a.762.762 0 01.1-.27l.21.29a.28.28 0 00.2.08.24.24 0 00.22-.11.45.45 0 00.09-.28.47.47 0 00-.11-.31.42.42 0 00-.33-.12.5.5 0 00-.27.07.59.59 0 00-.23.24 1.18 1.18 0 00-.12.27c0 .12-.08.24-.11.35-.03.115-.067.229-.11.34-.032.103-.08.2-.14.29a.52.52 0 01-.16.14.49.49 0 01-.2.05h-.11V3.3a.48.48 0 010-.22.18.18 0 01.12-.12h.26v-.24h-1.38v.24h.14a.42.42 0 01.14.06c.055.03.1.075.13.13a.57.57 0 010 .21v2.38a.666.666 0 010 .22.28.28 0 01-.12.12h-.29v.25h1.41v-.25h-.15l-.13-.06a.22.22 0 01-.12-.13.4.4 0 010-.2v-1h-.01a.57.57 0 01.43.16c.136.143.238.313.3.5.07.163.13.33.18.5 0 .15.08.32.13.53l.98.05zm-3.51-1.74H94.6V4h1.74v.69zm-3.17 1.83a1.12 1.12 0 01-1-.52 2.6 2.6 0 01-.35-1.42 2.729 2.729 0 01.09-.72c.065-.218.16-.427.28-.62a1.44 1.44 0 01.43-.42 1.07 1.07 0 01.57-.16 1 1 0 01.69.25 1 1 0 01.27.71.88.88 0 01-.07.33.25.25 0 01-.23.14.34.34 0 01-.27-.11.39.39 0 01-.1-.25 2.098 2.098 0 010-.34 2.089 2.089 0 000-.26.24.24 0 00-.16-.15.54.54 0 00-.22 0 .47.47 0 00-.27.08.89.89 0 00-.25.28 1.611 1.611 0 00-.17.5 3.303 3.303 0 00-.07.75c-.017.39.066.78.24 1.13a.72.72 0 00.64.44.67.67 0 00.47-.18c.154-.151.277-.331.36-.53l.19.16a2 2 0 01-.51.7 1 1 0 01-.66.25l.1-.04zm-2.31-2.35c.01-.15.01-.3 0-.45a1.607 1.607 0 00-.09-.39.62.62 0 00-.18-.28.4.4 0 00-.3-.11.59.59 0 00-.51.32c-.153.278-.23.592-.22.91h1.3zm.65 1.39c-.1.27-.264.51-.48.7a1 1 0 01-.7.26 1.17 1.17 0 01-.61-.15 1.47 1.47 0 01-.44-.42 2.24 2.24 0 01-.25-.63 3.678 3.678 0 01-.08-.75c0-.24.03-.478.09-.71a2.14 2.14 0 01.26-.62c.108-.166.247-.309.41-.42a1 1 0 01.56-.16 1.13 1.13 0 01.54.12 1 1 0 01.36.35c.097.15.165.316.2.49.05.2.073.405.07.61v.25h-1.91c0 .221.017.442.05.66.033.177.09.349.17.51a1 1 0 00.3.35.81.81 0 00.44.12.64.64 0 00.45-.16c.166-.155.292-.347.37-.56l.2.16zm-3 .87h-1.4v-.25h.26a.23.23 0 00.12-.12.48.48 0 00.05-.22V4.67h-1.21V5.8a.41.41 0 000 .21.25.25 0 00.12.13l.13.06h.15v.25h-1.41V6.2h.27a.28.28 0 00.12-.12.478.478 0 000-.22V3.48a.598.598 0 000-.21.33.33 0 00-.13-.13.35.35 0 00-.14-.06h-.13v-.24h1.4v.24h-.26a.18.18 0 00-.12.12.48.48 0 000 .22v.95h1.29v-.91a.649.649 0 000-.21.33.33 0 00-.13-.13.42.42 0 00-.14-.06h-.14v-.24h1.41v.24h-.26a.18.18 0 00-.12.12.48.48 0 00-.05.22v2.38a.562.562 0 000 .21.22.22 0 00.12.13l.14.06h.14v.25h-.08zm-3.68-1.06a1.05 1.05 0 01-.36.83 1.33 1.33 0 01-.94.32 1.41 1.41 0 01-.47-.07 1.07 1.07 0 01-.36-.21.721.721 0 01-.2-.29.861.861 0 01-.08-.36.61.61 0 01.07-.28.25.25 0 01.22-.11.3.3 0 01.24.11.4.4 0 01.08.23 1.2 1.2 0 010 .25v.23a.47.47 0 00.22.16.9.9 0 00.34.06.64.64 0 00.51-.23 1 1 0 00.2-.65c.01-.083.01-.167 0-.25a.639.639 0 00-.1-.24.6.6 0 00-.52-.22h-.31V4.3h.25a.57.57 0 00.49-.18 1 1 0 00.14-.58.66.66 0 00-.13-.44.46.46 0 00-.37-.16.54.54 0 00-.31.09c-.095.074-.18.162-.25.26-.066.113-.126.23-.18.35a3.301 3.301 0 00-.12.38h-.19V2.69h.2l.1.2c.112-.063.23-.117.35-.16a1.35 1.35 0 01.46-.07 1.33 1.33 0 01.53.09c.117.061.222.142.31.24a.848.848 0 01.15.28c.008.083.008.167 0 .25.01.086.01.174 0 .26a.8.8 0 01-.11.25.998.998 0 01-.23.22 1.09 1.09 0 01-.36.16v.05a.889.889 0 01.55.2.84.84 0 01.2.29c.051.134.075.277.07.42h-.09zm-2.79 1.06h-1.4v-.25h.31a.25.25 0 00.13-.12.478.478 0 000-.22V3.91l-1.25 1.71v.06a.562.562 0 000 .21.27.27 0 00.13.13l.13.06h.15v.25h-1.41v-.25h.27a.28.28 0 00.12-.12.666.666 0 000-.22V3.36a.597.597 0 000-.21.33.33 0 00-.13-.13l-.14-.06h-.14v-.24h1.4v.24h-.26a.2.2 0 00-.12.12.48.48 0 000 .22v1.9l1.33-1.83a.48.48 0 00-.05-.24.22.22 0 00-.12-.13l-.15-.06h-.13V2.7h1.4v.24h-.27a.23.23 0 00-.12.12.671.671 0 000 .22v2.38a.41.41 0 000 .21.22.22 0 00.12.13l.13.06h.15v.25l-.08.12zM75.87 3.7a1.65 1.65 0 01.43-.74.91.91 0 01.68-.3 1.28 1.28 0 01.59.14c.173.094.32.228.43.39.123.183.21.386.26.6a3.252 3.252 0 010 1.52 1.984 1.984 0 01-.29.63 1.35 1.35 0 01-.45.44 1.2 1.2 0 01-.61.15 1.07 1.07 0 01-.52-.14 1.25 1.25 0 01-.44-.42 2.513 2.513 0 01-.3-.73 4.67 4.67 0 01-.11-1.06 6.536 6.536 0 01.07-1c.034-.28.088-.557.16-.83a1.88 1.88 0 01.41-.85 1 1 0 01.71-.36h.8a.59.59 0 00.24-.09.75.75 0 00.23-.26l.17.15-.17.29c-.061.1-.128.197-.2.29l-.11.15a.379.379 0 01-.09.09l-.11.05h-.8a.55.55 0 00-.34.11 1.072 1.072 0 00-.26.26 1.275 1.275 0 00-.16.33c-.042.104-.076.21-.1.32 0 .16-.07.31-.1.45s0 .3-.05.44l.03-.02zm1.71 2.05c.074-.173.124-.354.15-.54.017-.22.017-.44 0-.66a3.768 3.768 0 000-.58 1.879 1.879 0 00-.13-.52.88.88 0 00-.24-.36.51.51 0 00-.37-.14.53.53 0 00-.39.15 1.07 1.07 0 00-.26.38 2.374 2.374 0 00-.13.51 3.61 3.61 0 000 .56 5.082 5.082 0 000 .73c.03.174.077.345.14.51.057.133.143.253.25.35a.57.57 0 00.37.12.52.52 0 00.35-.14.84.84 0 00.34-.45l-.08.08z" fill="#1A1A18"/></svg>