<svg width="88" height="48" fill="none" xmlns="http://www.w3.org/2000/svg"><path fill-rule="evenodd" clip-rule="evenodd" d="M49.37 44.69h-1.15v.53h.88v2.29h.5v-2.29h.88v-.53h-1.11zm1.46-.02v2.78h2V47h-.06a5.716 5.716 0 00-.7 0h-.65v-.6h.98v-.49h-1v-.62h1.43v-.5h-1.89l-.11-.12zm3.88 1.03a.661.661 0 01-.28.13 2.08 2.08 0 01-.36.06h-.39v-.75h.41c.128.005.256.021.38.05a.57.57 0 01.26.12.22.22 0 01.08.19.27.27 0 01-.1.21v-.01zm0-1a2.662 2.662 0 00-.45-.08c-.16-.01-.32-.01-.48 0h-.63v2.78h.53v-1a2 2 0 001.37-.31.822.822 0 00.235-.929.74.74 0 00-.195-.271 1.13 1.13 0 00-.38-.18v-.01zm2.53 1a.57.57 0 01-.27.13 2.2 2.2 0 01-.36.06h-.39v-.75h.41c.128.005.255.022.38.05a.57.57 0 01.26.12.26.26 0 01-.03.4v-.01zm0-1a2.608 2.608 0 00-.46-.08 3.578 3.578 0 00-.47 0h-.64v2.78h.54v-1a1.94 1.94 0 001.36-.31.8.8 0 00.3-.6.72.72 0 00-.26-.6 1 1 0 00-.36-.18l-.01-.01zm1.51 1.83v-.8a7.907 7.907 0 000-1v-.07h-.5v2.76l.46.14 1.32-2v1.85h.49v-2.76l-.46-.14-1.31 2.02zm3.23-1.84h-1.15v.53h.89v2.29h.49v-2.29h.89v-.53h-1.12zm3.49 2.11a.761.761 0 01-.6.29.77.77 0 01-.61-.29 1.12 1.12 0 010-1.41.77.77 0 011.22 0c.164.2.253.452.25.71a1 1 0 01-.26.7zm-.6-2.16a1.31 1.31 0 00-1.3.89 1.42 1.42 0 00-.08.57c-.006.37.13.728.38 1a1.349 1.349 0 001 .4 1.31 1.31 0 001-.4c.253-.27.39-.63.38-1a1.48 1.48 0 00-.37-1.07 1.35 1.35 0 00-1.05-.39h.04zm3.3 1.06a.66.66 0 01-.28.13 2.25 2.25 0 01-.36.06h-.39v-.75h.41c.127.005.255.022.38.05a.57.57 0 01.26.12.219.219 0 01.08.19.298.298 0 01-.1.21v-.01zm0-1a2.608 2.608 0 00-.46-.08 3.578 3.578 0 00-.47 0h-.64v2.78h.54v-1a1.94 1.94 0 001.36-.31.799.799 0 00.3-.6.721.721 0 00-.26-.6 1 1 0 00-.37-.18v-.01zm1.5 1.83v-.8a7.907 7.907 0 000-1v-.07h-.5v2.76l.46.14 1.32-2v1.85h.49v-2.76l-.46-.14-1.31 2.02zm3.92-.7a1.48 1.48 0 01-1.08-.06.399.399 0 01-.1-.12.338.338 0 010-.16.28.28 0 01.11-.26.9.9 0 01.6-.15h.51v.71l-.04.04zm.26-1.19a2.285 2.285 0 00-.37 0H73a2.028 2.028 0 00-.47.08.89.89 0 00-.39.19.78.78 0 00-.28.65.82.82 0 00.32.64.77.77 0 00-.18.43v.19c.015.12.015.24 0 .36a.251.251 0 01-.12.17l-.15.08.63.2v-.05a.681.681 0 00.11-.26c.025-.079.045-.16.06-.24v-.23a1.237 1.237 0 000-.17.45.45 0 01.2-.28c.276.035.555.035.83 0v1.09h.53v-2.77h-.06l-.18-.08zm4.14 1.79a.84.84 0 01-.3.43.721.721 0 01-1.02-.12 1 1 0 01-.23-.68c0-.126.02-.25.06-.37a.998.998 0 01.17-.31.859.859 0 01.26-.2.68.68 0 01.31-.08.639.639 0 01.2 0 .61.61 0 01.18.09c.06.034.114.078.16.13.05.055.094.115.13.18v.07l.47-.26v-.06a1.53 1.53 0 00-.49-.52 1.28 1.28 0 00-1.34 0 1.449 1.449 0 00-.52.55 1.45 1.45 0 000 1.47c.122.226.301.416.52.55.208.128.446.197.69.2a1.19 1.19 0 00.76-.26 1.39 1.39 0 00.49-.69v-.07l-.5-.17v.12zm1.39.1v-1.87h-.55v2.76l.45.14 1.32-2v1.85h.5v-2.76l-.46-.14-1.26 2.02zm2.69-1.4a5.95 5.95 0 01-.06 1.32 1.31 1.31 0 01-.05.23.994.994 0 010 .16l-.06.1v.05h-.17l-.19.45h.07a.62.62 0 00.26.06.68.68 0 00.28-.07 1.259 1.259 0 00.48-.94 7.74 7.74 0 00.09-1.33h.74v2.27h.37v-2.79h-1.8l.04.49zm3.69 1.61a.27.27 0 01-.1.11l-.11.06h-.83c0-.23 0-.47.06-.7h.8l.1.05a.27.27 0 01.08.1.31.31 0 010 .17.27.27 0 010 .16v.05zm.32-.78c-.07-.06-.147-.11-.23-.15a.914.914 0 00-.23-.08.624.624 0 00-.18 0h-.61a4.737 4.737 0 00-.08-1v-.06h-.55v.09c.048.22.071.445.07.67v.9c0 .3 0 .57-.07.82v.3h1.37a.67.67 0 00.2 0 .836.836 0 00.22-.1c.071-.048.138-.101.2-.16a.87.87 0 00.21-.57 1.062 1.062 0 00-.07-.37.94.94 0 00-.25-.25v-.04zm.89-1.28h-.53v1.79c.02.313.02.627 0 .94v.09h.54v-.07c.093-.877.093-1.762 0-2.64l-.01-.11zM13.88 22.93c0 3.16-4.16 5.78-6.29 5.78-.82 0-.82-.34-.82-.59 0-1.76 3.29-4.8 6.5-6.75.39.426.608.982.61 1.56zm15 .7a3.86 3.86 0 013.14-3.14.66.66 0 01.44.12.7.7 0 01.14.49c0 .89-1.35 1.8-3.72 2.53zm25.58-1.31a4.18 4.18 0 011.19-1.52c.13-.1.275-.177.43-.23a.893.893 0 010 .29c0 .16-.16.6-1.65 1.46h.03zM72.22 21c-.213.387-.468.75-.76 1.08a2.07 2.07 0 01-1.36.8h-.09c.013-.226.081-.446.2-.64a3.37 3.37 0 01.91-1.09c.332-.219.688-.4 1.06-.54V21h.04zm15-2.77a.77.77 0 10-1.54 0c0 .37-.07 9.11-6 9.11a5 5 0 01-4.16-2.33 10.2 10.2 0 01-1.69-3.81c.193-.4.305-.836.33-1.28a1.23 1.23 0 00-.17-.65 1 1 0 00-.82-.44 4.78 4.78 0 00-2.9 1 20.109 20.109 0 00-3.75 3.33c0-.18.07-.37.11-.56 1.39-3.93 1.2-4.21 1-4.52a.82.82 0 00-.66-.35c-.68 0-.91.32-1.59 3.42 0 .16-.08.33-.11.5h-2.9c.4-1.46.78-2.87 1.1-4.08a.77.77 0 00-1.42-.56c-3.32 6.08-7 8.91-8 8.66-.11 0-.19-.33-.19-.72a5.805 5.805 0 010-.59c1.74-.83 3.78-2.11 3.78-3.52 0-1.41-.81-1.84-1.48-1.84a3.54 3.54 0 00-2.59 1.78 7.381 7.381 0 00-1.08 2.5 18.9 18.9 0 01-2 .78c.21-1.018.491-2.02.84-3a.77.77 0 00-.36-.92.75.75 0 00-1 .18c-1.19 1.46-3.27 3.56-4.36 3.89-.06-1 .86-4.14 2.13-7.21a.78.78 0 00-1.27-.84c-2.79 2.86-6.49 6.57-8.36 8.32.08-.36.17-.73.26-1.08a.76.76 0 00-.42-.9.77.77 0 00-1 .26c-2.06 3-5.26 5.11-7 4.57-.69-.21-1.1-.92-1.22-2.11 2.46-.68 5.34-2 5.34-4.17a2 2 0 00-2.13-2.16 4.68 4.68 0 00-3.11 1.59 5.87 5.87 0 00-1.6 3.58c-.87.2-1.78.36-2.67.48 1.73-1.67 2.72-3.89 2.37-5.41a2 2 0 00-2.1-1.62c-1.44 0-3.2 1.58-5.24 4.69.75-3 .37-3.56.15-3.89a1.19 1.19 0 00-1-.56 12.566 12.566 0 00-5.27 1.75 7.68 7.68 0 00-5.24-.95c3.11-2.88 11.68-11.22 11.68-15.49a2.63 2.63 0 00-1.33-2.6c-1.4-.7-3.69 0-6.28 1.92a29.81 29.81 0 00-9.58 13.41A60.49 60.49 0 014.66 4.36a.77.77 0 00-.51-1 .79.79 0 00-1 .52C3.15 4-.42 16 1.63 27.37a.772.772 0 101.52-.27c-1.81-10.44 5-19.78 10-23.52 2.29-1.7 4-2.11 4.66-1.78.32.16.48.57.48 1.22 0 3.48-8.71 12.35-13.38 16.33a.76.76 0 00-.17 1 .78.78 0 00.91.36 9.3 9.3 0 016.19-.28c-.51.32-1 .67-1.49 1-1.21.89-5.19 4-5.19 6.67a2 2 0 00.74 1.64 2.54 2.54 0 001.63.5c3 0 7.83-3.36 7.83-7.33a3.89 3.89 0 00-.78-2.33 10.47 10.47 0 013.87-1.3c.21 1.19-1.33 6.15-3.82 12.24-.84 1.89-1.47 3.44-1.78 4.2a.79.79 0 00.42 1 .77.77 0 001.01-.41c.1-.22.63-1.44 1.34-3.15.91-2.06 1.82-4 2.7-5.67 4-7.85 6-8.45 6.47-8.45.47 0 .56.2.61.42.28 1.23-1.13 4-3.9 5.33a.77.77 0 00-.42.87.79.79 0 00.76.6c1.82-.04 3.631-.254 5.41-.64.27 2.16 1.38 2.94 2.28 3.22 1.81.56 4.54-.61 6.85-2.91a1.06 1.06 0 00.22.67.85.85 0 00.7.35c.35 0 .72 0 7.72-7.08-.94 2.85-1.17 4.68-.67 5.42a1.16 1.16 0 001 .54c.9 0 2.11-.71 3.59-2.11-.21 1.2 0 1.51.12 1.66a.88.88 0 00.74.39c.843-.145 1.665-.39 2.45-.73 0 1.56.86 2 1.36 2.13 1.61.41 4.3-1.59 7-5.13l-.71 2.53c-.29.842-.53 1.7-.72 2.57a.775.775 0 00.861.956.773.773 0 00.639-.576s.26-.91.63-2.25c.37-1.34.9-2 1.07-2.07h2.53c-.117.604-.19 1.216-.22 1.83 0 1 .74 1 .83 1 .44 0 .64-.23 1.52-1.19.38-.42.89-1 1.47-1.56a1.5 1.5 0 001.57 1.09 3.61 3.61 0 002.6-1.42 12 12 0 001.11 2.34 6.711 6.711 0 005.79 3.53c2.81 0 5-1.49 6.29-4.31a16.137 16.137 0 001.32-6.31l.03.03z" fill="#3B3838"/><path fill-rule="evenodd" clip-rule="evenodd" d="M33.57 37.29c-.46 1-1.13 1.75-1.61 1.75a.528.528 0 01-.48-.2 3.2 3.2 0 01-.23-2 3 3 0 002.32.46v-.01zm-1.59-2.17a1.06 1.06 0 01.28-.71 1 1 0 01.8-.34c.3 0 1 0 1 1.24v.31a3.77 3.77 0 01-1.12.2c-.43 0-.93-.12-.93-.7h-.03zm8.22-.68c-.38.77-1.16 2.06-2.18 2.06h-.19a1.68 1.68 0 01.26-.66 3 3 0 011.89-1.38h.19l.03-.02zm-.25 6.62c-.58 3.44-1.4 5-2 5h-.12a.64.64 0 010-.26c0-.94.84-2.76 2.17-4.72l-.05-.02zm6.93-4.56a.79.79 0 01-.08-.41 2.76 2.76 0 011.92-2.53v.09c.006.384.053.766.14 1.14a6.16 6.16 0 01-.49.66c-.71.84-1.24 1.06-1.44 1.06l-.05-.01zm20.47-2.23a.78.78 0 000-1.08c-1.89-1.88-4.91.2-7.84 2.2l.07.11-.07-.11c-2.05 1.4-4.17 2.85-5.62 2.85a3.61 3.61 0 01-2.93-2.08 6.294 6.294 0 01-.51-1.16c.35-.567.565-1.207.63-1.87a1.29 1.29 0 00-.26-.81 1.1 1.1 0 00-.88-.4 1.12 1.12 0 00-.48.1 1.08 1.08 0 00-.27 0c-2.67 0-5.56 2.52-7.2 4.19.09-1.47.11-2.51.11-2.52a.76.76 0 00-.64-.76.74.74 0 00-.74.31.8.8 0 00-.53-.27h-.06a2.562 2.562 0 00-.47 0 10.09 10.09 0 00-3 1.34c-.38.22-.76.44-1.14.64a2.388 2.388 0 00-2.49-2.39 2.571 2.571 0 00-1.91.82 2.64 2.64 0 00-.7 1.75.75.75 0 00-.46.34c-2.67 4.33-6 9.23-7.14 10.37-.06-1.19 1.38-5.1 2.1-7 1.6-4.33 2.46-6.83 1.73-7.88a1.18 1.18 0 00-1-.51c-1.69 0-5 4-6.87 6.36a.76.76 0 00.13 1.07.77.77 0 001.07-.14c2.14-2.75 4.49-5.2 5.44-5.69 0 1.07-1.16 4.17-1.93 6.27-1.7 4.6-2.7 7.49-1.85 8.69a1.3 1.3 0 001.11.57c.5 0 1.12 0 5-5.8.63-.94 1.31-2 2-3.1a2.7 2.7 0 00.49 1.11 2.05 2.05 0 001.68.78c1.6 0 2.92-1.92 3.41-3.83l1-.49a2.669 2.669 0 000 .28 1.412 1.412 0 00.47 1.1c.338.284.77.43 1.21.41a3.25 3.25 0 002.43-1.22c0 .4-.06.8-.1 1.19-2.41 2.94-4.09 6.14-4.09 7.78-.02.456.126.903.41 1.26a1.67 1.67 0 001.3.53c1.8 0 3-2.3 3.62-7.25.08-.53.14-1.09.2-1.68l.09-.11a22.798 22.798 0 013.47-3.34c-.077.29-.117.59-.12.89a2.22 2.22 0 00.35 1.28 1.54 1.54 0 001.3.67 3.839 3.839 0 002.54-1.54c.15.32.323.627.52.92a4.79 4.79 0 004 2.36c1.92 0 4.24-1.59 6.48-3.12 2.41-1.66 4.91-3.37 5.9-2.38a.76.76 0 001.04-.01z" fill="#3B3838"/></svg>