<svg width="124" height="37" fill="none" xmlns="http://www.w3.org/2000/svg"><path fill-rule="evenodd" clip-rule="evenodd" d="M8.83 33.88c-.32.1-.37.19-.82.37a3.129 3.129 0 01-1.2.28 2.48 2.48 0 01-1.71-.59 2 2 0 01-.68-1.57 2 2 0 01.68-1.59 2.85 2.85 0 012-.6h.09c.16 1.72 2.14 1.25 2.14 1.25s.1-.69.16-1.27c.067-.57.1-1.145.1-1.72l-.28-.15a4.76 4.76 0 00-1.11-.3 10.004 10.004 0 00-1.83-.15 4.83 4.83 0 00-3.46 1.31 4.52 4.52 0 000 6.46 4.9 4.9 0 003.5 1.27 5.296 5.296 0 001.56-.23c.41-.11.804-.274 1.17-.49a4.7 4.7 0 00.79-.63c.17-.147.324-.311.46-.49l.14-.23s-.83-1.17-1.63-.93h-.07zM29.93 28h-7.59s-.16 2.15 1.57 2.15c.53 0 1 .08 1.48.08v4.21a2.85 2.85 0 00.45 1.73 1.75 1.75 0 001.58.67 4.43 4.43 0 001.65-.38 9.259 9.259 0 001.26-.59c-.3-1.86-1.7-1.58-1.7-1.58h-.16c-.08 0 0-.07 0-.2V30.2a26.989 26.989 0 003.28-.22s.15-2-1.77-2l-.05.02zm-8.39 6.29c.57 0 1.47.06 1.66 1.58a6.29 6.29 0 01-1.25.59 4.38 4.38 0 01-1.64.38 1.81 1.81 0 01-1.58-.59 3.55 3.55 0 01-.45-1.93v-2.14c-.26.41-4.07 4.64-4.07 4.64s-2.24.27-2.24-1.51V30.5c0-.08.06-.19 0-.19-1.29 0-1.13-2.24-1.13-2.24h1.91a2 2 0 012 2.3v2.47c.51-.54 4.67-4.81 4.67-4.81a1.61 1.61 0 011.64 1.64v4.48a.2.2 0 00.19.2h.3l-.01-.06zm22 0h-.31a.2.2 0 01-.19-.2v-4.48a1.61 1.61 0 00-1.64-1.64s-4.16 4.27-4.66 4.81v-2.47a1.999 1.999 0 00-2-2.3h-1.91s-.16 2.24 1.13 2.24c.1 0 0 .11 0 .19v4.81c0 1.78 2.23 1.51 2.23 1.51s3.82-4.23 4.07-4.64v2.14a3.55 3.55 0 00.45 1.93 1.839 1.839 0 001.59.59 4.329 4.329 0 001.63-.38c.44-.15.862-.349 1.26-.59-.18-1.42-1.08-1.5-1.65-1.48v-.04zm43.37-20.66c1.58 0 2-.68 3.22-2.17a1.59 1.59 0 00-1.9-.36 3.55 3.55 0 01-2.29.57c-.26.02-.52.02-.78 0 0 0 .07 2 1.75 2v-.04zm-85.57 12a5.678 5.678 0 001.94.7c.501.09 1.01.134 1.52.13a6.53 6.53 0 003.43-.73 2.38 2.38 0 001.18-2.11 2.41 2.41 0 00-1.84-2.27 2 2 0 001.2-1.79 1.76 1.76 0 00-1-1.54 5.82 5.82 0 00-2.91-.6 12.736 12.736 0 00-3.11.37s0 1.68 1.46 1.68h1.1c.413-.021.827.036 1.22.17a.6.6 0 01.38.57c0 .95-2 .84-2.81.9a1.64 1.64 0 001.88 1.78c.78 0 1.33.24 1.33.71a.68.68 0 01-.48.65 3.25 3.25 0 01-1.21.2 4.75 4.75 0 01-1.45-.19 1.91 1.91 0 00-2.4 1l.14.13c.141.125.295.236.46.33l-.03-.09zm90.38-1.71a.999.999 0 01-.33 0c-.08 0-.11-.06-.11-.19v-4.12c0-2.11-1.71-2-1.71-2l-3.41 3.44c-.34.32-.69.8-1.19 1.4v-3.36a1.65 1.65 0 00-.17-.63 1 1 0 00-.43-.43 3.73 3.73 0 00-.84-.22 8.596 8.596 0 00-1.3-.12h-1.41s-.14 2.08 1.25 2.23a.17.17 0 01.12.19v4.17c0 2.17 1.88 2 1.88 2l3.5-3.37c.349-.314.658-.67.92-1.06v2.13a3.67 3.67 0 00.38 1.94 1.69 1.69 0 001.52.58 4.388 4.388 0 001.64-.37 9.957 9.957 0 001.26-.59s-.36-1.78-1.58-1.58l.01-.04zm-21 .49a9.417 9.417 0 01-1.15-.05v-1.77c.5-.06 1.06-.09 1.22-.09a1.51 1.51 0 011 .25.84.84 0 01.34.7c0 .64-.45 1-1.37 1l-.04-.04zm3-3.09a4.32 4.32 0 00-2.5-.7 8.051 8.051 0 00-1.66.17v-1.5a2.47 2.47 0 00-.11-.54 1.06 1.06 0 00-.17-.42 1.151 1.151 0 00-.34-.28 1.38 1.38 0 00-.54-.21l-.81-.1c-.36 0-.73-.06-1.11-.07h-1.15s-.22 2.17 1.39 2.23c.11 0 .09.12.09.19v6.06l.59.07c.36.05.89.09 1.48.14.59.05 1.13.07 1.61.07a5 5 0 003.21-.88 2.85 2.85 0 001.08-2.3 2.23 2.23 0 00-1-2l-.06.07zm5 2.61a1.29 1.29 0 01-.29 0c-.07 0-.06-.07-.06-.2v-4.18c0-1.77-1.4-1.89-2.11-1.91h-.66v6.09a4.141 4.141 0 00.34 2 1.48 1.48 0 001.44.67 4 4 0 001-.14c.32-.084.634-.19.94-.32.26-.12.85-.42 1.12-.57a1.68 1.68 0 00-1.71-1.5l-.01.06zm-15.65 0c-.08 0-.08-.06-.08-.19v-4.52c0-1.83-2.78-1.57-2.78-1.57v3.53h-3.53v-2.09a1.68 1.68 0 00-1.39-1.44 15.528 15.528 0 00-2.7 0c0 1.42.15 1.9 1.16 2.12 0 0 .18 0 .18.16v5.12c0 1.89 2.77 1.37 2.77 1.37V23.2h3.53v.54a4.25 4.25 0 00.36 2.05 1.56 1.56 0 001.48.69 4.439 4.439 0 001.64-.4c.61-.25 1-.43 1.32-.6a1.79 1.79 0 00-1.94-1.55h-.02zm-12.5-.47c-.32.1-.37.19-.82.37-.38.165-.787.256-1.2.27a2.5 2.5 0 01-1.71-.58 2 2 0 01-.68-1.57 2 2 0 01.68-1.59 2.85 2.85 0 012-.6h.09c.16 1.72 2.14 1.24 2.14 1.24s.1-.68.17-1.27c.06-.571.09-1.146.09-1.72l-.28-.14a4.642 4.642 0 00-1.11-.31 10.003 10.003 0 00-1.83-.15 4.87 4.87 0 00-3.46 1.31 4.53 4.53 0 000 6.47 4.9 4.9 0 003.5 1.26 5.297 5.297 0 001.56-.22 5.077 5.077 0 001.17-.49c.28-.188.544-.398.79-.63.17-.15.324-.317.46-.5l.14-.22s-.83-1.18-1.63-.93h-.07zm-15.85 1c.048.268.136.527.26.77.135.27.338.502.59.67a3.15 3.15 0 001.06.42 6.754 6.754 0 001.67.17 8.128 8.128 0 001.47-.14c.41-.076.815-.183 1.21-.32.31-.12.62-.25.92-.4.3-.15.49-.26.58-.32l.21-.15s-.47-1.43-1.41-1.27c-.45.08-.62.14-1.23.25-.482.094-.97.148-1.46.16a1.08 1.08 0 01-.76-.3.72.72 0 01-.23-.48V23c.527.02 1.055 0 1.58-.06a1.39 1.39 0 001.38-1.51v-.62l-2.9.09s-.18-1.19.37-1.19h2.09c1.82 0 1.73-2 1.73-2h-5.98c-1.14 0-1.06 2-1.06 2l-.08 3.83a7.34 7.34 0 000 .88l-.01.04zm-11.35 2A2.29 2.29 0 0025.53 25a36.468 36.468 0 001.61-5.2 1.39 1.39 0 011 .26c.208.259.327.578.34.91l.35 4.03a1.4 1.4 0 00.41.88c.208.208.461.365.74.46.247.072.502.109.76.11a6.64 6.64 0 003.19-1c-.31-.74-.78-1.78-2.09-1.47-.17 0-.29-.14-.32-.41l-.33-3.66a2.7 2.7 0 00-.23-.9 2.15 2.15 0 00-.58-.72 2.7 2.7 0 00-1.09-.5 6.72 6.72 0 00-1.67-.18h-2.14c-.3 0-2.38.26-2.47.27-.09.01-.1 1.91 1.67 1.91a21.13 21.13 0 01-2.57 6.44c.418.145.857.22 1.3.22l-.04.01zm-8.21-6.78c.57 0 1 .5 1.12 1.3l.46 2.23h-2.81c.36-1 .76-2 1.2-3.53h.03zm-1.88 5h3.85l.06.25a1.729 1.729 0 00.67 1.15 2 2 0 001.11.34 4.14 4.14 0 001-.14c.32-.084.634-.19.94-.32.273-.123.54-.26.8-.41a1.68 1.68 0 00-1.63-1.64c-.16 0-.28-.14-.34-.41l-.78-3.66a2.31 2.31 0 00-.3-.74 3.9 3.9 0 00-.6-.74 2.85 2.85 0 00-1-.59 4 4 0 00-1.37-.22 11.797 11.797 0 00-2.53.19l-.58 2a44.987 44.987 0 01-2.77 6.44 5.801 5.801 0 001.53.25c1.49.05 1.98-1.72 1.98-1.72l-.04-.03z" fill="#00657C"/><path fill-rule="evenodd" clip-rule="evenodd" d="M94.54 19.84c3.8 13.58 21.6 14.32 29 5.4a20.1 20.1 0 00-16.86-8.81 22.379 22.379 0 00-12.14 3.41z" fill="url(#paint0_linear)"/><path fill-rule="evenodd" clip-rule="evenodd" d="M96.89 8.11a13.69 13.69 0 00-2.35 11.71c8.46.13 18.65-4.17 19.31-16.09a13.998 13.998 0 00-5.76-1.23 13.8 13.8 0 00-11.2 5.61z" fill="url(#paint1_linear)"/><path fill-rule="evenodd" clip-rule="evenodd" d="M120.39 20.63a5.245 5.245 0 00-.2-1 5.253 5.253 0 00-.36-.93c0-.07-.07-.14-.11-.22l-.12-.21c-.08-.14-.17-.27-.26-.4s-.19-.26-.29-.39c-.1-.13-.2-.24-.31-.35a6.533 6.533 0 00-.67-.63c-.11-.1-.23-.19-.35-.28l-.36-.26c-.475-.325-.977-.61-1.5-.85l-.38-.18-.2-.08-.19-.08-.19-.07h-.09l-.18-.06-.21-.07-.21-.06-.2-.06h-.41l-.2-.05h-.6a16.14 16.14 0 00-3.24-.25c-.53 0-1.07 0-1.59.11s-1 .14-1.57.25l-.51.11.31-.24c.35-.253.684-.526 1-.82a14.532 14.532 0 001.69-1.9c.25-.33.49-.69.71-1l.17-.27v-.07l.07-.13v-.06a.273.273 0 010-.07l.08-.16c.06-.11.1-.21.15-.31a8.076 8.076 0 00.76-2.7 6.435 6.435 0 00-.4-3 5.691 5.691 0 00-1.85-2.48 5.957 5.957 0 00-1.33-.78c-.23-.09-.47-.18-.71-.25s-.48-.12-.72-.16a7.84 7.84 0 00-2.82 0 9.684 9.684 0 00-1.31.34l-.62.22-.3.13h-.16l-.13.06h-.15l-.15.08h-.15l-.15.08-.28.16-.28.16c-.37.22-.72.46-1.07.71-.674.505-1.31 1.06-1.9 1.66a16.293 16.293 0 00-1.6 1.92c-.24.34-.47.69-.68 1-.11.18-.21.36-.31.54l-.29.55c-.15.3-.28.6-.41.91l-.21-.31a3.539 3.539 0 00-.23-.31 3.651 3.651 0 00-.24-.31l-.12-.15-.13-.14-.13-.14-.14-.14-.13-.24-.14-.13-.28-.26-.3-.24-.3-.23-.54-.39c-.53-.36-.62.18-.39.38l.27.24.26.24.25.26.24.26.23.27.1.14.11.14.1.14.1.15.09.14.1.15.17.3.16.31.15.32c.05.104.093.211.13.32.05.104.093.211.13.32 0 .11.07.22.1.33l.05.16v.17a.67.67 0 00.62.54c.4 0 .63-.54.63-.54.16-.33.32-.67.51-1 .19-.33.37-.65.57-1 .1-.16.21-.31.32-.46.11-.15.21-.3.33-.45.12-.15.46-.58.7-.85.24-.27.5-.54.76-.8s.53-.51.81-.74l.42-.35.44-.33c.29-.21.59-.42.9-.61.31-.19.62-.36.93-.52l.24-.11.24-.11h.62l.24-.08.5-.14a6.767 6.767 0 011-.19 6.18 6.18 0 011 0h.97a3.447 3.447 0 011.47.73c.1.082.194.173.28.27.089.099.172.202.25.31.144.22.264.455.36.7a4.44 4.44 0 01.24 1.66 6.6 6.6 0 01-.36 1.85c0 .07-.06.16-.08.22v.24l-.1.24c0 .09-.07.17-.11.25-.15.34-.31.66-.48 1a13.609 13.609 0 01-1.16 1.84 15.096 15.096 0 01-1.43 1.68c-.53.53-.84.78-1.41 1.29-.76.67-.52 1.46.87 1.09.481-.116.968-.203 1.46-.26.49-.07 1-.12 1.48-.15s1 0 1.46 0c.46 0 1 0 1.45.09.2 0 7.61.82 7.33 5.87-.12 2-1.3 6.45-9.09 6-5.9-.33-8-2.65-8.76-2.8-.15 0-.85 0-.07.79a13.39 13.39 0 002.9 2.13c.935.524 1.92.953 2.94 1.28 1.557.506 3.183.766 4.82.77.551 0 1.102-.03 1.65-.09a16.244 16.244 0 003.22-.7h.16l.18-.07.22-.09h.21c.271-.117.535-.25.79-.4a9.003 9.003 0 001.47-1c.227-.187.447-.386.66-.6.21-.21.41-.43.61-.66a7.72 7.72 0 00.53-.74 7.82 7.82 0 00.47-.79 7.292 7.292 0 00.63-1.79 6.235 6.235 0 00.06-2.28z" fill="#00657C"/><path fill-rule="evenodd" clip-rule="evenodd" d="M1.72 14.49l1.27-2.08-1.17-2h.75l1 1.69h.63v-1.67h.63v1.69h.61l1-1.69h.75l-1.18 2 1.27 2.08h-.74l-1.06-1.76h-.65v1.76h-.66v-1.76h-.62l-1.06 1.76-.77-.02zm65-4.14a2.67 2.67 0 011.16.27v.64a1.93 1.93 0 00-1-.3 1.5 1.5 0 100 3 1.81 1.81 0 001.07-.31v.66a2.84 2.84 0 01-1.18.26 2.111 2.111 0 110-4.21l-.05-.01zm-6.25 4.14v-4.06h.66v1.69h.8l1.13-1.69h.77l-1.35 2 1.45 2.08h-.74l-1.23-1.76h-.81v1.76l-.68-.02zm-1.4-4.06V11h-2.13v1.11h2v.6h-2v1.14h2.17v.61h-2.83v-4.03h2.79zm-4.38 0v4.06h-.67V11h-1.34c-.16 1.8-.32 3.5-1.42 3.51a1.614 1.614 0 01-.4-.07v-.61a.789.789 0 00.28 0c.72 0 .79-1.86.92-3.48l2.63.08zm-8.37 4.06v-4.06h3.41v4.06h-.66V11h-2.09v3.45l-.66.04zm-1.59-4.06v4.06h-.67v-2.84l-1.28 1.92h-.39l-1.28-1.93v2.85h-.66v-4.06h.59l1.55 2.32 1.54-2.32h.6zm-7.75.54a1.49 1.49 0 101.46 1.49A1.4 1.4 0 0036.95 11l.03-.03zm0-.62a2.11 2.11 0 11-2.13 2.11 2 2 0 012.13-2.11zm-6.22 4.14v-4.06h.66v1.69h.8l1.13-1.69h.75l-1.35 2 1.45 2.08h-.74l-1.23-1.76h-.81v1.76l-.66-.02zm-4.44-4.65V9.3a1.6 1.6 0 01-1.72 0v.54a1.6 1.6 0 001.72 0zm.22 4.65v-3l-2.18 3h-.63v-4.06h.67v3.02l2.19-3h.62v4.06l-.67-.02zM20.24 11a1.49 1.49 0 101.46 1.49A1.4 1.4 0 0020.24 11zm0-.62a2.11 2.11 0 11-2.13 2.11 2 2 0 012.13-2.11zm-3.46.08v4.06h-.66V11h-1.35c-.15 1.8-.32 3.5-1.41 3.51a1.459 1.459 0 01-.4-.07v-.61a.7.7 0 00.27 0c.72 0 .79-1.86.92-3.48l2.63.11zm-5.62 4.06v-3l-2.18 3h-.62v-4.09h.66v3.02l2.19-3h.62v4.06l-.67.01z" fill="#1A1A18"/><defs><linearGradient id="paint0_linear" x1="122.07" y1="29.74" x2="95.97" y2="18.1" gradientUnits="userSpaceOnUse"><stop stop-color="#D3D800"/><stop offset="1" stop-color="#009B95"/></linearGradient><linearGradient id="paint1_linear" x1="107.81" y1="2.53" x2="98.721" y2="20.57" gradientUnits="userSpaceOnUse"><stop stop-color="#FEEA00"/><stop offset="1" stop-color="#F8AA2F"/></linearGradient></defs></svg>